<ttFont>
    <TTGlyph name="A" xMin="38" yMin="0" xMax="1401" yMax="1456">
      <contour>
        <pt x="177" y="0" on="1"/>
        <pt x="38" y="0" on="1"/>
        <pt x="760" y="1456" on="1"/>
        <pt x="911" y="1456" on="1"/>
        <pt x="1401" y="0" on="1"/>
        <pt x="1260" y="0" on="1"/>
        <pt x="1114" y="426" on="1"/>
        <pt x="380" y="426" on="1"/>
      </contour>
      <contour>
        <pt x="422" y="520" on="1"/>
        <pt x="1087" y="520" on="1"/>
        <pt x="892" y="1168" on="1"/>
        <pt x="830" y="1389" on="1"/>
        <pt x="736" y="1168" on="1"/>
      </contour>
    </TTGlyph>
    <TTGlyph name="AE" xMin="33" yMin="0" xMax="2002" yMax="1456">
      <contour>
        <pt x="1047" y="1342" on="1"/>
        <pt x="509" y="521" on="1"/>
        <pt x="1137" y="521" on="1"/>
        <pt x="1137" y="1342" on="1"/>
      </contour>
      <contour>
        <pt x="979" y="1456" on="1"/>
        <pt x="2002" y="1456" on="1"/>
        <pt x="1993" y="1342" on="1"/>
        <pt x="1256" y="1342" on="1"/>
        <pt x="1256" y="804" on="1"/>
        <pt x="1911" y="804" on="1"/>
        <pt x="1899" y="691" on="1"/>
        <pt x="1263" y="691" on="1"/>
        <pt x="1263" y="114" on="1"/>
        <pt x="1922" y="114" on="1"/>
        <pt x="1913" y="0" on="1"/>
        <pt x="1144" y="0" on="1"/>
        <pt x="1144" y="407" on="1"/>
        <pt x="442" y="407" on="1"/>
        <pt x="179" y="0" on="1"/>
        <pt x="33" y="0" on="1"/>
      </contour>
    </TTGlyph>
    <TTGlyph name="Aacute" xMin="38" yMin="0" xMax="1401" yMax="1938">
      <component glyphName="A" x="0" y="0" flags="0x1204"/>
      <component glyphName="acute" x="212" y="430" flags="0x1004"/>
    </TTGlyph>
    <TTGlyph name="Acircumflex" xMin="38" yMin="0" xMax="1401" yMax="1940">
      <component glyphName="A" x="0" y="0" flags="0x1204"/>
      <component glyphName="circumflex" x="346" y="430" flags="0x1004"/>
    </TTGlyph>
    <TTGlyph name="Adieresis" xMin="38" yMin="0" xMax="1401" yMax="1851">
      <component glyphName="A" x="0" y="0" flags="0x1204"/>
      <component glyphName="dieresis" x="311" y="430" flags="0x1004"/>
    </TTGlyph>
    <TTGlyph name="Agrave" xMin="38" yMin="0" xMax="1401" yMax="1938">
      <component glyphName="A" x="0" y="0" flags="0x1204"/>
      <component glyphName="grave" x="373" y="430" flags="0x1004"/>
    </TTGlyph>
    <TTGlyph name="Aring" xMin="38" yMin="0" xMax="1401" yMax="1979">
      <component glyphName="A" x="0" y="0" flags="0x1204"/>
      <component glyphName="ring" x="337" y="430" flags="0x1004"/>
    </TTGlyph>
    <TTGlyph name="Atilde" xMin="38" yMin="0" xMax="1401" yMax="1881">
      <component glyphName="A" x="0" y="0" flags="0x1204"/>
      <component glyphName="tilde" x="270" y="430" flags="0x1004"/>
    </TTGlyph>
    <TTGlyph name="B" xMin="224" yMin="0" xMax="1244" yMax="1456">
      <contour>
        <pt x="224" y="0" on="1"/>
        <pt x="343" y="1456" on="1"/>
        <pt x="614" y="1456" on="1"/>
        <pt x="675" y="1456" on="0"/>
        <pt x="814" y="1453" on="0"/>
        <pt x="951" y="1435" on="0"/>
        <pt x="1077" y="1397" on="0"/>
        <pt x="1173" y="1326" on="0"/>
        <pt x="1230" y="1217" on="0"/>
        <pt x="1230" y="1137" on="1"/>
        <pt x="1230" y="1064" on="0"/>
        <pt x="1174" y="939" on="0"/>
        <pt x="1077" y="843" on="0"/>
        <pt x="947" y="777" on="0"/>
        <pt x="874" y="763" on="1"/>
        <pt x="958" y="760" on="0"/>
        <pt x="1094" y="712" on="0"/>
        <pt x="1191" y="625" on="0"/>
        <pt x="1244" y="502" on="0"/>
        <pt x="1244" y="424" on="1"/>
        <pt x="1244" y="340" on="0"/>
        <pt x="1179" y="187" on="0"/>
        <pt x="1051" y="70" on="0"/>
        <pt x="863" y="0" on="0"/>
        <pt x="739" y="0" on="1"/>
      </contour>
      <contour>
        <pt x="408" y="699" on="1"/>
        <pt x="360" y="114" on="1"/>
        <pt x="679" y="114" on="1"/>
        <pt x="781" y="114" on="0"/>
        <pt x="941" y="151" on="0"/>
        <pt x="1051" y="227" on="0"/>
        <pt x="1109" y="343" on="0"/>
        <pt x="1109" y="423" on="1"/>
        <pt x="1109" y="502" on="0"/>
        <pt x="1050" y="608" on="0"/>
        <pt x="936" y="672" on="0"/>
        <pt x="769" y="699" on="0"/>
        <pt x="661" y="699" on="1"/>
      </contour>
      <contour>
        <pt x="416" y="812" on="1"/>
        <pt x="642" y="812" on="1"/>
        <pt x="725" y="812" on="0"/>
        <pt x="887" y="838" on="0"/>
        <pt x="1014" y="904" on="0"/>
        <pt x="1093" y="1018" on="0"/>
        <pt x="1093" y="1106" on="1"/>
        <pt x="1093" y="1181" on="0"/>
        <pt x="1032" y="1273" on="0"/>
        <pt x="924" y="1324" on="0"/>
        <pt x="779" y="1342" on="0"/>
        <pt x="695" y="1342" on="1"/>
        <pt x="460" y="1342" on="1"/>
      </contour>
    </TTGlyph>
    <TTGlyph name="C" xMin="181" yMin="-23" xMax="1356" yMax="1483">
      <contour>
        <pt x="1302" y="1266" on="1"/>
        <pt x="1240" y="1317" on="0"/>
        <pt x="1065" y="1368" on="0"/>
        <pt x="954" y="1368" on="1"/>
        <pt x="848" y="1368" on="0"/>
        <pt x="672" y="1311" on="0"/>
        <pt x="531" y="1211" on="0"/>
        <pt x="426" y="1075" on="0"/>
        <pt x="355" y="916" on="0"/>
        <pt x="320" y="742" on="0"/>
        <pt x="320" y="655" on="1"/>
        <pt x="320" y="540" on="0"/>
        <pt x="379" y="335" on="0"/>
        <pt x="504" y="181" on="0"/>
        <pt x="698" y="91" on="0"/>
        <pt x="833" y="91" on="1"/>
        <pt x="965" y="91" on="0"/>
        <pt x="1188" y="153" on="0"/>
        <pt x="1263" y="215" on="1"/>
        <pt x="1298" y="118" on="1"/>
        <pt x="1207" y="49" on="0"/>
        <pt x="950" y="-23" on="0"/>
        <pt x="792" y="-23" on="1"/>
        <pt x="641" y="-23" on="0"/>
        <pt x="412" y="81" on="0"/>
        <pt x="259" y="262" on="0"/>
        <pt x="181" y="506" on="0"/>
        <pt x="181" y="647" on="1"/>
        <pt x="181" y="758" on="0"/>
        <pt x="230" y="968" on="0"/>
        <pt x="322" y="1154" on="0"/>
        <pt x="456" y="1309" on="0"/>
        <pt x="626" y="1421" on="0"/>
        <pt x="830" y="1483" on="0"/>
        <pt x="947" y="1483" on="1"/>
        <pt x="1078" y="1483" on="0"/>
        <pt x="1276" y="1416" on="0"/>
        <pt x="1356" y="1341" on="1"/>
      </contour>
    </TTGlyph>
    <TTGlyph name="Ccedilla" xMin="181" yMin="-412" xMax="1356" yMax="1483">
      <component glyphName="C" x="0" y="0" flags="0x1204"/>
      <component glyphName="cedilla" x="547" y="0" flags="0x1004"/>
    </TTGlyph>
    <TTGlyph name="D" xMin="211" yMin="0" xMax="1492" yMax="1456">
      <contour>
        <pt x="330" y="1456" on="1"/>
        <pt x="629" y="1456" on="1"/>
        <pt x="757" y="1456" on="0"/>
        <pt x="985" y="1434" on="0"/>
        <pt x="1177" y="1377" on="0"/>
        <pt x="1329" y="1280" on="0"/>
        <pt x="1436" y="1131" on="0"/>
        <pt x="1492" y="925" on="0"/>
        <pt x="1492" y="787" on="1"/>
        <pt x="1492" y="608" on="0"/>
        <pt x="1371" y="317" on="0"/>
        <pt x="1144" y="111" on="0"/>
        <pt x="819" y="0" on="0"/>
        <pt x="616" y="0" on="1"/>
        <pt x="211" y="0" on="1"/>
      </contour>
      <contour>
        <pt x="349" y="114" on="1"/>
        <pt x="644" y="114" on="1"/>
        <pt x="824" y="114" on="0"/>
        <pt x="1091" y="213" on="0"/>
        <pt x="1267" y="389" on="0"/>
        <pt x="1353" y="633" on="0"/>
        <pt x="1353" y="777" on="1"/>
        <pt x="1353" y="935" on="0"/>
        <pt x="1260" y="1151" on="0"/>
        <pt x="1079" y="1284" on="0"/>
        <pt x="812" y="1342" on="0"/>
        <pt x="638" y="1342" on="1"/>
        <pt x="449" y="1342" on="1"/>
      </contour>
    </TTGlyph>
    <TTGlyph name="E" xMin="226" yMin="0" xMax="1181" yMax="1456">
      <contour>
        <pt x="1105" y="114" on="1"/>
        <pt x="1096" y="0" on="1"/>
        <pt x="226" y="0" on="1"/>
        <pt x="345" y="1456" on="1"/>
        <pt x="1181" y="1456" on="1"/>
        <pt x="1172" y="1342" on="1"/>
        <pt x="462" y="1342" on="1"/>
        <pt x="420" y="804" on="1"/>
        <pt x="1091" y="804" on="1"/>
        <pt x="1081" y="691" on="1"/>
        <pt x="410" y="691" on="1"/>
        <pt x="362" y="114" on="1"/>
      </contour>
    </TTGlyph>
    <TTGlyph name="Eacute" xMin="226" yMin="0" xMax="1181" yMax="1938">
      <component glyphName="acute" x="108" y="430" flags="0x1004"/>
      <component glyphName="E" x="0" y="0" flags="0x1004"/>
    </TTGlyph>
    <TTGlyph name="Ecircumflex" xMin="226" yMin="0" xMax="1181" yMax="1940">
      <component glyphName="circumflex" x="247" y="430" flags="0x1004"/>
      <component glyphName="E" x="0" y="0" flags="0x1004"/>
    </TTGlyph>
    <TTGlyph name="Edieresis" xMin="226" yMin="0" xMax="1181" yMax="1851">
      <component glyphName="dieresis" x="211" y="430" flags="0x1004"/>
      <component glyphName="E" x="0" y="0" flags="0x1004"/>
    </TTGlyph>
    <TTGlyph name="Egrave" xMin="226" yMin="0" xMax="1181" yMax="1938">
      <component glyphName="E" x="0" y="0" flags="0x1204"/>
      <component glyphName="grave" x="269" y="430" flags="0x1004"/>
    </TTGlyph>
    <TTGlyph name="Eth" xMin="67" yMin="0" xMax="1492" yMax="1456">
      <contour>
        <pt x="67" y="688" on="1"/>
        <pt x="77" y="790" on="1"/>
        <pt x="275" y="790" on="1"/>
        <pt x="330" y="1456" on="1"/>
        <pt x="629" y="1456" on="1"/>
        <pt x="757" y="1456" on="0"/>
        <pt x="985" y="1434" on="0"/>
        <pt x="1177" y="1377" on="0"/>
        <pt x="1329" y="1280" on="0"/>
        <pt x="1436" y="1131" on="0"/>
        <pt x="1492" y="925" on="0"/>
        <pt x="1492" y="787" on="1"/>
        <pt x="1492" y="608" on="0"/>
        <pt x="1371" y="317" on="0"/>
        <pt x="1144" y="111" on="0"/>
        <pt x="819" y="0" on="0"/>
        <pt x="616" y="0" on="1"/>
        <pt x="211" y="0" on="1"/>
        <pt x="267" y="688" on="1"/>
      </contour>
      <contour>
        <pt x="349" y="114" on="1"/>
        <pt x="644" y="114" on="1"/>
        <pt x="824" y="114" on="0"/>
        <pt x="1091" y="213" on="0"/>
        <pt x="1267" y="389" on="0"/>
        <pt x="1353" y="633" on="0"/>
        <pt x="1353" y="777" on="1"/>
        <pt x="1353" y="935" on="0"/>
        <pt x="1260" y="1151" on="0"/>
        <pt x="1079" y="1284" on="0"/>
        <pt x="812" y="1342" on="0"/>
        <pt x="638" y="1342" on="1"/>
        <pt x="449" y="1342" on="1"/>
        <pt x="404" y="790" on="1"/>
        <pt x="620" y="790" on="1"/>
        <pt x="610" y="688" on="1"/>
        <pt x="395" y="688" on="1"/>
      </contour>
    </TTGlyph>
    <TTGlyph name="Euro" xMin="141" yMin="-21" xMax="1214" yMax="1464">
      <contour>
        <pt x="166" y="642" on="1"/>
        <pt x="274" y="642" on="1"/>
        <pt x="274" y="666" on="0"/>
        <pt x="278" y="751" on="0"/>
        <pt x="286" y="812" on="1"/>
        <pt x="162" y="812" on="1"/>
        <pt x="186" y="919" on="1"/>
        <pt x="310" y="919" on="1"/>
        <pt x="339" y="1036" on="0"/>
        <pt x="448" y="1236" on="0"/>
        <pt x="602" y="1382" on="0"/>
        <pt x="800" y="1464" on="0"/>
        <pt x="919" y="1464" on="1"/>
        <pt x="1108" y="1464" on="0"/>
        <pt x="1214" y="1358" on="1"/>
        <pt x="1182" y="1225" on="1"/>
        <pt x="1144" y="1288" on="0"/>
        <pt x="997" y="1350" on="0"/>
        <pt x="898" y="1350" on="1"/>
        <pt x="808" y="1350" on="0"/>
        <pt x="660" y="1279" on="0"/>
        <pt x="545" y="1161" on="0"/>
        <pt x="465" y="1004" on="0"/>
        <pt x="443" y="919" on="1"/>
        <pt x="1057" y="919" on="1"/>
        <pt x="1032" y="812" on="1"/>
        <pt x="420" y="812" on="1"/>
        <pt x="413" y="783" on="0"/>
        <pt x="405" y="717" on="0"/>
        <pt x="405" y="690" on="1"/>
        <pt x="405" y="676" on="0"/>
        <pt x="408" y="653" on="0"/>
        <pt x="408" y="642" on="1"/>
        <pt x="1002" y="642" on="1"/>
        <pt x="975" y="535" on="1"/>
        <pt x="411" y="535" on="1"/>
        <pt x="415" y="437" on="0"/>
        <pt x="460" y="273" on="0"/>
        <pt x="551" y="156" on="0"/>
        <pt x="692" y="91" on="0"/>
        <pt x="793" y="91" on="1"/>
        <pt x="878" y="91" on="0"/>
        <pt x="1035" y="143" on="0"/>
        <pt x="1104" y="194" on="1"/>
        <pt x="1092" y="69" on="1"/>
        <pt x="1018" y="21" on="0"/>
        <pt x="852" y="-21" on="0"/>
        <pt x="766" y="-21" on="1"/>
        <pt x="644" y="-21" on="0"/>
        <pt x="465" y="60" on="0"/>
        <pt x="345" y="207" on="0"/>
        <pt x="281" y="412" on="0"/>
        <pt x="276" y="535" on="1"/>
        <pt x="141" y="535" on="1"/>
      </contour>
    </TTGlyph>
    <TTGlyph name="F" xMin="218" yMin="0" xMax="1149" yMax="1456">
      <contour>
        <pt x="344" y="0" on="1"/>
        <pt x="218" y="0" on="1"/>
        <pt x="337" y="1456" on="1"/>
        <pt x="1149" y="1456" on="1"/>
        <pt x="1140" y="1342" on="1"/>
        <pt x="454" y="1342" on="1"/>
        <pt x="412" y="799" on="1"/>
        <pt x="1062" y="799" on="1"/>
        <pt x="1052" y="686" on="1"/>
        <pt x="403" y="686" on="1"/>
      </contour>
    </TTGlyph>
    <TTGlyph name="G" xMin="188" yMin="-23" xMax="1420" yMax="1483">
      <contour>
        <pt x="905" y="624" on="1"/>
        <pt x="915" y="738" on="1"/>
        <pt x="1413" y="738" on="1"/>
        <pt x="1358" y="75" on="1"/>
        <pt x="1242" y="21" on="0"/>
        <pt x="987" y="-23" on="0"/>
        <pt x="859" y="-23" on="1"/>
        <pt x="692" y="-23" on="0"/>
        <pt x="441" y="71" on="0"/>
        <pt x="273" y="242" on="0"/>
        <pt x="188" y="484" on="0"/>
        <pt x="188" y="631" on="1"/>
        <pt x="188" y="747" on="0"/>
        <pt x="237" y="963" on="0"/>
        <pt x="331" y="1153" on="0"/>
        <pt x="467" y="1309" on="0"/>
        <pt x="642" y="1421" on="0"/>
        <pt x="852" y="1483" on="0"/>
        <pt x="973" y="1483" on="1"/>
        <pt x="1054" y="1483" on="0"/>
        <pt x="1201" y="1455" on="0"/>
        <pt x="1320" y="1399" on="0"/>
        <pt x="1403" y="1315" on="0"/>
        <pt x="1420" y="1259" on="1"/>
        <pt x="1358" y="1189" on="1"/>
        <pt x="1337" y="1235" on="0"/>
        <pt x="1259" y="1302" on="0"/>
        <pt x="1153" y="1346" on="0"/>
        <pt x="1025" y="1368" on="0"/>
        <pt x="953" y="1368" on="1"/>
        <pt x="852" y="1368" on="0"/>
        <pt x="680" y="1313" on="0"/>
        <pt x="540" y="1215" on="0"/>
        <pt x="433" y="1081" on="0"/>
        <pt x="360" y="923" on="0"/>
        <pt x="323" y="748" on="0"/>
        <pt x="323" y="658" on="1"/>
        <pt x="323" y="530" on="0"/>
        <pt x="392" y="320" on="0"/>
        <pt x="532" y="172" on="0"/>
        <pt x="743" y="91" on="0"/>
        <pt x="885" y="91" on="1"/>
        <pt x="982" y="91" on="0"/>
        <pt x="1160" y="121" on="0"/>
        <pt x="1239" y="157" on="1"/>
        <pt x="1277" y="624" on="1"/>
      </contour>
    </TTGlyph>
    <TTGlyph name="H" xMin="220" yMin="0" xMax="1466" yMax="1456">
      <contour>
        <pt x="349" y="0" on="1"/>
        <pt x="220" y="0" on="1"/>
        <pt x="339" y="1456" on="1"/>
        <pt x="468" y="1456" on="1"/>
        <pt x="414" y="806" on="1"/>
        <pt x="1286" y="806" on="1"/>
        <pt x="1338" y="1456" on="1"/>
        <pt x="1466" y="1456" on="1"/>
        <pt x="1347" y="0" on="1"/>
        <pt x="1219" y="0" on="1"/>
        <pt x="1277" y="693" on="1"/>
        <pt x="405" y="693" on="1"/>
      </contour>
    </TTGlyph>
    <TTGlyph name="I" xMin="235" yMin="0" xMax="483" yMax="1456">
      <contour>
        <pt x="364" y="0" on="1"/>
        <pt x="235" y="0" on="1"/>
        <pt x="354" y="1456" on="1"/>
        <pt x="483" y="1456" on="1"/>
      </contour>
    </TTGlyph>
    <TTGlyph name="Iacute" xMin="228" yMin="0" xMax="616" yMax="1938">
      <component glyphName="I" x="0" y="0" flags="0x1204"/>
      <component glyphName="acute" x="-204" y="430" flags="0x1004"/>
    </TTGlyph>
    <TTGlyph name="Icircumflex" xMin="165" yMin="0" xMax="717" yMax="1940">
      <component glyphName="I" x="0" y="0" flags="0x1204"/>
      <component glyphName="circumflex" x="-72" y="430" flags="0x1004"/>
    </TTGlyph>
    <TTGlyph name="Idieresis" xMin="198" yMin="0" xMax="703" yMax="1851">
      <component glyphName="I" x="0" y="0" flags="0x1204"/>
      <component glyphName="dieresis" x="-108" y="430" flags="0x1004"/>
    </TTGlyph>
    <TTGlyph name="Igrave" xMin="122" yMin="0" xMax="486" yMax="1938">
      <component glyphName="I" x="0" y="0" flags="0x1204"/>
      <component glyphName="grave" x="-43" y="430" flags="0x1004"/>
    </TTGlyph>
    <TTGlyph name="J" xMin="147" yMin="-23" xMax="861" yMax="1456">
      <contour>
        <pt x="177" y="126" on="1"/>
        <pt x="232" y="91" on="0"/>
        <pt x="339" y="91" on="1"/>
        <pt x="415" y="91" on="0"/>
        <pt x="526" y="146" on="0"/>
        <pt x="601" y="248" on="0"/>
        <pt x="643" y="393" on="0"/>
        <pt x="651" y="482" on="1"/>
        <pt x="733" y="1456" on="1"/>
        <pt x="861" y="1456" on="1"/>
        <pt x="782" y="493" on="1"/>
        <pt x="771" y="361" on="0"/>
        <pt x="699" y="167" on="0"/>
        <pt x="582" y="39" on="0"/>
        <pt x="422" y="-23" on="0"/>
        <pt x="323" y="-23" on="1"/>
        <pt x="266" y="-23" on="0"/>
        <pt x="179" y="5" on="0"/>
        <pt x="147" y="31" on="1"/>
      </contour>
    </TTGlyph>
    <TTGlyph name="K" xMin="228" yMin="0" xMax="1332" yMax="1456">
      <contour>
        <pt x="419" y="769" on="1"/>
        <pt x="1171" y="1456" on="1"/>
        <pt x="1332" y="1456" on="1"/>
        <pt x="592" y="758" on="1"/>
        <pt x="1271" y="0" on="1"/>
        <pt x="1088" y="0" on="1"/>
        <pt x="419" y="759" on="1"/>
        <pt x="356" y="0" on="1"/>
        <pt x="228" y="0" on="1"/>
        <pt x="347" y="1456" on="1"/>
        <pt x="475" y="1456" on="1"/>
      </contour>
    </TTGlyph>
    <TTGlyph name="L" xMin="224" yMin="0" xMax="1077" yMax="1456">
      <contour>
        <pt x="1067" y="0" on="1"/>
        <pt x="224" y="0" on="1"/>
        <pt x="343" y="1456" on="1"/>
        <pt x="469" y="1456" on="1"/>
        <pt x="362" y="114" on="1"/>
        <pt x="1077" y="114" on="1"/>
      </contour>
    </TTGlyph>
    <TTGlyph name="Lslash" xMin="16" yMin="0" xMax="1077" yMax="1456">
      <contour>
        <pt x="1067" y="0" on="1"/>
        <pt x="224" y="0" on="1"/>
        <pt x="274" y="618" on="1"/>
        <pt x="16" y="508" on="1"/>
        <pt x="26" y="610" on="1"/>
        <pt x="283" y="719" on="1"/>
        <pt x="343" y="1456" on="1"/>
        <pt x="469" y="1456" on="1"/>
        <pt x="414" y="775" on="1"/>
        <pt x="894" y="980" on="1"/>
        <pt x="885" y="878" on="1"/>
        <pt x="406" y="674" on="1"/>
        <pt x="362" y="114" on="1"/>
        <pt x="1077" y="114" on="1"/>
      </contour>
    </TTGlyph>
    <TTGlyph name="M" xMin="216" yMin="0" xMax="1921" yMax="1456">
      <contour>
        <pt x="342" y="0" on="1"/>
        <pt x="216" y="0" on="1"/>
        <pt x="335" y="1456" on="1"/>
        <pt x="537" y="1456" on="1"/>
        <pt x="931" y="396" on="1"/>
        <pt x="1023" y="135" on="1"/>
        <pt x="1154" y="395" on="1"/>
        <pt x="1721" y="1456" on="1"/>
        <pt x="1921" y="1456" on="1"/>
        <pt x="1802" y="0" on="1"/>
        <pt x="1676" y="0" on="1"/>
        <pt x="1750" y="940" on="1"/>
        <pt x="1804" y="1390" on="1"/>
        <pt x="1672" y="1149" on="1"/>
        <pt x="1057" y="0" on="1"/>
        <pt x="962" y="0" on="1"/>
        <pt x="542" y="1124" on="1"/>
        <pt x="453" y="1380" on="1"/>
        <pt x="413" y="937" on="1"/>
      </contour>
    </TTGlyph>
    <TTGlyph name="N" xMin="212" yMin="0" xMax="1514" yMax="1456">
      <contour>
        <pt x="446" y="1322" on="1"/>
        <pt x="425" y="1056" on="1"/>
        <pt x="339" y="0" on="1"/>
        <pt x="212" y="0" on="1"/>
        <pt x="331" y="1456" on="1"/>
        <pt x="502" y="1456" on="1"/>
        <pt x="1170" y="323" on="1"/>
        <pt x="1287" y="102" on="1"/>
        <pt x="1308" y="442" on="1"/>
        <pt x="1388" y="1456" on="1"/>
        <pt x="1514" y="1456" on="1"/>
        <pt x="1395" y="0" on="1"/>
        <pt x="1221" y="0" on="1"/>
        <pt x="550" y="1132" on="1"/>
      </contour>
    </TTGlyph>
    <TTGlyph name="Ntilde" xMin="212" yMin="0" xMax="1514" yMax="1881">
      <component glyphName="N" x="0" y="0" flags="0x1204"/>
      <component glyphName="tilde" x="404" y="430" flags="0x1004"/>
    </TTGlyph>
    <TTGlyph name="O" xMin="188" yMin="-23" xMax="1609" yMax="1483">
      <contour>
        <pt x="1609" y="801" on="1"/>
        <pt x="1609" y="621" on="0"/>
        <pt x="1501" y="318" on="0"/>
        <pt x="1300" y="99" on="0"/>
        <pt x="1014" y="-23" on="0"/>
        <pt x="836" y="-23" on="1"/>
        <pt x="683" y="-23" on="0"/>
        <pt x="442" y="73" on="0"/>
        <pt x="275" y="250" on="0"/>
        <pt x="188" y="501" on="0"/>
        <pt x="188" y="656" on="1"/>
        <pt x="188" y="836" on="0"/>
        <pt x="296" y="1139" on="0"/>
        <pt x="497" y="1359" on="0"/>
        <pt x="785" y="1483" on="0"/>
        <pt x="965" y="1483" on="1"/>
        <pt x="1117" y="1483" on="0"/>
        <pt x="1356" y="1386" on="0"/>
        <pt x="1522" y="1208" on="0"/>
        <pt x="1609" y="956" on="0"/>
      </contour>
      <contour>
        <pt x="325" y="669" on="1"/>
        <pt x="325" y="546" on="0"/>
        <pt x="391" y="335" on="0"/>
        <pt x="521" y="180" on="0"/>
        <pt x="717" y="91" on="0"/>
        <pt x="846" y="91" on="1"/>
        <pt x="998" y="91" on="0"/>
        <pt x="1230" y="200" on="0"/>
        <pt x="1386" y="392" on="0"/>
        <pt x="1465" y="653" on="0"/>
        <pt x="1465" y="805" on="1"/>
        <pt x="1465" y="923" on="0"/>
        <pt x="1402" y="1129" on="0"/>
        <pt x="1273" y="1281" on="0"/>
        <pt x="1079" y="1369" on="0"/>
        <pt x="947" y="1369" on="1"/>
        <pt x="798" y="1369" on="0"/>
        <pt x="566" y="1253" on="0"/>
        <pt x="407" y="1059" on="0"/>
        <pt x="325" y="806" on="0"/>
      </contour>
    </TTGlyph>
    <TTGlyph name="OE" xMin="179" yMin="-23" xMax="2082" yMax="1483">
      <contour>
        <pt x="179" y="656" on="1"/>
        <pt x="179" y="837" on="0"/>
        <pt x="287" y="1140" on="0"/>
        <pt x="487" y="1360" on="0"/>
        <pt x="769" y="1483" on="0"/>
        <pt x="943" y="1483" on="1"/>
        <pt x="1045" y="1483" on="0"/>
        <pt x="1224" y="1442" on="0"/>
        <pt x="1302" y="1384" on="1"/>
        <pt x="1305" y="1395" on="0"/>
        <pt x="1311" y="1419" on="0"/>
        <pt x="1313" y="1430" on="1"/>
        <pt x="1316" y="1442" on="0"/>
        <pt x="1318" y="1455" on="1"/>
        <pt x="2082" y="1456" on="1"/>
        <pt x="2072" y="1342" on="1"/>
        <pt x="1425" y="1342" on="1"/>
        <pt x="1383" y="804" on="1"/>
        <pt x="1993" y="804" on="1"/>
        <pt x="1983" y="691" on="1"/>
        <pt x="1373" y="691" on="1"/>
        <pt x="1325" y="114" on="1"/>
        <pt x="2007" y="114" on="1"/>
        <pt x="1997" y="0" on="1"/>
        <pt x="1189" y="0" on="1"/>
        <pt x="1196" y="110" on="1"/>
        <pt x="1149" y="72" on="0"/>
        <pt x="1079" y="43" on="1"/>
        <pt x="1019" y="18" on="0"/>
        <pt x="841" y="-23" on="0"/>
        <pt x="720" y="-23" on="1"/>
        <pt x="580" y="-23" on="0"/>
        <pt x="376" y="81" on="0"/>
        <pt x="243" y="263" on="0"/>
        <pt x="179" y="512" on="0"/>
      </contour>
      <contour>
        <pt x="1285" y="1302" on="1"/>
        <pt x="1241" y="1320" on="0"/>
        <pt x="1186" y="1335" on="1"/>
        <pt x="1139" y="1348" on="0"/>
        <pt x="1011" y="1369" on="0"/>
        <pt x="934" y="1369" on="1"/>
        <pt x="784" y="1369" on="0"/>
        <pt x="554" y="1252" on="0"/>
        <pt x="397" y="1057" on="0"/>
        <pt x="316" y="805" on="0"/>
        <pt x="316" y="670" on="1"/>
        <pt x="316" y="514" on="0"/>
        <pt x="383" y="290" on="0"/>
        <pt x="501" y="144" on="0"/>
        <pt x="663" y="75" on="0"/>
        <pt x="758" y="75" on="1"/>
        <pt x="859" y="75" on="0"/>
        <pt x="1081" y="146" on="0"/>
        <pt x="1196" y="215" on="1"/>
        <pt x="1268" y="1038" on="1"/>
      </contour>
    </TTGlyph>
    <TTGlyph name="Oacute" xMin="188" yMin="-23" xMax="1609" yMax="1938">
      <component glyphName="acute" x="331" y="430" flags="0x1004"/>
      <component glyphName="O" x="0" y="0" flags="0x1004"/>
    </TTGlyph>
    <TTGlyph name="Ocircumflex" xMin="188" yMin="-23" xMax="1609" yMax="1940">
      <component glyphName="circumflex" x="459" y="430" flags="0x1004"/>
      <component glyphName="O" x="0" y="0" flags="0x1004"/>
    </TTGlyph>
    <TTGlyph name="Odieresis" xMin="188" yMin="-23" xMax="1609" yMax="1851">
      <component glyphName="dieresis" x="386" y="430" flags="0x1004"/>
      <component glyphName="O" x="0" y="0" flags="0x1004"/>
    </TTGlyph>
    <TTGlyph name="Ograve" xMin="188" yMin="-23" xMax="1609" yMax="1938">
      <component glyphName="O" x="0" y="0" flags="0x1204"/>
      <component glyphName="grave" x="492" y="430" flags="0x1004"/>
    </TTGlyph>
    <TTGlyph name="Omega" xMin="120" yMin="0" xMax="1546" yMax="1449">
      <contour>
        <pt x="148" y="103" on="1"/>
        <pt x="508" y="103" on="1"/>
        <pt x="438" y="149" on="0"/>
        <pt x="322" y="277" on="0"/>
        <pt x="239" y="435" on="0"/>
        <pt x="193" y="618" on="0"/>
        <pt x="193" y="720" on="1"/>
        <pt x="193" y="886" on="0"/>
        <pt x="308" y="1156" on="0"/>
        <pt x="508" y="1346" on="0"/>
        <pt x="779" y="1449" on="0"/>
        <pt x="935" y="1449" on="1"/>
        <pt x="1079" y="1449" on="0"/>
        <pt x="1305" y="1355" on="0"/>
        <pt x="1463" y="1189" on="0"/>
        <pt x="1546" y="960" on="0"/>
        <pt x="1546" y="825" on="1"/>
        <pt x="1546" y="702" on="0"/>
        <pt x="1470" y="486" on="0"/>
        <pt x="1349" y="303" on="0"/>
        <pt x="1197" y="156" on="0"/>
        <pt x="1122" y="103" on="1"/>
        <pt x="1504" y="103" on="1"/>
        <pt x="1496" y="0" on="1"/>
        <pt x="990" y="0" on="1"/>
        <pt x="996" y="96" on="1"/>
        <pt x="1085" y="152" on="0"/>
        <pt x="1238" y="300" on="0"/>
        <pt x="1350" y="480" on="0"/>
        <pt x="1414" y="688" on="0"/>
        <pt x="1414" y="804" on="1"/>
        <pt x="1414" y="913" on="0"/>
        <pt x="1353" y="1109" on="0"/>
        <pt x="1229" y="1257" on="0"/>
        <pt x="1043" y="1343" on="0"/>
        <pt x="919" y="1343" on="1"/>
        <pt x="790" y="1343" on="0"/>
        <pt x="571" y="1251" on="0"/>
        <pt x="412" y="1084" on="0"/>
        <pt x="323" y="850" on="0"/>
        <pt x="323" y="709" on="1"/>
        <pt x="323" y="611" on="0"/>
        <pt x="367" y="431" on="0"/>
        <pt x="448" y="274" on="0"/>
        <pt x="562" y="144" on="0"/>
        <pt x="633" y="96" on="1"/>
        <pt x="626" y="0" on="1"/>
        <pt x="120" y="0" on="1"/>
      </contour>
    </TTGlyph>
    <TTGlyph name="Oslash" xMin="188" yMin="-126" xMax="1609" yMax="1565">
      <contour>
        <pt x="1609" y="801" on="1"/>
        <pt x="1609" y="621" on="0"/>
        <pt x="1501" y="318" on="0"/>
        <pt x="1300" y="99" on="0"/>
        <pt x="1014" y="-23" on="0"/>
        <pt x="836" y="-23" on="1"/>
        <pt x="726" y="-23" on="0"/>
        <pt x="633" y="1" on="1"/>
        <pt x="574" y="-126" on="1"/>
        <pt x="458" y="-126" on="1"/>
        <pt x="533" y="37" on="1"/>
        <pt x="431" y="84" on="0"/>
        <pt x="358" y="161" on="1"/>
        <pt x="275" y="250" on="0"/>
        <pt x="188" y="501" on="0"/>
        <pt x="188" y="656" on="1"/>
        <pt x="188" y="836" on="0"/>
        <pt x="296" y="1139" on="0"/>
        <pt x="497" y="1359" on="0"/>
        <pt x="785" y="1483" on="0"/>
        <pt x="965" y="1483" on="1"/>
        <pt x="1086" y="1483" on="0"/>
        <pt x="1186" y="1452" on="1"/>
        <pt x="1238" y="1565" on="1"/>
        <pt x="1359" y="1565" on="1"/>
        <pt x="1287" y="1411" on="1"/>
        <pt x="1374" y="1366" on="0"/>
        <pt x="1439" y="1297" on="1"/>
        <pt x="1522" y="1208" on="0"/>
        <pt x="1609" y="956" on="0"/>
      </contour>
      <contour>
        <pt x="325" y="669" on="1"/>
        <pt x="325" y="546" on="0"/>
        <pt x="391" y="335" on="0"/>
        <pt x="456" y="257" on="1"/>
        <pt x="510" y="193" on="0"/>
        <pt x="586" y="151" on="1"/>
        <pt x="1134" y="1341" on="1"/>
        <pt x="1052" y="1369" on="0"/>
        <pt x="947" y="1369" on="1"/>
        <pt x="798" y="1369" on="0"/>
        <pt x="566" y="1253" on="0"/>
        <pt x="407" y="1059" on="0"/>
        <pt x="325" y="806" on="0"/>
      </contour>
      <contour>
        <pt x="846" y="91" on="1"/>
        <pt x="998" y="91" on="0"/>
        <pt x="1230" y="200" on="0"/>
        <pt x="1386" y="392" on="0"/>
        <pt x="1465" y="653" on="0"/>
        <pt x="1465" y="805" on="1"/>
        <pt x="1465" y="923" on="0"/>
        <pt x="1402" y="1129" on="0"/>
        <pt x="1337" y="1205" on="1"/>
        <pt x="1293" y="1257" on="0"/>
        <pt x="1233" y="1294" on="1"/>
        <pt x="684" y="111" on="1"/>
        <pt x="758" y="91" on="0"/>
      </contour>
    </TTGlyph>
    <TTGlyph name="Otilde" xMin="188" yMin="-23" xMax="1609" yMax="1881">
      <component glyphName="O" x="0" y="0" flags="0x1204"/>
      <component glyphName="tilde" x="389" y="430" flags="0x1004"/>
    </TTGlyph>
    <TTGlyph name="P" xMin="224" yMin="0" xMax="1278" yMax="1456">
      <contour>
        <pt x="350" y="0" on="1"/>
        <pt x="224" y="0" on="1"/>
        <pt x="343" y="1456" on="1"/>
        <pt x="665" y="1456" on="1"/>
        <pt x="746" y="1456" on="0"/>
        <pt x="899" y="1442" on="0"/>
        <pt x="1036" y="1408" on="0"/>
        <pt x="1150" y="1350" on="0"/>
        <pt x="1232" y="1263" on="0"/>
        <pt x="1278" y="1141" on="0"/>
        <pt x="1278" y="1061" on="1"/>
        <pt x="1278" y="939" on="0"/>
        <pt x="1174" y="766" on="0"/>
        <pt x="1000" y="655" on="0"/>
        <pt x="773" y="603" on="0"/>
        <pt x="649" y="603" on="1"/>
        <pt x="403" y="603" on="1"/>
      </contour>
      <contour>
        <pt x="413" y="717" on="1"/>
        <pt x="703" y="717" on="1"/>
        <pt x="798" y="717" on="0"/>
        <pt x="958" y="756" on="0"/>
        <pt x="1075" y="838" on="0"/>
        <pt x="1141" y="964" on="0"/>
        <pt x="1141" y="1051" on="1"/>
        <pt x="1141" y="1138" on="0"/>
        <pt x="1077" y="1251" on="0"/>
        <pt x="961" y="1316" on="0"/>
        <pt x="798" y="1342" on="0"/>
        <pt x="700" y="1342" on="1"/>
        <pt x="460" y="1342" on="1"/>
      </contour>
    </TTGlyph>
    <TTGlyph name="Q" xMin="195" yMin="-198" xMax="1609" yMax="1483">
      <contour>
        <pt x="325" y="669" on="1"/>
        <pt x="325" y="547" on="0"/>
        <pt x="390" y="336" on="0"/>
        <pt x="521" y="180" on="0"/>
        <pt x="716" y="91" on="0"/>
        <pt x="846" y="91" on="1"/>
        <pt x="998" y="91" on="0"/>
        <pt x="1230" y="200" on="0"/>
        <pt x="1386" y="392" on="0"/>
        <pt x="1465" y="653" on="0"/>
        <pt x="1465" y="805" on="1"/>
        <pt x="1465" y="923" on="0"/>
        <pt x="1402" y="1129" on="0"/>
        <pt x="1273" y="1281" on="0"/>
        <pt x="1079" y="1368" on="0"/>
        <pt x="947" y="1368" on="1"/>
        <pt x="847" y="1368" on="0"/>
        <pt x="678" y="1315" on="0"/>
        <pt x="540" y="1221" on="0"/>
        <pt x="434" y="1090" on="0"/>
        <pt x="362" y="935" on="0"/>
        <pt x="325" y="760" on="0"/>
      </contour>
      <contour>
        <pt x="1590" y="-188" on="1"/>
        <pt x="1562" y="-193" on="0"/>
        <pt x="1481" y="-198" on="0"/>
        <pt x="1443" y="-198" on="1"/>
        <pt x="1332" y="-198" on="0"/>
        <pt x="1175" y="-186" on="0"/>
        <pt x="1063" y="-163" on="0"/>
        <pt x="987" y="-130" on="0"/>
        <pt x="929" y="-90" on="0"/>
        <pt x="878" y="-44" on="0"/>
        <pt x="847" y="-18" on="1"/>
        <pt x="698" y="-18" on="0"/>
        <pt x="457" y="78" on="0"/>
        <pt x="287" y="259" on="0"/>
        <pt x="195" y="518" on="0"/>
        <pt x="195" y="681" on="1"/>
        <pt x="195" y="856" on="0"/>
        <pt x="305" y="1151" on="0"/>
        <pt x="507" y="1364" on="0"/>
        <pt x="791" y="1483" on="0"/>
        <pt x="966" y="1483" on="1"/>
        <pt x="1118" y="1483" on="0"/>
        <pt x="1357" y="1385" on="0"/>
        <pt x="1522" y="1207" on="0"/>
        <pt x="1609" y="960" on="0"/>
        <pt x="1609" y="810" on="1"/>
        <pt x="1609" y="658" on="0"/>
        <pt x="1527" y="379" on="0"/>
        <pt x="1367" y="157" on="0"/>
        <pt x="1132" y="10" on="0"/>
        <pt x="980" y="-10" on="1"/>
        <pt x="1015" y="-36" on="0"/>
        <pt x="1136" y="-64" on="0"/>
        <pt x="1272" y="-78" on="0"/>
        <pt x="1404" y="-81" on="0"/>
        <pt x="1451" y="-81" on="1"/>
        <pt x="1495" y="-81" on="0"/>
        <pt x="1573" y="-76" on="0"/>
        <pt x="1599" y="-72" on="1"/>
      </contour>
    </TTGlyph>
    <TTGlyph name="R" xMin="227" yMin="0" xMax="1284" yMax="1456">
      <contour>
        <pt x="1139" y="0" on="1"/>
        <pt x="1019" y="416" on="1"/>
        <pt x="998" y="489" on="0"/>
        <pt x="951" y="586" on="0"/>
        <pt x="882" y="644" on="0"/>
        <pt x="782" y="668" on="0"/>
        <pt x="707" y="668" on="1"/>
        <pt x="409" y="668" on="1"/>
        <pt x="353" y="0" on="1"/>
        <pt x="227" y="0" on="1"/>
        <pt x="346" y="1456" on="1"/>
        <pt x="682" y="1456" on="1"/>
        <pt x="739" y="1456" on="0"/>
        <pt x="872" y="1452" on="0"/>
        <pt x="1006" y="1432" on="0"/>
        <pt x="1130" y="1390" on="0"/>
        <pt x="1226" y="1313" on="0"/>
        <pt x="1284" y="1195" on="0"/>
        <pt x="1284" y="1110" on="1"/>
        <pt x="1284" y="1030" on="0"/>
        <pt x="1229" y="901" on="0"/>
        <pt x="1129" y="803" on="0"/>
        <pt x="991" y="738" on="0"/>
        <pt x="907" y="724" on="1"/>
        <pt x="905" y="718" on="0"/>
        <pt x="905" y="713" on="1"/>
        <pt x="975" y="699" on="0"/>
        <pt x="1060" y="630" on="0"/>
        <pt x="1121" y="510" on="0"/>
        <pt x="1174" y="332" on="0"/>
        <pt x="1214" y="209" on="1"/>
        <pt x="1278" y="0" on="1"/>
      </contour>
      <contour>
        <pt x="421" y="783" on="1"/>
        <pt x="715" y="783" on="1"/>
        <pt x="791" y="783" on="0"/>
        <pt x="944" y="810" on="0"/>
        <pt x="1067" y="879" on="0"/>
        <pt x="1145" y="997" on="0"/>
        <pt x="1145" y="1088" on="1"/>
        <pt x="1145" y="1164" on="0"/>
        <pt x="1088" y="1263" on="0"/>
        <pt x="987" y="1320" on="0"/>
        <pt x="848" y="1342" on="0"/>
        <pt x="766" y="1342" on="1"/>
        <pt x="465" y="1342" on="1"/>
      </contour>
    </TTGlyph>
    <TTGlyph name="S" xMin="166" yMin="-23" xMax="1167" yMax="1483">
      <contour>
        <pt x="226" y="250" on="1"/>
        <pt x="271" y="195" on="0"/>
        <pt x="366" y="132" on="0"/>
        <pt x="462" y="100" on="0"/>
        <pt x="559" y="91" on="0"/>
        <pt x="607" y="91" on="1"/>
        <pt x="697" y="91" on="0"/>
        <pt x="848" y="127" on="0"/>
        <pt x="958" y="198" on="0"/>
        <pt x="1019" y="303" on="0"/>
        <pt x="1019" y="372" on="1"/>
        <pt x="1019" y="441" on="0"/>
        <pt x="953" y="537" on="0"/>
        <pt x="844" y="609" on="0"/>
        <pt x="706" y="665" on="0"/>
        <pt x="561" y="721" on="0"/>
        <pt x="423" y="785" on="0"/>
        <pt x="314" y="874" on="0"/>
        <pt x="248" y="995" on="0"/>
        <pt x="248" y="1080" on="1"/>
        <pt x="248" y="1146" on="0"/>
        <pt x="292" y="1257" on="0"/>
        <pt x="368" y="1347" on="0"/>
        <pt x="472" y="1415" on="0"/>
        <pt x="594" y="1460" on="0"/>
        <pt x="727" y="1483" on="0"/>
        <pt x="795" y="1483" on="1"/>
        <pt x="843" y="1483" on="0"/>
        <pt x="944" y="1470" on="0"/>
        <pt x="1042" y="1440" on="0"/>
        <pt x="1131" y="1389" on="0"/>
        <pt x="1167" y="1351" on="1"/>
        <pt x="1111" y="1258" on="1"/>
        <pt x="1079" y="1288" on="0"/>
        <pt x="1002" y="1330" on="0"/>
        <pt x="918" y="1356" on="0"/>
        <pt x="828" y="1368" on="0"/>
        <pt x="784" y="1368" on="1"/>
        <pt x="714" y="1368" on="0"/>
        <pt x="573" y="1338" on="0"/>
        <pt x="459" y="1273" on="0"/>
        <pt x="388" y="1171" on="0"/>
        <pt x="388" y="1099" on="1"/>
        <pt x="388" y="1033" on="0"/>
        <pt x="454" y="939" on="0"/>
        <pt x="563" y="865" on="0"/>
        <pt x="702" y="806" on="0"/>
        <pt x="846" y="747" on="0"/>
        <pt x="985" y="679" on="0"/>
        <pt x="1094" y="588" on="0"/>
        <pt x="1160" y="466" on="0"/>
        <pt x="1160" y="383" on="1"/>
        <pt x="1160" y="307" on="0"/>
        <pt x="1112" y="189" on="0"/>
        <pt x="1027" y="98" on="0"/>
        <pt x="914" y="35" on="0"/>
        <pt x="784" y="-5" on="0"/>
        <pt x="645" y="-23" on="0"/>
        <pt x="576" y="-23" on="1"/>
        <pt x="448" y="-23" on="0"/>
        <pt x="233" y="74" on="0"/>
        <pt x="166" y="170" on="1"/>
      </contour>
    </TTGlyph>
    <TTGlyph name="Scaron" xMin="166" yMin="-23" xMax="1167" yMax="1939">
      <component glyphName="S" x="0" y="0" flags="0x1204"/>
      <component glyphName="caron" x="301" y="430" flags="0x1004"/>
    </TTGlyph>
    <TTGlyph name="T" xMin="157" yMin="0" xMax="1254" yMax="1456">
      <contour>
        <pt x="530" y="0" on="1"/>
        <pt x="638" y="1342" on="1"/>
        <pt x="157" y="1342" on="1"/>
        <pt x="166" y="1456" on="1"/>
        <pt x="1254" y="1456" on="1"/>
        <pt x="1245" y="1342" on="1"/>
        <pt x="769" y="1342" on="1"/>
        <pt x="657" y="0" on="1"/>
      </contour>
    </TTGlyph>
    <TTGlyph name="Thorn" xMin="224" yMin="0" xMax="1262" yMax="1456">
      <contour>
        <pt x="350" y="0" on="1"/>
        <pt x="224" y="0" on="1"/>
        <pt x="343" y="1456" on="1"/>
        <pt x="468" y="1456" on="1"/>
        <pt x="452" y="1237" on="1"/>
        <pt x="649" y="1237" on="1"/>
        <pt x="730" y="1237" on="0"/>
        <pt x="883" y="1223" on="0"/>
        <pt x="1020" y="1189" on="0"/>
        <pt x="1134" y="1131" on="0"/>
        <pt x="1216" y="1044" on="0"/>
        <pt x="1262" y="922" on="0"/>
        <pt x="1262" y="842" on="1"/>
        <pt x="1262" y="720" on="0"/>
        <pt x="1158" y="547" on="0"/>
        <pt x="984" y="436" on="0"/>
        <pt x="757" y="384" on="0"/>
        <pt x="633" y="384" on="1"/>
        <pt x="387" y="384" on="1"/>
      </contour>
      <contour>
        <pt x="397" y="498" on="1"/>
        <pt x="687" y="498" on="1"/>
        <pt x="782" y="498" on="0"/>
        <pt x="942" y="537" on="0"/>
        <pt x="1059" y="619" on="0"/>
        <pt x="1125" y="745" on="0"/>
        <pt x="1125" y="832" on="1"/>
        <pt x="1125" y="919" on="0"/>
        <pt x="1061" y="1032" on="0"/>
        <pt x="945" y="1097" on="0"/>
        <pt x="782" y="1123" on="0"/>
        <pt x="684" y="1123" on="1"/>
        <pt x="444" y="1123" on="1"/>
      </contour>
    </TTGlyph>
    <TTGlyph name="U" xMin="248" yMin="-23" xMax="1452" yMax="1456">
      <contour>
        <pt x="1326" y="1456" on="1"/>
        <pt x="1452" y="1456" on="1"/>
        <pt x="1376" y="548" on="1"/>
        <pt x="1365" y="414" on="0"/>
        <pt x="1277" y="202" on="0"/>
        <pt x="1124" y="55" on="0"/>
        <pt x="905" y="-23" on="0"/>
        <pt x="763" y="-23" on="1"/>
        <pt x="632" y="-23" on="0"/>
        <pt x="439" y="44" on="0"/>
        <pt x="311" y="171" on="0"/>
        <pt x="248" y="355" on="0"/>
        <pt x="248" y="472" on="1"/>
        <pt x="248" y="489" on="0"/>
        <pt x="248" y="515" on="0"/>
        <pt x="250" y="532" on="1"/>
        <pt x="328" y="1456" on="1"/>
        <pt x="453" y="1456" on="1"/>
        <pt x="379" y="543" on="1"/>
        <pt x="378" y="535" on="0"/>
        <pt x="378" y="524" on="0"/>
        <pt x="378" y="519" on="1"/>
        <pt x="378" y="307" on="0"/>
        <pt x="576" y="91" on="0"/>
        <pt x="782" y="91" on="1"/>
        <pt x="888" y="91" on="0"/>
        <pt x="1053" y="141" on="0"/>
        <pt x="1170" y="247" on="0"/>
        <pt x="1238" y="415" on="0"/>
        <pt x="1248" y="533" on="1"/>
      </contour>
    </TTGlyph>
    <TTGlyph name="Uacute" xMin="248" yMin="-23" xMax="1452" yMax="1938">
      <component glyphName="acute" x="265" y="430" flags="0x1004"/>
      <component glyphName="U" x="0" y="0" flags="0x1004"/>
    </TTGlyph>
    <TTGlyph name="Ucircumflex" xMin="248" yMin="-23" xMax="1452" yMax="1940">
      <component glyphName="circumflex" x="381" y="430" flags="0x1004"/>
      <component glyphName="U" x="0" y="0" flags="0x1004"/>
    </TTGlyph>
    <TTGlyph name="Udieresis" xMin="248" yMin="-23" xMax="1452" yMax="1851">
      <component glyphName="dieresis" x="321" y="430" flags="0x1004"/>
      <component glyphName="U" x="0" y="0" flags="0x1004"/>
    </TTGlyph>
    <TTGlyph name="Ugrave" xMin="248" yMin="-23" xMax="1452" yMax="1938">
      <component glyphName="U" x="0" y="0" flags="0x1204"/>
      <component glyphName="grave" x="426" y="430" flags="0x1004"/>
    </TTGlyph>
    <TTGlyph name="V" xMin="149" yMin="0" xMax="1433" yMax="1456">
      <contour>
        <pt x="686" y="100" on="1"/>
        <pt x="774" y="301" on="1"/>
        <pt x="1297" y="1456" on="1"/>
        <pt x="1433" y="1456" on="1"/>
        <pt x="750" y="0" on="1"/>
        <pt x="595" y="0" on="1"/>
        <pt x="149" y="1456" on="1"/>
        <pt x="291" y="1456" on="1"/>
        <pt x="630" y="300" on="1"/>
        <pt x="686" y="100" on="1"/>
      </contour>
    </TTGlyph>
    <TTGlyph name="W" xMin="152" yMin="0" xMax="2201" yMax="1456">
      <contour>
        <pt x="1589" y="67" on="1"/>
        <pt x="1666" y="316" on="1"/>
        <pt x="2074" y="1456" on="1"/>
        <pt x="2201" y="1456" on="1"/>
        <pt x="1663" y="0" on="1"/>
        <pt x="1489" y="0" on="1"/>
        <pt x="1174" y="1325" on="1"/>
        <pt x="645" y="0" on="1"/>
        <pt x="463" y="0" on="1"/>
        <pt x="152" y="1456" on="1"/>
        <pt x="294" y="1456" on="1"/>
        <pt x="518" y="337" on="1"/>
        <pt x="568" y="58" on="1"/>
        <pt x="657" y="318" on="1"/>
        <pt x="1110" y="1456" on="1"/>
        <pt x="1260" y="1456" on="1"/>
        <pt x="1530" y="333" on="1"/>
      </contour>
    </TTGlyph>
    <TTGlyph name="X" xMin="45" yMin="0" xMax="1374" yMax="1456">
      <contour>
        <pt x="640" y="741" on="1"/>
        <pt x="196" y="1456" on="1"/>
        <pt x="362" y="1456" on="1"/>
        <pt x="655" y="952" on="1"/>
        <pt x="732" y="820" on="1"/>
        <pt x="840" y="953" on="1"/>
        <pt x="1228" y="1456" on="1"/>
        <pt x="1374" y="1456" on="1"/>
        <pt x="806" y="742" on="1"/>
        <pt x="1269" y="0" on="1"/>
        <pt x="1106" y="0" on="1"/>
        <pt x="791" y="534" on="1"/>
        <pt x="715" y="664" on="1"/>
        <pt x="615" y="537" on="1"/>
        <pt x="199" y="0" on="1"/>
        <pt x="45" y="0" on="1"/>
      </contour>
    </TTGlyph>
    <TTGlyph name="Y" xMin="156" yMin="0" xMax="1357" yMax="1456">
      <contour>
        <pt x="752" y="588" on="1"/>
        <pt x="701" y="0" on="1"/>
        <pt x="574" y="0" on="1"/>
        <pt x="625" y="582" on="1"/>
        <pt x="156" y="1456" on="1"/>
        <pt x="300" y="1456" on="1"/>
        <pt x="696" y="691" on="1"/>
        <pt x="1219" y="1456" on="1"/>
        <pt x="1357" y="1456" on="1"/>
      </contour>
    </TTGlyph>
    <TTGlyph name="Yacute" xMin="156" yMin="0" xMax="1357" yMax="1938">
      <component glyphName="Y" x="0" y="0" flags="0x1204"/>
      <component glyphName="acute" x="128" y="430" flags="0x1004"/>
    </TTGlyph>
    <TTGlyph name="Ydieresis" xMin="156" yMin="0" xMax="1357" yMax="1851">
      <component glyphName="Y" x="0" y="0" flags="0x1204"/>
      <component glyphName="dieresis" x="256" y="430" flags="0x1004"/>
    </TTGlyph>
    <TTGlyph name="Z" xMin="76" yMin="0" xMax="1270" yMax="1456">
      <contour>
        <pt x="1143" y="0" on="1"/>
        <pt x="76" y="0" on="1"/>
        <pt x="84" y="70" on="1"/>
        <pt x="1087" y="1342" on="1"/>
        <pt x="217" y="1342" on="1"/>
        <pt x="227" y="1456" on="1"/>
        <pt x="1270" y="1456" on="1"/>
        <pt x="1262" y="1390" on="1"/>
        <pt x="254" y="114" on="1"/>
        <pt x="1152" y="114" on="1"/>
      </contour>
    </TTGlyph>
    <TTGlyph name="Zcaron" xMin="76" yMin="0" xMax="1270" yMax="1939">
      <component glyphName="Z" x="0" y="0" flags="0x1204"/>
      <component glyphName="caron" x="268" y="430" flags="0x1004"/>
    </TTGlyph>
    <TTGlyph name="a" xMin="148" yMin="-23" xMax="1200" yMax="1051">
      <contour>
        <pt x="677" y="1051" on="1"/>
        <pt x="749" y="1051" on="0"/>
        <pt x="862" y="1020" on="0"/>
        <pt x="953" y="963" on="0"/>
        <pt x="1025" y="881" on="0"/>
        <pt x="1057" y="829" on="1"/>
        <pt x="1077" y="1026" on="1"/>
        <pt x="1200" y="1026" on="1"/>
        <pt x="1178" y="782" on="1"/>
        <pt x="1115" y="0" on="1"/>
        <pt x="992" y="0" on="1"/>
        <pt x="1011" y="219" on="1"/>
        <pt x="994" y="178" on="0"/>
        <pt x="918" y="93" on="0"/>
        <pt x="807" y="22" on="0"/>
        <pt x="669" y="-23" on="0"/>
        <pt x="591" y="-23" on="1"/>
        <pt x="473" y="-23" on="0"/>
        <pt x="305" y="66" on="0"/>
        <pt x="198" y="209" on="0"/>
        <pt x="148" y="390" on="0"/>
        <pt x="148" y="482" on="1"/>
        <pt x="148" y="552" on="0"/>
        <pt x="178" y="691" on="0"/>
        <pt x="238" y="818" on="0"/>
        <pt x="326" y="926" on="0"/>
        <pt x="444" y="1006" on="0"/>
        <pt x="590" y="1051" on="0"/>
      </contour>
      <contour>
        <pt x="1037" y="525" on="1"/>
        <pt x="1037" y="606" on="0"/>
        <pt x="1006" y="759" on="0"/>
        <pt x="926" y="879" on="0"/>
        <pt x="787" y="951" on="0"/>
        <pt x="679" y="951" on="1"/>
        <pt x="571" y="951" on="0"/>
        <pt x="414" y="865" on="0"/>
        <pt x="314" y="729" on="0"/>
        <pt x="266" y="562" on="0"/>
        <pt x="266" y="482" on="1"/>
        <pt x="266" y="404" on="0"/>
        <pt x="297" y="258" on="0"/>
        <pt x="377" y="144" on="0"/>
        <pt x="514" y="75" on="0"/>
        <pt x="619" y="75" on="1"/>
        <pt x="698" y="75" on="0"/>
        <pt x="844" y="127" on="0"/>
        <pt x="958" y="233" on="0"/>
        <pt x="1030" y="393" on="0"/>
        <pt x="1036" y="500" on="1"/>
      </contour>
    </TTGlyph>
    <TTGlyph name="aacute" xMin="148" yMin="-23" xMax="1200" yMax="1508">
      <component glyphName="a" x="0" y="0" flags="0x1204"/>
      <component glyphName="acute" x="121" y="0" flags="0x1004"/>
    </TTGlyph>
    <TTGlyph name="acircumflex" xMin="148" yMin="-23" xMax="1200" yMax="1510">
      <component glyphName="a" x="0" y="0" flags="0x1204"/>
      <component glyphName="circumflex" x="185" y="0" flags="0x1004"/>
    </TTGlyph>
    <TTGlyph name="acute" xMin="432" yMin="1216" xMax="820" yMax="1508">
      <contour>
        <pt x="661" y="1508" on="1"/>
        <pt x="820" y="1508" on="1"/>
        <pt x="512" y="1216" on="1"/>
        <pt x="432" y="1216" on="1"/>
      </contour>
    </TTGlyph>
    <TTGlyph name="adieresis" xMin="148" yMin="-23" xMax="1200" yMax="1421">
      <component glyphName="a" x="0" y="0" flags="0x1204"/>
      <component glyphName="dieresis" x="177" y="0" flags="0x1004"/>
    </TTGlyph>
    <TTGlyph name="ae" xMin="115" yMin="-28" xMax="1763" yMax="1053">
      <contour>
        <pt x="289" y="810" on="1"/>
        <pt x="225" y="878" on="1"/>
        <pt x="256" y="925" on="0"/>
        <pt x="342" y="992" on="0"/>
        <pt x="448" y="1034" on="0"/>
        <pt x="571" y="1053" on="0"/>
        <pt x="639" y="1053" on="1"/>
        <pt x="699" y="1051" on="0"/>
        <pt x="805" y="1019" on="0"/>
        <pt x="886" y="956" on="0"/>
        <pt x="936" y="861" on="0"/>
        <pt x="941" y="797" on="1"/>
        <pt x="946" y="797" on="1"/>
        <pt x="980" y="864" on="0"/>
        <pt x="1073" y="960" on="0"/>
        <pt x="1181" y="1023" on="0"/>
        <pt x="1300" y="1053" on="0"/>
        <pt x="1362" y="1053" on="1"/>
        <pt x="1465" y="1053" on="0"/>
        <pt x="1617" y="980" on="0"/>
        <pt x="1715" y="856" on="0"/>
        <pt x="1763" y="689" on="0"/>
        <pt x="1763" y="595" on="1"/>
        <pt x="1763" y="547" on="0"/>
        <pt x="1757" y="498" on="1"/>
        <pt x="977" y="498" on="1"/>
        <pt x="975" y="477" on="0"/>
        <pt x="972" y="441" on="0"/>
        <pt x="972" y="421" on="1"/>
        <pt x="972" y="348" on="0"/>
        <pt x="1006" y="223" on="0"/>
        <pt x="1080" y="131" on="0"/>
        <pt x="1196" y="79" on="0"/>
        <pt x="1279" y="79" on="1"/>
        <pt x="1391" y="79" on="0"/>
        <pt x="1574" y="175" on="0"/>
        <pt x="1634" y="258" on="1"/>
        <pt x="1697" y="190" on="1"/>
        <pt x="1625" y="85" on="0"/>
        <pt x="1402" y="-25" on="0"/>
        <pt x="1258" y="-25" on="1"/>
        <pt x="1192" y="-25" on="0"/>
        <pt x="1074" y="9" on="0"/>
        <pt x="978" y="74" on="0"/>
        <pt x="908" y="171" on="0"/>
        <pt x="889" y="234" on="1"/>
        <pt x="854" y="159" on="0"/>
        <pt x="763" y="61" on="0"/>
        <pt x="650" y="1" on="0"/>
        <pt x="516" y="-25" on="0"/>
        <pt x="439" y="-28" on="1"/>
        <pt x="366" y="-28" on="0"/>
        <pt x="247" y="11" on="0"/>
        <pt x="162" y="83" on="0"/>
        <pt x="115" y="187" on="0"/>
        <pt x="115" y="252" on="1"/>
        <pt x="115" y="331" on="0"/>
        <pt x="168" y="451" on="0"/>
        <pt x="269" y="534" on="0"/>
        <pt x="414" y="580" on="0"/>
        <pt x="506" y="586" on="1"/>
        <pt x="596" y="595" on="0"/>
        <pt x="763" y="602" on="0"/>
        <pt x="857" y="604" on="1"/>
        <pt x="857" y="618" on="1"/>
        <pt x="857" y="624" on="0"/>
        <pt x="858" y="640" on="0"/>
        <pt x="858" y="649" on="1"/>
        <pt x="858" y="713" on="0"/>
        <pt x="838" y="824" on="0"/>
        <pt x="785" y="905" on="0"/>
        <pt x="692" y="951" on="0"/>
        <pt x="619" y="951" on="1"/>
        <pt x="567" y="951" on="0"/>
        <pt x="470" y="936" on="0"/>
        <pt x="384" y="902" on="0"/>
        <pt x="314" y="849" on="0"/>
      </contour>
      <contour>
        <pt x="848" y="498" on="1"/>
        <pt x="671" y="495" on="1"/>
        <pt x="588" y="493" on="0"/>
        <pt x="433" y="477" on="0"/>
        <pt x="314" y="429" on="0"/>
        <pt x="242" y="340" on="0"/>
        <pt x="242" y="266" on="1"/>
        <pt x="242" y="215" on="0"/>
        <pt x="281" y="143" on="0"/>
        <pt x="348" y="96" on="0"/>
        <pt x="435" y="75" on="0"/>
        <pt x="483" y="75" on="1"/>
        <pt x="582" y="75" on="0"/>
        <pt x="718" y="146" on="0"/>
        <pt x="803" y="264" on="0"/>
        <pt x="844" y="417" on="0"/>
      </contour>
      <contour>
        <pt x="983" y="600" on="1"/>
        <pt x="1645" y="600" on="1"/>
        <pt x="1648" y="625" on="0"/>
        <pt x="1648" y="651" on="1"/>
        <pt x="1648" y="709" on="0"/>
        <pt x="1611" y="818" on="0"/>
        <pt x="1537" y="901" on="0"/>
        <pt x="1427" y="951" on="0"/>
        <pt x="1354" y="951" on="1"/>
        <pt x="1273" y="951" on="0"/>
        <pt x="1141" y="894" on="0"/>
        <pt x="1045" y="797" on="0"/>
        <pt x="989" y="670" on="0"/>
      </contour>
    </TTGlyph>
    <TTGlyph name="agrave" xMin="148" yMin="-23" xMax="1200" yMax="1508">
      <component glyphName="a" x="0" y="0" flags="0x1204"/>
      <component glyphName="grave" x="282" y="0" flags="0x1004"/>
    </TTGlyph>
    <TTGlyph name="ampersand" xMin="162" yMin="-27" xMax="1616" yMax="1489">
      <contour>
        <pt x="162" y="370" on="1"/>
        <pt x="162" y="462" on="0"/>
        <pt x="239" y="609" on="0"/>
        <pt x="363" y="727" on="0"/>
        <pt x="519" y="821" on="0"/>
        <pt x="598" y="861" on="1"/>
        <pt x="565" y="897" on="0"/>
        <pt x="499" y="967" on="0"/>
        <pt x="447" y="1044" on="0"/>
        <pt x="414" y="1131" on="0"/>
        <pt x="414" y="1185" on="1"/>
        <pt x="414" y="1260" on="0"/>
        <pt x="474" y="1374" on="0"/>
        <pt x="576" y="1451" on="0"/>
        <pt x="712" y="1489" on="0"/>
        <pt x="789" y="1489" on="1"/>
        <pt x="854" y="1489" on="0"/>
        <pt x="977" y="1458" on="0"/>
        <pt x="1072" y="1394" on="0"/>
        <pt x="1130" y="1296" on="0"/>
        <pt x="1130" y="1230" on="1"/>
        <pt x="1130" y="1164" on="0"/>
        <pt x="1071" y="1050" on="0"/>
        <pt x="972" y="953" on="0"/>
        <pt x="842" y="872" on="0"/>
        <pt x="772" y="838" on="1"/>
        <pt x="1199" y="372" on="1"/>
        <pt x="1250" y="435" on="0"/>
        <pt x="1333" y="585" on="0"/>
        <pt x="1392" y="748" on="0"/>
        <pt x="1425" y="917" on="0"/>
        <pt x="1425" y="997" on="1"/>
        <pt x="1425" y="1011" on="0"/>
        <pt x="1424" y="1021" on="0"/>
        <pt x="1423" y="1032" on="1"/>
        <pt x="1553" y="1032" on="1"/>
        <pt x="1553" y="938" on="0"/>
        <pt x="1516" y="739" on="0"/>
        <pt x="1447" y="545" on="0"/>
        <pt x="1345" y="363" on="0"/>
        <pt x="1281" y="286" on="1"/>
        <pt x="1326" y="235" on="0"/>
        <pt x="1401" y="160" on="0"/>
        <pt x="1477" y="106" on="0"/>
        <pt x="1562" y="71" on="0"/>
        <pt x="1616" y="61" on="1"/>
        <pt x="1513" y="-9" on="1"/>
        <pt x="1471" y="-3" on="0"/>
        <pt x="1402" y="29" on="0"/>
        <pt x="1335" y="80" on="0"/>
        <pt x="1260" y="154" on="0"/>
        <pt x="1212" y="202" on="1"/>
        <pt x="1161" y="154" on="0"/>
        <pt x="1045" y="70" on="0"/>
        <pt x="910" y="9" on="0"/>
        <pt x="755" y="-27" on="0"/>
        <pt x="665" y="-27" on="1"/>
        <pt x="556" y="-27" on="0"/>
        <pt x="371" y="26" on="0"/>
        <pt x="237" y="127" on="0"/>
        <pt x="162" y="275" on="0"/>
      </contour>
      <contour>
        <pt x="1131" y="282" on="1"/>
        <pt x="1132" y="282" on="0"/>
        <pt x="1093" y="325" on="0"/>
        <pt x="1028" y="395" on="0"/>
        <pt x="944" y="486" on="0"/>
        <pt x="901" y="533" on="1"/>
        <pt x="799" y="643" on="0"/>
        <pt x="669" y="784" on="1"/>
        <pt x="600" y="752" on="0"/>
        <pt x="466" y="675" on="0"/>
        <pt x="362" y="578" on="0"/>
        <pt x="298" y="458" on="0"/>
        <pt x="298" y="383" on="1"/>
        <pt x="298" y="319" on="0"/>
        <pt x="352" y="209" on="0"/>
        <pt x="451" y="128" on="0"/>
        <pt x="590" y="82" on="0"/>
        <pt x="676" y="82" on="1"/>
        <pt x="751" y="82" on="0"/>
        <pt x="879" y="113" on="0"/>
        <pt x="990" y="167" on="0"/>
        <pt x="1087" y="240" on="0"/>
      </contour>
      <contour>
        <pt x="700" y="909" on="1"/>
        <pt x="755" y="937" on="0"/>
        <pt x="864" y="1001" on="0"/>
        <pt x="949" y="1075" on="0"/>
        <pt x="1002" y="1162" on="0"/>
        <pt x="1002" y="1214" on="1"/>
        <pt x="1002" y="1260" on="0"/>
        <pt x="964" y="1327" on="0"/>
        <pt x="903" y="1370" on="0"/>
        <pt x="826" y="1390" on="0"/>
        <pt x="787" y="1390" on="1"/>
        <pt x="739" y="1390" on="0"/>
        <pt x="650" y="1365" on="0"/>
        <pt x="583" y="1314" on="0"/>
        <pt x="542" y="1239" on="0"/>
        <pt x="542" y="1190" on="1"/>
        <pt x="542" y="1148" on="0"/>
        <pt x="566" y="1075" on="0"/>
        <pt x="608" y="1007" on="0"/>
        <pt x="666" y="942" on="0"/>
      </contour>
    </TTGlyph>
    <TTGlyph name="approxequal" xMin="202" yMin="271" xMax="1255" yMax="914">
      <contour>
        <pt x="1164" y="521" on="1"/>
        <pt x="1228" y="506" on="1"/>
        <pt x="1214" y="453" on="0"/>
        <pt x="1162" y="366" on="0"/>
        <pt x="1090" y="305" on="0"/>
        <pt x="997" y="271" on="0"/>
        <pt x="941" y="271" on="1"/>
        <pt x="883" y="271" on="0"/>
        <pt x="763" y="320" on="0"/>
        <pt x="684" y="368" on="1"/>
        <pt x="632" y="402" on="0"/>
        <pt x="538" y="442" on="0"/>
        <pt x="486" y="442" on="1"/>
        <pt x="402" y="442" on="0"/>
        <pt x="299" y="351" on="0"/>
        <pt x="270" y="277" on="1"/>
        <pt x="202" y="292" on="1"/>
        <pt x="235" y="402" on="0"/>
        <pt x="391" y="527" on="0"/>
        <pt x="501" y="527" on="1"/>
        <pt x="572" y="527" on="0"/>
        <pt x="684" y="476" on="0"/>
        <pt x="738" y="442" on="1"/>
        <pt x="802" y="401" on="0"/>
        <pt x="903" y="355" on="0"/>
        <pt x="956" y="355" on="1"/>
        <pt x="1030" y="355" on="0"/>
        <pt x="1129" y="442" on="0"/>
      </contour>
      <contour>
        <pt x="1191" y="909" on="1"/>
        <pt x="1255" y="890" on="1"/>
        <pt x="1241" y="838" on="0"/>
        <pt x="1190" y="752" on="0"/>
        <pt x="1118" y="690" on="0"/>
        <pt x="1025" y="656" on="0"/>
        <pt x="968" y="656" on="1"/>
        <pt x="909" y="656" on="0"/>
        <pt x="788" y="709" on="0"/>
        <pt x="710" y="756" on="1"/>
        <pt x="657" y="788" on="0"/>
        <pt x="562" y="827" on="0"/>
        <pt x="515" y="827" on="1"/>
        <pt x="429" y="827" on="0"/>
        <pt x="323" y="739" on="0"/>
        <pt x="295" y="662" on="1"/>
        <pt x="229" y="680" on="1"/>
        <pt x="264" y="789" on="0"/>
        <pt x="419" y="914" on="0"/>
        <pt x="528" y="914" on="1"/>
        <pt x="590" y="914" on="0"/>
        <pt x="706" y="865" on="0"/>
        <pt x="768" y="827" on="1"/>
        <pt x="803" y="805" on="0"/>
        <pt x="861" y="774" on="0"/>
        <pt x="911" y="753" on="0"/>
        <pt x="958" y="743" on="0"/>
        <pt x="983" y="743" on="1"/>
        <pt x="1057" y="743" on="0"/>
        <pt x="1159" y="827" on="0"/>
      </contour>
    </TTGlyph>
    <TTGlyph name="aring" xMin="148" yMin="-23" xMax="1200" yMax="1549">
      <component glyphName="a" x="0" y="0" flags="0x1204"/>
      <component glyphName="ring" x="214" y="0" flags="0x1004"/>
    </TTGlyph>
    <TTGlyph name="asciicircum" xMin="261" yMin="569" xMax="1298" yMax="1448">
      <contour>
        <pt x="261" y="569" on="1"/>
        <pt x="808" y="1448" on="1"/>
        <pt x="878" y="1448" on="1"/>
        <pt x="1298" y="569" on="1"/>
        <pt x="1190" y="569" on="1"/>
        <pt x="840" y="1318" on="1"/>
        <pt x="833" y="1318" on="1"/>
        <pt x="367" y="569" on="1"/>
      </contour>
    </TTGlyph>
    <TTGlyph name="asciitilde" xMin="246" yMin="410" xMax="1313" yMax="704">
      <contour>
        <pt x="553" y="693" on="1"/>
        <pt x="590" y="693" on="0"/>
        <pt x="674" y="668" on="0"/>
        <pt x="761" y="631" on="0"/>
        <pt x="847" y="588" on="0"/>
        <pt x="927" y="551" on="0"/>
        <pt x="996" y="526" on="0"/>
        <pt x="1022" y="526" on="1"/>
        <pt x="1060" y="526" on="0"/>
        <pt x="1128" y="556" on="0"/>
        <pt x="1184" y="606" on="0"/>
        <pt x="1224" y="670" on="0"/>
        <pt x="1235" y="704" on="1"/>
        <pt x="1313" y="678" on="1"/>
        <pt x="1296" y="623" on="0"/>
        <pt x="1239" y="530" on="0"/>
        <pt x="1162" y="463" on="0"/>
        <pt x="1066" y="426" on="0"/>
        <pt x="1011" y="426" on="1"/>
        <pt x="981" y="426" on="0"/>
        <pt x="908" y="451" on="0"/>
        <pt x="828" y="488" on="0"/>
        <pt x="744" y="531" on="0"/>
        <pt x="660" y="568" on="0"/>
        <pt x="580" y="593" on="0"/>
        <pt x="545" y="593" on="1"/>
        <pt x="501" y="593" on="0"/>
        <pt x="427" y="562" on="0"/>
        <pt x="368" y="511" on="0"/>
        <pt x="327" y="445" on="0"/>
        <pt x="316" y="410" on="1"/>
        <pt x="246" y="443" on="1"/>
        <pt x="261" y="492" on="0"/>
        <pt x="316" y="583" on="0"/>
        <pt x="393" y="652" on="0"/>
        <pt x="492" y="693" on="0"/>
      </contour>
    </TTGlyph>
    <TTGlyph name="asterisk" xMin="289" yMin="774" xMax="967" yMax="1467">
      <contour>
        <pt x="629" y="1065" on="1"/>
        <pt x="435" y="782" on="1"/>
        <pt x="352" y="836" on="1"/>
        <pt x="578" y="1086" on="1"/>
        <pt x="289" y="1170" on="1"/>
        <pt x="315" y="1271" on="1"/>
        <pt x="606" y="1139" on="1"/>
        <pt x="588" y="1467" on="1"/>
        <pt x="690" y="1467" on="1"/>
        <pt x="657" y="1137" on="1"/>
        <pt x="925" y="1274" on="1"/>
        <pt x="967" y="1183" on="1"/>
        <pt x="684" y="1089" on="1"/>
        <pt x="872" y="826" on="1"/>
        <pt x="778" y="774" on="1"/>
      </contour>
    </TTGlyph>
    <TTGlyph name="at" xMin="194" yMin="-112" xMax="1846" yMax="1492">
      <contour>
        <pt x="1316" y="975" on="1"/>
        <pt x="1318" y="975" on="1"/>
        <pt x="1362" y="1114" on="1"/>
        <pt x="1481" y="1123" on="1"/>
        <pt x="1434" y="987" on="0"/>
        <pt x="1394" y="869" on="1"/>
        <pt x="1377" y="819" on="0"/>
        <pt x="1342" y="716" on="0"/>
        <pt x="1311" y="624" on="0"/>
        <pt x="1287" y="550" on="0"/>
        <pt x="1281" y="528" on="1"/>
        <pt x="1272" y="498" on="0"/>
        <pt x="1263" y="450" on="0"/>
        <pt x="1263" y="424" on="1"/>
        <pt x="1263" y="377" on="0"/>
        <pt x="1309" y="325" on="0"/>
        <pt x="1368" y="325" on="1"/>
        <pt x="1414" y="325" on="0"/>
        <pt x="1506" y="365" on="0"/>
        <pt x="1588" y="436" on="0"/>
        <pt x="1658" y="534" on="0"/>
        <pt x="1710" y="649" on="0"/>
        <pt x="1739" y="778" on="0"/>
        <pt x="1739" y="844" on="1"/>
        <pt x="1739" y="968" on="0"/>
        <pt x="1646" y="1175" on="0"/>
        <pt x="1477" y="1324" on="0"/>
        <pt x="1240" y="1407" on="0"/>
        <pt x="1095" y="1407" on="1"/>
        <pt x="984" y="1407" on="0"/>
        <pt x="781" y="1351" on="0"/>
        <pt x="605" y="1250" on="0"/>
        <pt x="461" y="1108" on="0"/>
        <pt x="358" y="936" on="0"/>
        <pt x="302" y="739" on="0"/>
        <pt x="302" y="634" on="1"/>
        <pt x="302" y="492" on="0"/>
        <pt x="399" y="250" on="0"/>
        <pt x="577" y="74" on="0"/>
        <pt x="831" y="-25" on="0"/>
        <pt x="989" y="-25" on="1"/>
        <pt x="1148" y="-25" on="0"/>
        <pt x="1432" y="66" on="0"/>
        <pt x="1538" y="152" on="1"/>
        <pt x="1585" y="106" on="1"/>
        <pt x="1532" y="56" on="0"/>
        <pt x="1396" y="-24" on="0"/>
        <pt x="1239" y="-81" on="0"/>
        <pt x="1065" y="-112" on="0"/>
        <pt x="975" y="-112" on="1"/>
        <pt x="802" y="-112" on="0"/>
        <pt x="514" y="-1" on="0"/>
        <pt x="308" y="197" on="0"/>
        <pt x="194" y="469" on="0"/>
        <pt x="194" y="630" on="1"/>
        <pt x="194" y="751" on="0"/>
        <pt x="260" y="973" on="0"/>
        <pt x="381" y="1164" on="0"/>
        <pt x="549" y="1321" on="0"/>
        <pt x="752" y="1432" on="0"/>
        <pt x="985" y="1492" on="0"/>
        <pt x="1109" y="1492" on="1"/>
        <pt x="1267" y="1492" on="0"/>
        <pt x="1537" y="1396" on="0"/>
        <pt x="1734" y="1223" on="0"/>
        <pt x="1846" y="985" on="0"/>
        <pt x="1846" y="843" on="1"/>
        <pt x="1846" y="758" on="0"/>
        <pt x="1804" y="602" on="0"/>
        <pt x="1730" y="467" on="0"/>
        <pt x="1631" y="356" on="0"/>
        <pt x="1517" y="277" on="0"/>
        <pt x="1394" y="234" on="0"/>
        <pt x="1334" y="234" on="1"/>
        <pt x="1291" y="234" on="0"/>
        <pt x="1221" y="262" on="0"/>
        <pt x="1170" y="314" on="0"/>
        <pt x="1142" y="388" on="0"/>
        <pt x="1141" y="434" on="1"/>
        <pt x="1083" y="349" on="0"/>
        <pt x="925" y="266" on="0"/>
        <pt x="846" y="266" on="1"/>
        <pt x="792" y="266" on="0"/>
        <pt x="692" y="306" on="0"/>
        <pt x="616" y="385" on="0"/>
        <pt x="570" y="503" on="0"/>
        <pt x="570" y="582" on="1"/>
        <pt x="570" y="654" on="0"/>
        <pt x="612" y="793" on="0"/>
        <pt x="685" y="917" on="0"/>
        <pt x="784" y="1022" on="0"/>
        <pt x="900" y="1098" on="0"/>
        <pt x="1026" y="1141" on="0"/>
        <pt x="1090" y="1141" on="1"/>
        <pt x="1136" y="1141" on="0"/>
        <pt x="1214" y="1118" on="0"/>
        <pt x="1274" y="1074" on="0"/>
        <pt x="1311" y="1013" on="0"/>
      </contour>
      <contour>
        <pt x="681" y="560" on="1"/>
        <pt x="681" y="517" on="0"/>
        <pt x="706" y="444" on="0"/>
        <pt x="755" y="390" on="0"/>
        <pt x="827" y="360" on="0"/>
        <pt x="873" y="360" on="1"/>
        <pt x="925" y="360" on="0"/>
        <pt x="1022" y="401" on="0"/>
        <pt x="1107" y="472" on="0"/>
        <pt x="1178" y="569" on="0"/>
        <pt x="1229" y="681" on="0"/>
        <pt x="1257" y="805" on="0"/>
        <pt x="1257" y="867" on="1"/>
        <pt x="1257" y="905" on="0"/>
        <pt x="1238" y="970" on="0"/>
        <pt x="1195" y="1017" on="0"/>
        <pt x="1127" y="1044" on="0"/>
        <pt x="1078" y="1044" on="1"/>
        <pt x="1023" y="1044" on="0"/>
        <pt x="922" y="1002" on="0"/>
        <pt x="834" y="930" on="0"/>
        <pt x="761" y="834" on="0"/>
        <pt x="709" y="726" on="0"/>
        <pt x="681" y="613" on="0"/>
      </contour>
    </TTGlyph>
    <TTGlyph name="atilde" xMin="148" yMin="-23" xMax="1200" yMax="1451">
      <component glyphName="a" x="0" y="0" flags="0x1204"/>
      <component glyphName="tilde" x="179" y="0" flags="0x1004"/>
    </TTGlyph>
    <TTGlyph name="b" xMin="172" yMin="-23" xMax="1185" yMax="1508">
      <contour>
        <pt x="293" y="0" on="1"/>
        <pt x="172" y="0" on="1"/>
        <pt x="194" y="261" on="1"/>
        <pt x="295" y="1508" on="1"/>
        <pt x="416" y="1508" on="1"/>
        <pt x="364" y="816" on="1"/>
        <pt x="399" y="875" on="0"/>
        <pt x="492" y="963" on="0"/>
        <pt x="601" y="1022" on="0"/>
        <pt x="723" y="1051" on="0"/>
        <pt x="787" y="1051" on="1"/>
        <pt x="893" y="1051" on="0"/>
        <pt x="1044" y="976" on="0"/>
        <pt x="1140" y="849" on="0"/>
        <pt x="1185" y="679" on="0"/>
        <pt x="1185" y="583" on="1"/>
        <pt x="1185" y="460" on="0"/>
        <pt x="1120" y="240" on="0"/>
        <pt x="992" y="74" on="0"/>
        <pt x="802" y="-23" on="0"/>
        <pt x="678" y="-23" on="1"/>
        <pt x="553" y="-23" on="0"/>
        <pt x="371" y="86" on="0"/>
        <pt x="314" y="193" on="1"/>
      </contour>
      <contour>
        <pt x="738" y="951" on="1"/>
        <pt x="662" y="951" on="0"/>
        <pt x="543" y="911" on="0"/>
        <pt x="454" y="839" on="0"/>
        <pt x="391" y="740" on="0"/>
        <pt x="352" y="624" on="0"/>
        <pt x="334" y="494" on="0"/>
        <pt x="334" y="427" on="1"/>
        <pt x="334" y="355" on="0"/>
        <pt x="376" y="227" on="0"/>
        <pt x="459" y="131" on="0"/>
        <pt x="583" y="75" on="0"/>
        <pt x="665" y="75" on="1"/>
        <pt x="737" y="75" on="0"/>
        <pt x="852" y="117" on="0"/>
        <pt x="939" y="190" on="0"/>
        <pt x="1002" y="289" on="0"/>
        <pt x="1041" y="401" on="0"/>
        <pt x="1060" y="521" on="0"/>
        <pt x="1060" y="580" on="1"/>
        <pt x="1060" y="657" on="0"/>
        <pt x="1022" y="792" on="0"/>
        <pt x="943" y="893" on="0"/>
        <pt x="822" y="951" on="0"/>
      </contour>
    </TTGlyph>
    <TTGlyph name="backslash" xMin="72" yMin="-122" xMax="761" yMax="1467">
      <contour>
        <pt x="644" y="-122" on="1"/>
        <pt x="72" y="1467" on="1"/>
        <pt x="190" y="1467" on="1"/>
        <pt x="761" y="-122" on="1"/>
      </contour>
    </TTGlyph>
    <TTGlyph name="bar" xMin="155" yMin="-510" xMax="435" yMax="1564">
      <contour>
        <pt x="155" y="-510" on="1"/>
        <pt x="321" y="1564" on="1"/>
        <pt x="435" y="1564" on="1"/>
        <pt x="268" y="-510" on="1"/>
      </contour>
    </TTGlyph>
    <TTGlyph name="braceleft" xMin="150" yMin="-268" xMax="675" yMax="1467">
      <contour>
        <pt x="364" y="1172" on="1"/>
        <pt x="369" y="1242" on="0"/>
        <pt x="409" y="1351" on="0"/>
        <pt x="485" y="1427" on="0"/>
        <pt x="598" y="1467" on="0"/>
        <pt x="675" y="1467" on="1"/>
        <pt x="665" y="1375" on="1"/>
        <pt x="619" y="1373" on="0"/>
        <pt x="554" y="1361" on="0"/>
        <pt x="512" y="1322" on="0"/>
        <pt x="489" y="1247" on="0"/>
        <pt x="484" y="1182" on="1"/>
        <pt x="461" y="880" on="1"/>
        <pt x="455" y="807" on="0"/>
        <pt x="409" y="704" on="0"/>
        <pt x="350" y="637" on="0"/>
        <pt x="287" y="602" on="0"/>
        <pt x="265" y="598" on="1"/>
        <pt x="305" y="584" on="0"/>
        <pt x="362" y="533" on="0"/>
        <pt x="399" y="467" on="0"/>
        <pt x="416" y="391" on="0"/>
        <pt x="416" y="352" on="1"/>
        <pt x="416" y="344" on="0"/>
        <pt x="416" y="329" on="0"/>
        <pt x="415" y="321" on="1"/>
        <pt x="389" y="-22" on="1"/>
        <pt x="388" y="-28" on="0"/>
        <pt x="388" y="-38" on="0"/>
        <pt x="388" y="-43" on="1"/>
        <pt x="388" y="-115" on="0"/>
        <pt x="466" y="-177" on="0"/>
        <pt x="546" y="-177" on="1"/>
        <pt x="538" y="-268" on="1"/>
        <pt x="485" y="-268" on="0"/>
        <pt x="388" y="-244" on="0"/>
        <pt x="312" y="-191" on="0"/>
        <pt x="267" y="-104" on="0"/>
        <pt x="267" y="-41" on="1"/>
        <pt x="267" y="-33" on="0"/>
        <pt x="268" y="-17" on="0"/>
        <pt x="269" y="-8" on="1"/>
        <pt x="294" y="265" on="1"/>
        <pt x="296" y="284" on="0"/>
        <pt x="298" y="320" on="0"/>
        <pt x="298" y="339" on="1"/>
        <pt x="298" y="378" on="0"/>
        <pt x="285" y="449" on="0"/>
        <pt x="252" y="506" on="0"/>
        <pt x="195" y="544" on="0"/>
        <pt x="150" y="550" on="1"/>
        <pt x="159" y="647" on="1"/>
        <pt x="205" y="651" on="0"/>
        <pt x="271" y="682" on="0"/>
        <pt x="315" y="737" on="0"/>
        <pt x="339" y="816" on="0"/>
        <pt x="343" y="870" on="1"/>
      </contour>
    </TTGlyph>
    <TTGlyph name="braceright" xMin="66" yMin="-268" xMax="589" yMax="1467">
      <contour>
        <pt x="193" y="1375" on="1"/>
        <pt x="201" y="1467" on="1"/>
        <pt x="264" y="1463" on="0"/>
        <pt x="364" y="1432" on="0"/>
        <pt x="434" y="1374" on="0"/>
        <pt x="471" y="1288" on="0"/>
        <pt x="471" y="1230" on="1"/>
        <pt x="471" y="1224" on="0"/>
        <pt x="470" y="1211" on="0"/>
        <pt x="470" y="1204" on="1"/>
        <pt x="444" y="906" on="1"/>
        <pt x="441" y="876" on="0"/>
        <pt x="441" y="846" on="1"/>
        <pt x="441" y="808" on="0"/>
        <pt x="455" y="740" on="0"/>
        <pt x="489" y="687" on="0"/>
        <pt x="546" y="653" on="0"/>
        <pt x="589" y="649" on="1"/>
        <pt x="580" y="552" on="1"/>
        <pt x="532" y="548" on="0"/>
        <pt x="465" y="511" on="0"/>
        <pt x="421" y="446" on="0"/>
        <pt x="397" y="356" on="0"/>
        <pt x="393" y="299" on="1"/>
        <pt x="369" y="-6" on="1"/>
        <pt x="364" y="-63" on="0"/>
        <pt x="326" y="-155" on="0"/>
        <pt x="266" y="-221" on="0"/>
        <pt x="190" y="-260" on="0"/>
        <pt x="147" y="-264" on="1"/>
        <pt x="124" y="-266" on="0"/>
        <pt x="83" y="-269" on="0"/>
        <pt x="66" y="-268" on="1"/>
        <pt x="74" y="-177" on="1"/>
        <pt x="115" y="-177" on="0"/>
        <pt x="174" y="-167" on="0"/>
        <pt x="215" y="-134" on="0"/>
        <pt x="243" y="-73" on="0"/>
        <pt x="252" y="-21" on="1"/>
        <pt x="259" y="18" on="0"/>
        <pt x="266" y="103" on="0"/>
        <pt x="271" y="191" on="0"/>
        <pt x="275" y="279" on="0"/>
        <pt x="278" y="320" on="1"/>
        <pt x="284" y="392" on="0"/>
        <pt x="330" y="495" on="0"/>
        <pt x="388" y="562" on="0"/>
        <pt x="449" y="596" on="0"/>
        <pt x="469" y="598" on="1"/>
        <pt x="426" y="614" on="0"/>
        <pt x="370" y="667" on="0"/>
        <pt x="338" y="733" on="0"/>
        <pt x="325" y="809" on="0"/>
        <pt x="325" y="849" on="1"/>
        <pt x="325" y="856" on="0"/>
        <pt x="325" y="871" on="0"/>
        <pt x="326" y="879" on="1"/>
        <pt x="350" y="1192" on="1"/>
        <pt x="351" y="1199" on="0"/>
        <pt x="351" y="1211" on="0"/>
        <pt x="351" y="1217" on="1"/>
        <pt x="351" y="1289" on="0"/>
        <pt x="279" y="1371" on="0"/>
      </contour>
    </TTGlyph>
    <TTGlyph name="bracketleft" xMin="199" yMin="-268" xMax="650" yMax="1467">
      <contour>
        <pt x="515" y="-268" on="1"/>
        <pt x="199" y="-268" on="1"/>
        <pt x="333" y="1467" on="1"/>
        <pt x="650" y="1467" on="1"/>
        <pt x="642" y="1379" on="1"/>
        <pt x="443" y="1379" on="1"/>
        <pt x="324" y="-181" on="1"/>
        <pt x="523" y="-181" on="1"/>
      </contour>
    </TTGlyph>
    <TTGlyph name="bracketright" xMin="90" yMin="-268" xMax="542" yMax="1467">
      <contour>
        <pt x="242" y="1467" on="1"/>
        <pt x="542" y="1467" on="1"/>
        <pt x="405" y="-268" on="1"/>
        <pt x="90" y="-268" on="1"/>
        <pt x="98" y="-181" on="1"/>
        <pt x="295" y="-181" on="1"/>
        <pt x="416" y="1379" on="1"/>
        <pt x="217" y="1379" on="1"/>
      </contour>
    </TTGlyph>
    <TTGlyph name="breve" xMin="168" yMin="1262" xMax="701" yMax="1470">
      <contour>
        <pt x="701" y="1470" on="1"/>
        <pt x="692" y="1417" on="0"/>
        <pt x="643" y="1339" on="0"/>
        <pt x="569" y="1288" on="0"/>
        <pt x="474" y="1262" on="0"/>
        <pt x="417" y="1262" on="1"/>
        <pt x="301" y="1262" on="0"/>
        <pt x="168" y="1363" on="0"/>
        <pt x="168" y="1470" on="1"/>
        <pt x="208" y="1470" on="1"/>
        <pt x="211" y="1432" on="0"/>
        <pt x="249" y="1381" on="0"/>
        <pt x="307" y="1348" on="0"/>
        <pt x="380" y="1334" on="0"/>
        <pt x="419" y="1334" on="1"/>
        <pt x="458" y="1334" on="0"/>
        <pt x="534" y="1350" on="0"/>
        <pt x="600" y="1383" on="0"/>
        <pt x="649" y="1435" on="0"/>
        <pt x="661" y="1470" on="1"/>
      </contour>
    </TTGlyph>
    <TTGlyph name="brokenbar" xMin="155" yMin="-510" xMax="435" yMax="1564">
      <contour>
        <pt x="257" y="763" on="1"/>
        <pt x="321" y="1564" on="1"/>
        <pt x="435" y="1564" on="1"/>
        <pt x="371" y="763" on="1"/>
      </contour>
      <contour>
        <pt x="341" y="394" on="1"/>
        <pt x="268" y="-510" on="1"/>
        <pt x="155" y="-510" on="1"/>
        <pt x="227" y="394" on="1"/>
      </contour>
    </TTGlyph>
    <TTGlyph name="bullet" xMin="233" yMin="397" xMax="886" yMax="1010">
      <contour>
        <pt x="886" y="725" on="1"/>
        <pt x="886" y="658" on="0"/>
        <pt x="828" y="539" on="0"/>
        <pt x="730" y="449" on="0"/>
        <pt x="602" y="397" on="0"/>
        <pt x="532" y="397" on="1"/>
        <pt x="469" y="397" on="0"/>
        <pt x="360" y="442" on="0"/>
        <pt x="279" y="519" on="0"/>
        <pt x="233" y="623" on="0"/>
        <pt x="233" y="682" on="1"/>
        <pt x="233" y="749" on="0"/>
        <pt x="292" y="868" on="0"/>
        <pt x="391" y="958" on="0"/>
        <pt x="519" y="1010" on="0"/>
        <pt x="589" y="1010" on="1"/>
        <pt x="652" y="1010" on="0"/>
        <pt x="761" y="965" on="0"/>
        <pt x="840" y="888" on="0"/>
        <pt x="886" y="784" on="0"/>
      </contour>
    </TTGlyph>
    <TTGlyph name="c" xMin="149" yMin="-23" xMax="1027" yMax="1051">
      <contour>
        <pt x="969" y="848" on="1"/>
        <pt x="931" y="899" on="0"/>
        <pt x="793" y="951" on="0"/>
        <pt x="705" y="951" on="1"/>
        <pt x="607" y="951" on="0"/>
        <pt x="450" y="874" on="0"/>
        <pt x="339" y="743" on="0"/>
        <pt x="279" y="568" on="0"/>
        <pt x="279" y="470" on="1"/>
        <pt x="279" y="385" on="0"/>
        <pt x="320" y="240" on="0"/>
        <pt x="407" y="135" on="0"/>
        <pt x="542" y="75" on="0"/>
        <pt x="635" y="75" on="1"/>
        <pt x="820" y="75" on="0"/>
        <pt x="945" y="175" on="1"/>
        <pt x="968" y="78" on="1"/>
        <pt x="898" y="24" on="0"/>
        <pt x="718" y="-23" on="0"/>
        <pt x="612" y="-23" on="1"/>
        <pt x="495" y="-23" on="0"/>
        <pt x="322" y="51" on="0"/>
        <pt x="206" y="180" on="0"/>
        <pt x="149" y="353" on="0"/>
        <pt x="149" y="452" on="1"/>
        <pt x="149" y="574" on="0"/>
        <pt x="224" y="792" on="0"/>
        <pt x="367" y="955" on="0"/>
        <pt x="572" y="1051" on="0"/>
        <pt x="701" y="1051" on="1"/>
        <pt x="817" y="1051" on="0"/>
        <pt x="983" y="984" on="0"/>
        <pt x="1027" y="924" on="1"/>
      </contour>
    </TTGlyph>
    <TTGlyph name="caron" xMin="184" yMin="1214" xMax="755" yMax="1509">
      <contour>
        <pt x="755" y="1509" on="1"/>
        <pt x="514" y="1214" on="1"/>
        <pt x="380" y="1214" on="1"/>
        <pt x="184" y="1509" on="1"/>
        <pt x="282" y="1509" on="1"/>
        <pt x="444" y="1269" on="1"/>
        <pt x="654" y="1509" on="1"/>
      </contour>
    </TTGlyph>
    <TTGlyph name="ccedilla" xMin="149" yMin="-412" xMax="1027" yMax="1051">
      <component glyphName="c" x="0" y="0" flags="0x1204"/>
      <component glyphName="cedilla" x="368" y="0" flags="0x1004"/>
    </TTGlyph>
    <TTGlyph name="cedilla" xMin="48" yMin="-412" xMax="438" yMax="-20">
      <contour>
        <pt x="57" y="-342" on="1"/>
        <pt x="90" y="-353" on="0"/>
        <pt x="157" y="-363" on="0"/>
        <pt x="190" y="-363" on="1"/>
        <pt x="271" y="-363" on="0"/>
        <pt x="338" y="-308" on="0"/>
        <pt x="338" y="-263" on="1"/>
        <pt x="338" y="-238" on="0"/>
        <pt x="318" y="-203" on="0"/>
        <pt x="281" y="-182" on="0"/>
        <pt x="228" y="-173" on="0"/>
        <pt x="196" y="-174" on="1"/>
        <pt x="197" y="-174" on="0"/>
        <pt x="202" y="-174" on="0"/>
        <pt x="202" y="-175" on="1"/>
        <pt x="199" y="-175" on="0"/>
        <pt x="195" y="-176" on="1"/>
        <pt x="185" y="-178" on="0"/>
        <pt x="165" y="-179" on="1"/>
        <pt x="207" y="-20" on="1"/>
        <pt x="254" y="-20" on="1"/>
        <pt x="227" y="-130" on="1"/>
        <pt x="234" y="-130" on="0"/>
        <pt x="247" y="-129" on="0"/>
        <pt x="254" y="-129" on="1"/>
        <pt x="293" y="-129" on="0"/>
        <pt x="360" y="-143" on="0"/>
        <pt x="410" y="-173" on="0"/>
        <pt x="438" y="-221" on="0"/>
        <pt x="438" y="-256" on="1"/>
        <pt x="438" y="-295" on="0"/>
        <pt x="402" y="-354" on="0"/>
        <pt x="337" y="-393" on="0"/>
        <pt x="250" y="-412" on="0"/>
        <pt x="199" y="-412" on="1"/>
        <pt x="157" y="-412" on="0"/>
        <pt x="83" y="-402" on="0"/>
        <pt x="48" y="-393" on="1"/>
      </contour>
    </TTGlyph>
    <TTGlyph name="cent" xMin="223" yMin="-165" xMax="1089" yMax="1369">
      <contour>
        <pt x="785" y="1128" on="1"/>
        <pt x="849" y="1369" on="1"/>
        <pt x="930" y="1369" on="1"/>
        <pt x="862" y="1128" on="1"/>
        <pt x="905" y="1121" on="0"/>
        <pt x="981" y="1089" on="0"/>
        <pt x="1040" y="1043" on="0"/>
        <pt x="1080" y="983" on="0"/>
        <pt x="1089" y="949" on="1"/>
        <pt x="1037" y="890" on="1"/>
        <pt x="1017" y="944" on="0"/>
        <pt x="920" y="1006" on="0"/>
        <pt x="844" y="1020" on="1"/>
        <pt x="639" y="172" on="1"/>
        <pt x="678" y="163" on="0"/>
        <pt x="721" y="163" on="1"/>
        <pt x="763" y="163" on="0"/>
        <pt x="848" y="181" on="0"/>
        <pt x="924" y="219" on="0"/>
        <pt x="985" y="274" on="0"/>
        <pt x="1005" y="312" on="1"/>
        <pt x="1060" y="257" on="1"/>
        <pt x="1040" y="207" on="0"/>
        <pt x="972" y="133" on="0"/>
        <pt x="882" y="85" on="0"/>
        <pt x="777" y="61" on="0"/>
        <pt x="721" y="61" on="1"/>
        <pt x="670" y="61" on="0"/>
        <pt x="621" y="70" on="1"/>
        <pt x="554" y="-165" on="1"/>
        <pt x="471" y="-165" on="1"/>
        <pt x="544" y="80" on="1"/>
        <pt x="466" y="96" on="0"/>
        <pt x="346" y="179" on="0"/>
        <pt x="265" y="299" on="0"/>
        <pt x="223" y="451" on="0"/>
        <pt x="223" y="536" on="1"/>
        <pt x="223" y="655" on="0"/>
        <pt x="301" y="870" on="0"/>
        <pt x="447" y="1032" on="0"/>
        <pt x="655" y="1128" on="0"/>
      </contour>
      <contour>
        <pt x="567" y="191" on="1"/>
        <pt x="768" y="1024" on="1"/>
        <pt x="678" y="1019" on="0"/>
        <pt x="525" y="949" on="0"/>
        <pt x="414" y="827" on="0"/>
        <pt x="352" y="657" on="0"/>
        <pt x="352" y="552" on="1"/>
        <pt x="352" y="486" on="0"/>
        <pt x="381" y="370" on="0"/>
        <pt x="436" y="276" on="0"/>
        <pt x="516" y="208" on="0"/>
      </contour>
    </TTGlyph>
    <TTGlyph name="circumflex" xMin="237" yMin="1214" xMax="789" yMax="1510">
      <contour>
        <pt x="237" y="1214" on="1"/>
        <pt x="469" y="1510" on="1"/>
        <pt x="604" y="1510" on="1"/>
        <pt x="789" y="1214" on="1"/>
        <pt x="710" y="1214" on="1"/>
        <pt x="530" y="1454" on="1"/>
        <pt x="311" y="1214" on="1"/>
      </contour>
    </TTGlyph>
    <TTGlyph name="colon" xMin="187" yMin="-11" xMax="406" yMax="948">
      <contour>
        <pt x="391" y="769" on="1"/>
        <pt x="219" y="769" on="1"/>
        <pt x="232" y="948" on="1"/>
        <pt x="406" y="948" on="1"/>
      </contour>
      <contour>
        <pt x="359" y="-11" on="1"/>
        <pt x="187" y="-11" on="1"/>
        <pt x="200" y="168" on="1"/>
        <pt x="374" y="168" on="1"/>
      </contour>
    </TTGlyph>
    <TTGlyph name="comma" xMin="86" yMin="-265" xMax="366" yMax="176">
      <contour>
        <pt x="226" y="176" on="1"/>
        <pt x="366" y="176" on="1"/>
        <pt x="177" y="-265" on="1"/>
        <pt x="86" y="-265" on="1"/>
      </contour>
    </TTGlyph>
    <TTGlyph name="copyright" xMin="171" yMin="-32" xMax="1798" yMax="1499">
      <contour>
        <pt x="936" y="51" on="1"/>
        <pt x="1043" y="51" on="0"/>
        <pt x="1243" y="103" on="0"/>
        <pt x="1416" y="197" on="0"/>
        <pt x="1558" y="329" on="0"/>
        <pt x="1660" y="490" on="0"/>
        <pt x="1716" y="675" on="0"/>
        <pt x="1716" y="775" on="1"/>
        <pt x="1716" y="911" on="0"/>
        <pt x="1614" y="1146" on="0"/>
        <pt x="1433" y="1318" on="0"/>
        <pt x="1184" y="1416" on="0"/>
        <pt x="1036" y="1416" on="1"/>
        <pt x="930" y="1416" on="0"/>
        <pt x="731" y="1365" on="0"/>
        <pt x="558" y="1271" on="0"/>
        <pt x="414" y="1139" on="0"/>
        <pt x="312" y="978" on="0"/>
        <pt x="255" y="792" on="0"/>
        <pt x="255" y="691" on="1"/>
        <pt x="255" y="554" on="0"/>
        <pt x="356" y="320" on="0"/>
        <pt x="538" y="149" on="0"/>
        <pt x="787" y="51" on="0"/>
      </contour>
      <contour>
        <pt x="928" y="-32" on="1"/>
        <pt x="821" y="-32" on="0"/>
        <pt x="625" y="19" on="0"/>
        <pt x="457" y="112" on="0"/>
        <pt x="320" y="243" on="0"/>
        <pt x="224" y="403" on="0"/>
        <pt x="171" y="587" on="0"/>
        <pt x="171" y="687" on="1"/>
        <pt x="171" y="798" on="0"/>
        <pt x="236" y="1004" on="0"/>
        <pt x="353" y="1185" on="0"/>
        <pt x="516" y="1334" on="0"/>
        <pt x="710" y="1440" on="0"/>
        <pt x="929" y="1499" on="0"/>
        <pt x="1044" y="1499" on="1"/>
        <pt x="1151" y="1499" on="0"/>
        <pt x="1345" y="1448" on="0"/>
        <pt x="1513" y="1354" on="0"/>
        <pt x="1649" y="1223" on="0"/>
        <pt x="1746" y="1063" on="0"/>
        <pt x="1798" y="878" on="0"/>
        <pt x="1798" y="779" on="1"/>
        <pt x="1798" y="668" on="0"/>
        <pt x="1733" y="462" on="0"/>
        <pt x="1617" y="282" on="0"/>
        <pt x="1455" y="133" on="0"/>
        <pt x="1262" y="27" on="0"/>
        <pt x="1043" y="-32" on="0"/>
      </contour>
      <contour>
        <pt x="1310" y="1068" on="1"/>
        <pt x="1272" y="1119" on="0"/>
        <pt x="1134" y="1171" on="0"/>
        <pt x="1046" y="1171" on="1"/>
        <pt x="948" y="1171" on="0"/>
        <pt x="791" y="1094" on="0"/>
        <pt x="680" y="963" on="0"/>
        <pt x="620" y="788" on="0"/>
        <pt x="620" y="690" on="1"/>
        <pt x="620" y="605" on="0"/>
        <pt x="661" y="460" on="0"/>
        <pt x="748" y="355" on="0"/>
        <pt x="883" y="295" on="0"/>
        <pt x="976" y="295" on="1"/>
        <pt x="1161" y="295" on="0"/>
        <pt x="1286" y="395" on="1"/>
        <pt x="1309" y="298" on="1"/>
        <pt x="1239" y="244" on="0"/>
        <pt x="1059" y="197" on="0"/>
        <pt x="953" y="197" on="1"/>
        <pt x="836" y="197" on="0"/>
        <pt x="663" y="271" on="0"/>
        <pt x="547" y="400" on="0"/>
        <pt x="490" y="573" on="0"/>
        <pt x="490" y="672" on="1"/>
        <pt x="490" y="794" on="0"/>
        <pt x="565" y="1012" on="0"/>
        <pt x="708" y="1175" on="0"/>
        <pt x="913" y="1271" on="0"/>
        <pt x="1042" y="1271" on="1"/>
        <pt x="1158" y="1271" on="0"/>
        <pt x="1324" y="1204" on="0"/>
        <pt x="1368" y="1144" on="1"/>
      </contour>
    </TTGlyph>
    <TTGlyph name="currency" xMin="238" yMin="40" xMax="990" yMax="1301">
      <contour>
        <pt x="648" y="1051" on="1"/>
        <pt x="714" y="1051" on="0"/>
        <pt x="771" y="1034" on="1"/>
        <pt x="894" y="1301" on="1"/>
        <pt x="935" y="1285" on="1"/>
        <pt x="811" y="1018" on="1"/>
        <pt x="902" y="976" on="0"/>
        <pt x="990" y="806" on="0"/>
        <pt x="990" y="695" on="1"/>
        <pt x="990" y="639" on="0"/>
        <pt x="966" y="534" on="0"/>
        <pt x="919" y="441" on="0"/>
        <pt x="850" y="364" on="0"/>
        <pt x="806" y="336" on="1"/>
        <pt x="935" y="56" on="1"/>
        <pt x="899" y="40" on="1"/>
        <pt x="771" y="316" on="1"/>
        <pt x="729" y="296" on="0"/>
        <pt x="635" y="274" on="0"/>
        <pt x="581" y="274" on="1"/>
        <pt x="520" y="274" on="0"/>
        <pt x="472" y="287" on="1"/>
        <pt x="357" y="40" on="1"/>
        <pt x="321" y="56" on="1"/>
        <pt x="433" y="301" on="1"/>
        <pt x="385" y="320" on="0"/>
        <pt x="312" y="385" on="0"/>
        <pt x="263" y="469" on="0"/>
        <pt x="238" y="569" on="0"/>
        <pt x="238" y="625" on="1"/>
        <pt x="238" y="687" on="0"/>
        <pt x="266" y="802" on="0"/>
        <pt x="320" y="901" on="0"/>
        <pt x="399" y="980" on="0"/>
        <pt x="450" y="1006" on="1"/>
        <pt x="321" y="1285" on="1"/>
        <pt x="362" y="1301" on="1"/>
        <pt x="490" y="1023" on="1"/>
        <pt x="525" y="1037" on="0"/>
        <pt x="603" y="1051" on="0"/>
      </contour>
      <contour>
        <pt x="896" y="689" on="1"/>
        <pt x="896" y="749" on="0"/>
        <pt x="866" y="855" on="0"/>
        <pt x="802" y="933" on="0"/>
        <pt x="704" y="979" on="0"/>
        <pt x="637" y="979" on="1"/>
        <pt x="563" y="979" on="0"/>
        <pt x="449" y="921" on="0"/>
        <pt x="371" y="824" on="0"/>
        <pt x="331" y="699" on="0"/>
        <pt x="331" y="632" on="1"/>
        <pt x="331" y="574" on="0"/>
        <pt x="363" y="470" on="0"/>
        <pt x="428" y="391" on="0"/>
        <pt x="526" y="345" on="0"/>
        <pt x="592" y="345" on="1"/>
        <pt x="667" y="345" on="0"/>
        <pt x="780" y="402" on="0"/>
        <pt x="857" y="498" on="0"/>
        <pt x="896" y="622" on="0"/>
      </contour>
    </TTGlyph>
    <TTGlyph name="d" xMin="150" yMin="-23" xMax="1198" yMax="1508">
      <contour>
        <pt x="1077" y="1508" on="1"/>
        <pt x="1198" y="1508" on="1"/>
        <pt x="1097" y="247" on="1"/>
        <pt x="1092" y="182" on="0"/>
        <pt x="1087" y="65" on="0"/>
        <pt x="1085" y="0" on="1"/>
        <pt x="962" y="0" on="1"/>
        <pt x="972" y="206" on="1"/>
        <pt x="895" y="86" on="0"/>
        <pt x="691" y="-23" on="0"/>
        <pt x="564" y="-23" on="1"/>
        <pt x="456" y="-23" on="0"/>
        <pt x="300" y="50" on="0"/>
        <pt x="199" y="178" on="0"/>
        <pt x="150" y="351" on="0"/>
        <pt x="150" y="452" on="1"/>
        <pt x="150" y="570" on="0"/>
        <pt x="216" y="787" on="0"/>
        <pt x="345" y="952" on="0"/>
        <pt x="535" y="1051" on="0"/>
        <pt x="659" y="1051" on="1"/>
        <pt x="790" y="1051" on="0"/>
        <pt x="978" y="937" on="0"/>
        <pt x="1023" y="821" on="1"/>
      </contour>
      <contour>
        <pt x="600" y="75" on="1"/>
        <pt x="691" y="75" on="0"/>
        <pt x="834" y="141" on="0"/>
        <pt x="933" y="246" on="0"/>
        <pt x="988" y="378" on="0"/>
        <pt x="992" y="444" on="1"/>
        <pt x="999" y="533" on="1"/>
        <pt x="1007" y="632" on="0"/>
        <pt x="1007" y="635" on="1"/>
        <pt x="1007" y="697" on="0"/>
        <pt x="962" y="811" on="0"/>
        <pt x="876" y="899" on="0"/>
        <pt x="754" y="951" on="0"/>
        <pt x="676" y="951" on="1"/>
        <pt x="573" y="951" on="0"/>
        <pt x="423" y="870" on="0"/>
        <pt x="326" y="733" on="0"/>
        <pt x="279" y="554" on="0"/>
        <pt x="279" y="456" on="1"/>
        <pt x="279" y="380" on="0"/>
        <pt x="313" y="242" on="0"/>
        <pt x="389" y="137" on="0"/>
        <pt x="511" y="75" on="0"/>
      </contour>
    </TTGlyph>
    <TTGlyph name="dagger" xMin="205" yMin="116" xMax="1002" yMax="1467">
      <contour>
        <pt x="539" y="968" on="1"/>
        <pt x="205" y="968" on="1"/>
        <pt x="214" y="1066" on="1"/>
        <pt x="549" y="1066" on="1"/>
        <pt x="580" y="1467" on="1"/>
        <pt x="695" y="1467" on="1"/>
        <pt x="661" y="1066" on="1"/>
        <pt x="1002" y="1066" on="1"/>
        <pt x="993" y="968" on="1"/>
        <pt x="657" y="968" on="1"/>
        <pt x="597" y="116" on="1"/>
        <pt x="480" y="116" on="1"/>
      </contour>
    </TTGlyph>
    <TTGlyph name="daggerdbl" xMin="153" yMin="116" xMax="1002" yMax="1467">
      <contour>
        <pt x="554" y="1020" on="1"/>
        <pt x="205" y="1020" on="1"/>
        <pt x="214" y="1118" on="1"/>
        <pt x="570" y="1118" on="1"/>
        <pt x="616" y="1467" on="1"/>
        <pt x="716" y="1467" on="1"/>
        <pt x="664" y="1118" on="1"/>
        <pt x="1002" y="1118" on="1"/>
        <pt x="993" y="1020" on="1"/>
        <pt x="659" y="1020" on="1"/>
        <pt x="603" y="546" on="1"/>
        <pt x="952" y="546" on="1"/>
        <pt x="943" y="451" on="1"/>
        <pt x="587" y="451" on="1"/>
        <pt x="551" y="116" on="1"/>
        <pt x="438" y="116" on="1"/>
        <pt x="483" y="451" on="1"/>
        <pt x="153" y="451" on="1"/>
        <pt x="162" y="546" on="1"/>
        <pt x="496" y="546" on="1"/>
      </contour>
    </TTGlyph>
    <TTGlyph name="degree" xMin="215" yMin="886" xMax="822" yMax="1460">
      <contour>
        <pt x="299" y="1155" on="1"/>
        <pt x="299" y="1112" on="0"/>
        <pt x="328" y="1040" on="0"/>
        <pt x="381" y="987" on="0"/>
        <pt x="455" y="958" on="0"/>
        <pt x="500" y="958" on="1"/>
        <pt x="548" y="958" on="0"/>
        <pt x="635" y="994" on="0"/>
        <pt x="701" y="1056" on="0"/>
        <pt x="739" y="1140" on="0"/>
        <pt x="739" y="1188" on="1"/>
        <pt x="739" y="1231" on="0"/>
        <pt x="708" y="1304" on="0"/>
        <pt x="654" y="1358" on="0"/>
        <pt x="579" y="1388" on="0"/>
        <pt x="534" y="1388" on="1"/>
        <pt x="487" y="1388" on="0"/>
        <pt x="402" y="1351" on="0"/>
        <pt x="337" y="1287" on="0"/>
        <pt x="299" y="1202" on="0"/>
      </contour>
      <contour>
        <pt x="822" y="1193" on="1"/>
        <pt x="822" y="1130" on="0"/>
        <pt x="768" y="1018" on="0"/>
        <pt x="678" y="935" on="0"/>
        <pt x="559" y="886" on="0"/>
        <pt x="494" y="886" on="1"/>
        <pt x="435" y="886" on="0"/>
        <pt x="334" y="926" on="0"/>
        <pt x="258" y="997" on="0"/>
        <pt x="215" y="1093" on="0"/>
        <pt x="215" y="1149" on="1"/>
        <pt x="215" y="1212" on="0"/>
        <pt x="268" y="1325" on="0"/>
        <pt x="357" y="1410" on="0"/>
        <pt x="475" y="1460" on="0"/>
        <pt x="540" y="1460" on="1"/>
        <pt x="600" y="1460" on="0"/>
        <pt x="703" y="1418" on="0"/>
        <pt x="779" y="1345" on="0"/>
        <pt x="822" y="1248" on="0"/>
      </contour>
    </TTGlyph>
    <TTGlyph name="dieresis" xMin="306" yMin="1293" xMax="811" yMax="1421">
      <contour>
        <pt x="425" y="1293" on="1"/>
        <pt x="306" y="1293" on="1"/>
        <pt x="319" y="1421" on="1"/>
        <pt x="436" y="1421" on="1"/>
      </contour>
      <contour>
        <pt x="798" y="1293" on="1"/>
        <pt x="678" y="1293" on="1"/>
        <pt x="693" y="1421" on="1"/>
        <pt x="811" y="1421" on="1"/>
      </contour>
    </TTGlyph>
    <TTGlyph name="divide" xMin="257" yMin="58" xMax="1303" yMax="1054">
      <contour>
        <pt x="257" y="504" on="1"/>
        <pt x="266" y="608" on="1"/>
        <pt x="1303" y="608" on="1"/>
        <pt x="1293" y="504" on="1"/>
      </contour>
      <contour>
        <pt x="833" y="58" on="1"/>
        <pt x="661" y="58" on="1"/>
        <pt x="674" y="237" on="1"/>
        <pt x="848" y="237" on="1"/>
      </contour>
      <contour>
        <pt x="901" y="875" on="1"/>
        <pt x="729" y="875" on="1"/>
        <pt x="742" y="1054" on="1"/>
        <pt x="916" y="1054" on="1"/>
      </contour>
    </TTGlyph>
    <TTGlyph name="dollar" xMin="150" yMin="-216" xMax="1151" yMax="1655">
      <contour>
        <pt x="452" y="-216" on="1"/>
        <pt x="833" y="1655" on="1"/>
        <pt x="897" y="1655" on="1"/>
        <pt x="518" y="-216" on="1"/>
        <pt x="451" y="-216" on="1"/>
      </contour>
      <contour>
        <pt x="210" y="250" on="1"/>
        <pt x="255" y="195" on="0"/>
        <pt x="350" y="132" on="0"/>
        <pt x="446" y="100" on="0"/>
        <pt x="543" y="91" on="0"/>
        <pt x="591" y="91" on="1"/>
        <pt x="681" y="91" on="0"/>
        <pt x="832" y="127" on="0"/>
        <pt x="942" y="198" on="0"/>
        <pt x="1003" y="303" on="0"/>
        <pt x="1003" y="372" on="1"/>
        <pt x="1003" y="441" on="0"/>
        <pt x="937" y="537" on="0"/>
        <pt x="828" y="609" on="0"/>
        <pt x="690" y="665" on="0"/>
        <pt x="545" y="721" on="0"/>
        <pt x="407" y="785" on="0"/>
        <pt x="298" y="874" on="0"/>
        <pt x="232" y="995" on="0"/>
        <pt x="232" y="1080" on="1"/>
        <pt x="232" y="1146" on="0"/>
        <pt x="276" y="1257" on="0"/>
        <pt x="352" y="1347" on="0"/>
        <pt x="456" y="1415" on="0"/>
        <pt x="578" y="1460" on="0"/>
        <pt x="711" y="1483" on="0"/>
        <pt x="779" y="1483" on="1"/>
        <pt x="827" y="1483" on="0"/>
        <pt x="928" y="1470" on="0"/>
        <pt x="1026" y="1440" on="0"/>
        <pt x="1115" y="1389" on="0"/>
        <pt x="1151" y="1351" on="1"/>
        <pt x="1095" y="1258" on="1"/>
        <pt x="1063" y="1288" on="0"/>
        <pt x="986" y="1330" on="0"/>
        <pt x="902" y="1356" on="0"/>
        <pt x="812" y="1368" on="0"/>
        <pt x="768" y="1368" on="1"/>
        <pt x="698" y="1368" on="0"/>
        <pt x="557" y="1338" on="0"/>
        <pt x="443" y="1273" on="0"/>
        <pt x="372" y="1171" on="0"/>
        <pt x="372" y="1099" on="1"/>
        <pt x="372" y="1033" on="0"/>
        <pt x="438" y="939" on="0"/>
        <pt x="547" y="865" on="0"/>
        <pt x="686" y="806" on="0"/>
        <pt x="830" y="747" on="0"/>
        <pt x="969" y="679" on="0"/>
        <pt x="1078" y="588" on="0"/>
        <pt x="1144" y="466" on="0"/>
        <pt x="1144" y="383" on="1"/>
        <pt x="1144" y="307" on="0"/>
        <pt x="1096" y="189" on="0"/>
        <pt x="1011" y="98" on="0"/>
        <pt x="898" y="35" on="0"/>
        <pt x="768" y="-5" on="0"/>
        <pt x="629" y="-23" on="0"/>
        <pt x="560" y="-23" on="1"/>
        <pt x="432" y="-23" on="0"/>
        <pt x="217" y="74" on="0"/>
        <pt x="150" y="170" on="1"/>
      </contour>
    </TTGlyph>
    <TTGlyph name="dotaccent" xMin="312" yMin="1293" xMax="436" yMax="1421">
      <contour>
        <pt x="312" y="1293" on="1"/>
        <pt x="323" y="1421" on="1"/>
        <pt x="436" y="1421" on="1"/>
        <pt x="426" y="1293" on="1"/>
      </contour>
    </TTGlyph>
    <TTGlyph name="dotlessi" xMin="193" yMin="0" xMax="397" yMax="1026">
      <contour>
        <pt x="314" y="0" on="1"/>
        <pt x="193" y="0" on="1"/>
        <pt x="276" y="1026" on="1"/>
        <pt x="397" y="1026" on="1"/>
      </contour>
    </TTGlyph>
    <TTGlyph name="e" xMin="173" yMin="-23" xMax="1126" yMax="1051">
      <contour>
        <pt x="314" y="593" on="1"/>
        <pt x="1001" y="593" on="1"/>
        <pt x="1001" y="595" on="1"/>
        <pt x="1001" y="588" on="1"/>
        <pt x="998" y="668" on="0"/>
        <pt x="968" y="802" on="0"/>
        <pt x="900" y="898" on="0"/>
        <pt x="788" y="951" on="0"/>
        <pt x="703" y="951" on="1"/>
        <pt x="620" y="951" on="0"/>
        <pt x="487" y="894" on="0"/>
        <pt x="389" y="796" on="0"/>
        <pt x="327" y="666" on="0"/>
      </contour>
      <contour>
        <pt x="1017" y="202" on="1"/>
        <pt x="1045" y="106" on="1"/>
        <pt x="965" y="38" on="0"/>
        <pt x="760" y="-23" on="0"/>
        <pt x="636" y="-23" on="1"/>
        <pt x="525" y="-23" on="0"/>
        <pt x="352" y="48" on="0"/>
        <pt x="234" y="176" on="0"/>
        <pt x="173" y="355" on="0"/>
        <pt x="173" y="462" on="1"/>
        <pt x="173" y="582" on="0"/>
        <pt x="249" y="796" on="0"/>
        <pt x="390" y="957" on="0"/>
        <pt x="591" y="1051" on="0"/>
        <pt x="715" y="1051" on="1"/>
        <pt x="821" y="1051" on="0"/>
        <pt x="976" y="983" on="0"/>
        <pt x="1077" y="859" on="0"/>
        <pt x="1126" y="684" on="0"/>
        <pt x="1126" y="577" on="1"/>
        <pt x="1126" y="548" on="0"/>
        <pt x="1124" y="506" on="0"/>
        <pt x="1122" y="491" on="1"/>
        <pt x="305" y="491" on="1"/>
        <pt x="304" y="482" on="0"/>
        <pt x="303" y="472" on="1"/>
        <pt x="302" y="464" on="0"/>
        <pt x="301" y="441" on="0"/>
        <pt x="301" y="429" on="1"/>
        <pt x="301" y="349" on="0"/>
        <pt x="351" y="219" on="0"/>
        <pt x="444" y="126" on="0"/>
        <pt x="575" y="75" on="0"/>
        <pt x="657" y="75" on="1"/>
        <pt x="769" y="75" on="0"/>
        <pt x="952" y="141" on="0"/>
      </contour>
    </TTGlyph>
    <TTGlyph name="eacute" xMin="173" yMin="-23" xMax="1126" yMax="1508">
      <component glyphName="acute" x="86" y="0" flags="0x1004"/>
      <component glyphName="e" x="0" y="0" flags="0x1004"/>
    </TTGlyph>
    <TTGlyph name="ecircumflex" xMin="173" yMin="-23" xMax="1126" yMax="1510">
      <component glyphName="circumflex" x="214" y="0" flags="0x1004"/>
      <component glyphName="e" x="0" y="0" flags="0x1004"/>
    </TTGlyph>
    <TTGlyph name="edieresis" xMin="173" yMin="-23" xMax="1126" yMax="1421">
      <component glyphName="dieresis" x="178" y="0" flags="0x1004"/>
      <component glyphName="e" x="0" y="0" flags="0x1004"/>
    </TTGlyph>
    <TTGlyph name="egrave" xMin="173" yMin="-23" xMax="1126" yMax="1508">
      <component glyphName="e" x="0" y="0" flags="0x1204"/>
      <component glyphName="grave" x="247" y="0" flags="0x1004"/>
    </TTGlyph>
    <TTGlyph name="eight" xMin="140" yMin="-23" xMax="1146" yMax="1469">
      <contour>
        <pt x="140" y="333" on="1"/>
        <pt x="140" y="412" on="0"/>
        <pt x="194" y="547" on="0"/>
        <pt x="296" y="655" on="0"/>
        <pt x="442" y="733" on="0"/>
        <pt x="535" y="755" on="1"/>
        <pt x="535" y="758" on="1"/>
        <pt x="463" y="773" on="0"/>
        <pt x="352" y="832" on="0"/>
        <pt x="275" y="917" on="0"/>
        <pt x="235" y="1025" on="0"/>
        <pt x="235" y="1087" on="1"/>
        <pt x="235" y="1177" on="0"/>
        <pt x="318" y="1318" on="0"/>
        <pt x="455" y="1417" on="0"/>
        <pt x="634" y="1469" on="0"/>
        <pt x="730" y="1469" on="1"/>
        <pt x="814" y="1469" on="0"/>
        <pt x="965" y="1425" on="0"/>
        <pt x="1079" y="1341" on="0"/>
        <pt x="1146" y="1218" on="0"/>
        <pt x="1146" y="1139" on="1"/>
        <pt x="1146" y="1070" on="0"/>
        <pt x="1095" y="951" on="0"/>
        <pt x="1002" y="854" on="0"/>
        <pt x="872" y="781" on="0"/>
        <pt x="792" y="759" on="1"/>
        <pt x="792" y="756" on="1"/>
        <pt x="960" y="711" on="0"/>
        <pt x="1126" y="533" on="0"/>
        <pt x="1126" y="396" on="1"/>
        <pt x="1126" y="295" on="0"/>
        <pt x="1039" y="139" on="0"/>
        <pt x="891" y="33" on="0"/>
        <pt x="694" y="-23" on="0"/>
        <pt x="584" y="-23" on="1"/>
        <pt x="494" y="-23" on="0"/>
        <pt x="332" y="24" on="0"/>
        <pt x="211" y="114" on="0"/>
        <pt x="140" y="247" on="0"/>
      </contour>
      <contour>
        <pt x="274" y="356" on="1"/>
        <pt x="274" y="290" on="0"/>
        <pt x="325" y="188" on="0"/>
        <pt x="415" y="120" on="0"/>
        <pt x="538" y="85" on="0"/>
        <pt x="610" y="85" on="1"/>
        <pt x="689" y="85" on="0"/>
        <pt x="827" y="128" on="0"/>
        <pt x="929" y="208" on="0"/>
        <pt x="987" y="323" on="0"/>
        <pt x="987" y="394" on="1"/>
        <pt x="987" y="463" on="0"/>
        <pt x="940" y="567" on="0"/>
        <pt x="852" y="640" on="0"/>
        <pt x="728" y="686" on="0"/>
        <pt x="652" y="698" on="1"/>
        <pt x="569" y="683" on="0"/>
        <pt x="430" y="627" on="0"/>
        <pt x="330" y="542" on="0"/>
        <pt x="274" y="428" on="0"/>
      </contour>
      <contour>
        <pt x="363" y="1093" on="1"/>
        <pt x="363" y="974" on="0"/>
        <pt x="519" y="838" on="0"/>
        <pt x="667" y="814" on="1"/>
        <pt x="837" y="837" on="0"/>
        <pt x="1017" y="990" on="0"/>
        <pt x="1017" y="1120" on="1"/>
        <pt x="1017" y="1182" on="0"/>
        <pt x="968" y="1274" on="0"/>
        <pt x="885" y="1334" on="0"/>
        <pt x="774" y="1364" on="0"/>
        <pt x="712" y="1364" on="1"/>
        <pt x="648" y="1364" on="0"/>
        <pt x="523" y="1329" on="0"/>
        <pt x="424" y="1260" on="0"/>
        <pt x="363" y="1159" on="0"/>
      </contour>
    </TTGlyph>
    <TTGlyph name="ellipsis" xMin="187" yMin="-11" xMax="1454" yMax="168">
      <contour>
        <pt x="359" y="-11" on="1"/>
        <pt x="187" y="-11" on="1"/>
        <pt x="200" y="168" on="1"/>
        <pt x="374" y="168" on="1"/>
      </contour>
      <contour>
        <pt x="899" y="-11" on="1"/>
        <pt x="727" y="-11" on="1"/>
        <pt x="740" y="168" on="1"/>
        <pt x="914" y="168" on="1"/>
      </contour>
      <contour>
        <pt x="1439" y="-11" on="1"/>
        <pt x="1267" y="-11" on="1"/>
        <pt x="1280" y="168" on="1"/>
        <pt x="1454" y="168" on="1"/>
      </contour>
    </TTGlyph>
    <TTGlyph name="emdash" xMin="42" yMin="508" xMax="2242" yMax="610">
      <contour>
        <pt x="2232" y="508" on="1"/>
        <pt x="42" y="508" on="1"/>
        <pt x="52" y="610" on="1"/>
        <pt x="2242" y="610" on="1"/>
      </contour>
    </TTGlyph>
    <TTGlyph name="endash" xMin="49" yMin="508" xMax="1137" yMax="610">
      <contour>
        <pt x="1128" y="508" on="1"/>
        <pt x="49" y="508" on="1"/>
        <pt x="59" y="610" on="1"/>
        <pt x="1137" y="610" on="1"/>
      </contour>
    </TTGlyph>
    <TTGlyph name="equal" xMin="241" yMin="292" xMax="1318" yMax="821">
      <contour>
        <pt x="1285" y="398" on="1"/>
        <pt x="1275" y="292" on="1"/>
        <pt x="241" y="292" on="1"/>
        <pt x="250" y="398" on="1"/>
      </contour>
      <contour>
        <pt x="1318" y="821" on="1"/>
        <pt x="1309" y="714" on="1"/>
        <pt x="272" y="714" on="1"/>
        <pt x="284" y="821" on="1"/>
      </contour>
    </TTGlyph>
    <TTGlyph name="eth" xMin="124" yMin="-23" xMax="1339" yMax="1539">
      <contour>
        <pt x="1329" y="1026" on="1"/>
        <pt x="1339" y="1128" on="1"/>
        <pt x="1126" y="1128" on="1"/>
        <pt x="1082" y="1269" on="0"/>
        <pt x="907" y="1479" on="0"/>
        <pt x="771" y="1539" on="1"/>
        <pt x="704" y="1445" on="1"/>
        <pt x="813" y="1405" on="0"/>
        <pt x="955" y="1237" on="0"/>
        <pt x="993" y="1128" on="1"/>
        <pt x="796" y="1128" on="1"/>
        <pt x="786" y="1026" on="1"/>
        <pt x="1021" y="1026" on="1"/>
        <pt x="1041" y="931" on="0"/>
        <pt x="1040" y="732" on="0"/>
        <pt x="1022" y="638" on="1"/>
        <pt x="985" y="762" on="0"/>
        <pt x="788" y="894" on="0"/>
        <pt x="637" y="894" on="1"/>
        <pt x="524" y="894" on="0"/>
        <pt x="336" y="816" on="0"/>
        <pt x="200" y="680" on="0"/>
        <pt x="124" y="496" on="0"/>
        <pt x="124" y="389" on="1"/>
        <pt x="124" y="301" on="0"/>
        <pt x="183" y="150" on="0"/>
        <pt x="293" y="40" on="0"/>
        <pt x="452" y="-23" on="0"/>
        <pt x="553" y="-23" on="1"/>
        <pt x="698" y="-23" on="0"/>
        <pt x="927" y="97" on="0"/>
        <pt x="1085" y="317" on="0"/>
        <pt x="1169" y="630" on="0"/>
        <pt x="1169" y="824" on="1"/>
        <pt x="1169" y="930" on="0"/>
        <pt x="1151" y="1026" on="1"/>
      </contour>
      <contour>
        <pt x="652" y="785" on="1"/>
        <pt x="718" y="785" on="0"/>
        <pt x="829" y="749" on="0"/>
        <pt x="915" y="686" on="0"/>
        <pt x="973" y="598" on="0"/>
        <pt x="984" y="546" on="1"/>
        <pt x="983" y="525" on="0"/>
        <pt x="983" y="507" on="0"/>
        <pt x="983" y="498" on="0"/>
        <pt x="982" y="492" on="0"/>
        <pt x="980" y="484" on="1"/>
        <pt x="963" y="405" on="0"/>
        <pt x="895" y="261" on="0"/>
        <pt x="790" y="152" on="0"/>
        <pt x="648" y="87" on="0"/>
        <pt x="557" y="87" on="1"/>
        <pt x="487" y="87" on="0"/>
        <pt x="376" y="134" on="0"/>
        <pt x="298" y="216" on="0"/>
        <pt x="256" y="328" on="0"/>
        <pt x="256" y="394" on="1"/>
        <pt x="256" y="471" on="0"/>
        <pt x="303" y="612" on="0"/>
        <pt x="401" y="720" on="0"/>
        <pt x="550" y="785" on="0"/>
      </contour>
    </TTGlyph>
    <TTGlyph name="exclam" xMin="275" yMin="-23" xMax="564" yMax="1467">
      <contour>
        <pt x="299" y="152" on="1"/>
        <pt x="477" y="152" on="1"/>
        <pt x="460" y="-23" on="1"/>
        <pt x="275" y="-23" on="1"/>
      </contour>
      <contour>
        <pt x="453" y="385" on="1"/>
        <pt x="348" y="385" on="1"/>
        <pt x="416" y="1467" on="1"/>
        <pt x="564" y="1467" on="1"/>
      </contour>
    </TTGlyph>
    <TTGlyph name="exclamdown" xMin="275" yMin="-256" xMax="564" yMax="1234">
      <contour>
        <pt x="540" y="1059" on="1"/>
        <pt x="362" y="1059" on="1"/>
        <pt x="379" y="1234" on="1"/>
        <pt x="564" y="1234" on="1"/>
      </contour>
      <contour>
        <pt x="386" y="826" on="1"/>
        <pt x="491" y="826" on="1"/>
        <pt x="423" y="-256" on="1"/>
        <pt x="275" y="-256" on="1"/>
      </contour>
    </TTGlyph>
    <TTGlyph name="f" xMin="141" yMin="0" xMax="796" yMax="1533">
      <contour>
        <pt x="392" y="0" on="1"/>
        <pt x="272" y="0" on="1"/>
        <pt x="350" y="944" on="1"/>
        <pt x="141" y="944" on="1"/>
        <pt x="148" y="1026" on="1"/>
        <pt x="355" y="1026" on="1"/>
        <pt x="364" y="1160" on="1"/>
        <pt x="368" y="1247" on="0"/>
        <pt x="407" y="1395" on="0"/>
        <pt x="451" y="1443" on="1"/>
        <pt x="535" y="1533" on="0"/>
        <pt x="680" y="1533" on="1"/>
        <pt x="702" y="1533" on="0"/>
        <pt x="734" y="1531" on="0"/>
        <pt x="759" y="1526" on="0"/>
        <pt x="782" y="1519" on="0"/>
        <pt x="796" y="1515" on="1"/>
        <pt x="788" y="1419" on="1"/>
        <pt x="776" y="1423" on="0"/>
        <pt x="734" y="1429" on="0"/>
        <pt x="698" y="1429" on="1"/>
        <pt x="638" y="1429" on="0"/>
        <pt x="560" y="1398" on="0"/>
        <pt x="512" y="1336" on="0"/>
        <pt x="490" y="1246" on="0"/>
        <pt x="486" y="1187" on="1"/>
        <pt x="476" y="1026" on="1"/>
        <pt x="733" y="1026" on="1"/>
        <pt x="726" y="944" on="1"/>
        <pt x="472" y="944" on="1"/>
      </contour>
    </TTGlyph>
    <TTGlyph name="fi" xMin="141" yMin="0" xMax="1132" yMax="1533">
      <contour>
        <pt x="476" y="1026" on="1"/>
        <pt x="1099" y="1026" on="1"/>
        <pt x="1016" y="0" on="1"/>
        <pt x="895" y="0" on="1"/>
        <pt x="971" y="944" on="1"/>
        <pt x="472" y="944" on="1"/>
        <pt x="392" y="0" on="1"/>
        <pt x="272" y="0" on="1"/>
        <pt x="350" y="944" on="1"/>
        <pt x="141" y="944" on="1"/>
        <pt x="148" y="1026" on="1"/>
        <pt x="355" y="1026" on="1"/>
        <pt x="364" y="1160" on="1"/>
        <pt x="368" y="1247" on="0"/>
        <pt x="407" y="1395" on="0"/>
        <pt x="451" y="1443" on="1"/>
        <pt x="535" y="1533" on="0"/>
        <pt x="680" y="1533" on="1"/>
        <pt x="702" y="1533" on="0"/>
        <pt x="734" y="1531" on="0"/>
        <pt x="759" y="1526" on="0"/>
        <pt x="782" y="1519" on="0"/>
        <pt x="796" y="1515" on="1"/>
        <pt x="788" y="1419" on="1"/>
        <pt x="776" y="1423" on="0"/>
        <pt x="734" y="1429" on="0"/>
        <pt x="698" y="1429" on="1"/>
        <pt x="638" y="1429" on="0"/>
        <pt x="560" y="1398" on="0"/>
        <pt x="512" y="1336" on="0"/>
        <pt x="490" y="1246" on="0"/>
        <pt x="486" y="1187" on="1"/>
      </contour>
      <contour>
        <pt x="1132" y="1478" on="1"/>
        <pt x="1121" y="1354" on="1"/>
        <pt x="1007" y="1354" on="1"/>
        <pt x="1020" y="1478" on="1"/>
      </contour>
    </TTGlyph>
    <TTGlyph name="five" xMin="214" yMin="-23" xMax="1108" yMax="1441">
      <contour>
        <pt x="271" y="214" on="1"/>
        <pt x="328" y="148" on="0"/>
        <pt x="476" y="85" on="0"/>
        <pt x="564" y="85" on="1"/>
        <pt x="660" y="85" on="0"/>
        <pt x="813" y="148" on="0"/>
        <pt x="919" y="255" on="0"/>
        <pt x="975" y="398" on="0"/>
        <pt x="975" y="479" on="1"/>
        <pt x="975" y="542" on="0"/>
        <pt x="935" y="654" on="0"/>
        <pt x="857" y="737" on="0"/>
        <pt x="741" y="786" on="0"/>
        <pt x="665" y="786" on="1"/>
        <pt x="577" y="786" on="0"/>
        <pt x="434" y="731" on="0"/>
        <pt x="392" y="683" on="1"/>
        <pt x="378" y="683" on="0"/>
        <pt x="332" y="682" on="0"/>
        <pt x="310" y="682" on="1"/>
        <pt x="256" y="682" on="1"/>
        <pt x="337" y="1441" on="1"/>
        <pt x="1108" y="1441" on="1"/>
        <pt x="1098" y="1327" on="1"/>
        <pt x="448" y="1327" on="1"/>
        <pt x="393" y="811" on="1"/>
        <pt x="421" y="834" on="0"/>
        <pt x="489" y="868" on="0"/>
        <pt x="564" y="891" on="0"/>
        <pt x="643" y="902" on="0"/>
        <pt x="682" y="902" on="1"/>
        <pt x="783" y="902" on="0"/>
        <pt x="941" y="840" on="0"/>
        <pt x="1051" y="729" on="0"/>
        <pt x="1108" y="575" on="0"/>
        <pt x="1108" y="484" on="1"/>
        <pt x="1108" y="376" on="0"/>
        <pt x="1030" y="191" on="0"/>
        <pt x="886" y="55" on="0"/>
        <pt x="682" y="-23" on="0"/>
        <pt x="555" y="-23" on="1"/>
        <pt x="457" y="-23" on="0"/>
        <pt x="279" y="41" on="0"/>
        <pt x="214" y="110" on="1"/>
      </contour>
    </TTGlyph>
    <TTGlyph name="fl" xMin="141" yMin="0" xMax="1135" yMax="1533">
      <component glyphName="f" x="0" y="0" flags="0x1004"/>
      <component glyphName="l" x="702" y="0" flags="0x1004"/>
    </TTGlyph>
    <TTGlyph name="florin" xMin="139" yMin="0" xMax="796" yMax="1533">
      <contour>
        <pt x="392" y="0" on="1"/>
        <pt x="272" y="0" on="1"/>
        <pt x="348" y="920" on="1"/>
        <pt x="139" y="920" on="1"/>
        <pt x="148" y="1026" on="1"/>
        <pt x="355" y="1026" on="1"/>
        <pt x="364" y="1160" on="1"/>
        <pt x="368" y="1247" on="0"/>
        <pt x="407" y="1395" on="0"/>
        <pt x="451" y="1443" on="1"/>
        <pt x="535" y="1533" on="0"/>
        <pt x="680" y="1533" on="1"/>
        <pt x="702" y="1533" on="0"/>
        <pt x="734" y="1531" on="0"/>
        <pt x="759" y="1526" on="0"/>
        <pt x="782" y="1519" on="0"/>
        <pt x="796" y="1515" on="1"/>
        <pt x="788" y="1419" on="1"/>
        <pt x="776" y="1423" on="0"/>
        <pt x="734" y="1429" on="0"/>
        <pt x="698" y="1429" on="1"/>
        <pt x="638" y="1429" on="0"/>
        <pt x="560" y="1398" on="0"/>
        <pt x="512" y="1336" on="0"/>
        <pt x="490" y="1246" on="0"/>
        <pt x="486" y="1187" on="1"/>
        <pt x="476" y="1026" on="1"/>
        <pt x="733" y="1026" on="1"/>
        <pt x="724" y="920" on="1"/>
        <pt x="470" y="920" on="1"/>
      </contour>
    </TTGlyph>
    <TTGlyph name="four" xMin="69" yMin="0" xMax="1155" yMax="1436">
      <contour>
        <pt x="769" y="0" on="1"/>
        <pt x="795" y="363" on="1"/>
        <pt x="69" y="363" on="1"/>
        <pt x="79" y="469" on="1"/>
        <pt x="833" y="1436" on="1"/>
        <pt x="1009" y="1436" on="1"/>
        <pt x="930" y="464" on="1"/>
        <pt x="1155" y="464" on="1"/>
        <pt x="1146" y="363" on="1"/>
        <pt x="921" y="363" on="1"/>
        <pt x="895" y="0" on="1"/>
      </contour>
      <contour>
        <pt x="801" y="464" on="1"/>
        <pt x="868" y="1348" on="1"/>
        <pt x="749" y="1180" on="1"/>
        <pt x="187" y="464" on="1"/>
      </contour>
    </TTGlyph>
    <TTGlyph name="foursuperior" xMin="57" yMin="639" xMax="658" yMax="1428">
      <contour>
        <pt x="434" y="639" on="1"/>
        <pt x="449" y="835" on="1"/>
        <pt x="57" y="835" on="1"/>
        <pt x="64" y="903" on="1"/>
        <pt x="473" y="1428" on="1"/>
        <pt x="581" y="1428" on="1"/>
        <pt x="539" y="906" on="1"/>
        <pt x="658" y="906" on="1"/>
        <pt x="654" y="835" on="1"/>
        <pt x="533" y="835" on="1"/>
        <pt x="530" y="787" on="0"/>
        <pt x="521" y="688" on="0"/>
        <pt x="518" y="639" on="1"/>
      </contour>
      <contour>
        <pt x="453" y="906" on="1"/>
        <pt x="486" y="1343" on="1"/>
        <pt x="473" y="1326" on="0"/>
        <pt x="451" y="1294" on="0"/>
        <pt x="439" y="1277" on="1"/>
        <pt x="147" y="906" on="1"/>
      </contour>
    </TTGlyph>
    <TTGlyph name="fraction" xMin="-312" yMin="0" xMax="814" yMax="1452">
      <contour>
        <pt x="814" y="1452" on="1"/>
        <pt x="-214" y="0" on="1"/>
        <pt x="-312" y="0" on="1"/>
        <pt x="718" y="1452" on="1"/>
      </contour>
    </TTGlyph>
    <TTGlyph name="g" xMin="149" yMin="-438" xMax="1167" yMax="1051">
      <contour>
        <pt x="1043" y="1026" on="1"/>
        <pt x="1167" y="1026" on="1"/>
        <pt x="1144" y="782" on="1"/>
        <pt x="1093" y="135" on="1"/>
        <pt x="1087" y="65" on="0"/>
        <pt x="1063" y="-74" on="0"/>
        <pt x="1013" y="-202" on="0"/>
        <pt x="933" y="-311" on="0"/>
        <pt x="810" y="-392" on="0"/>
        <pt x="638" y="-438" on="0"/>
        <pt x="523" y="-438" on="1"/>
        <pt x="426" y="-438" on="0"/>
        <pt x="250" y="-401" on="0"/>
        <pt x="178" y="-362" on="1"/>
        <pt x="199" y="-246" on="1"/>
        <pt x="268" y="-288" on="0"/>
        <pt x="434" y="-329" on="0"/>
        <pt x="522" y="-329" on="1"/>
        <pt x="717" y="-329" on="0"/>
        <pt x="940" y="-154" on="0"/>
        <pt x="959" y="33" on="1"/>
        <pt x="981" y="251" on="1"/>
        <pt x="915" y="125" on="0"/>
        <pt x="698" y="0" on="0"/>
        <pt x="569" y="0" on="1"/>
        <pt x="468" y="0" on="0"/>
        <pt x="312" y="66" on="0"/>
        <pt x="205" y="186" on="0"/>
        <pt x="149" y="354" on="0"/>
        <pt x="149" y="456" on="1"/>
        <pt x="149" y="576" on="0"/>
        <pt x="215" y="792" on="0"/>
        <pt x="346" y="955" on="0"/>
        <pt x="539" y="1051" on="0"/>
        <pt x="667" y="1051" on="1"/>
        <pt x="731" y="1051" on="0"/>
        <pt x="838" y="1018" on="0"/>
        <pt x="927" y="959" on="0"/>
        <pt x="997" y="876" on="0"/>
        <pt x="1023" y="826" on="1"/>
      </contour>
      <contour>
        <pt x="1004" y="609" on="1"/>
        <pt x="1004" y="675" on="0"/>
        <pt x="961" y="799" on="0"/>
        <pt x="877" y="894" on="0"/>
        <pt x="756" y="951" on="0"/>
        <pt x="678" y="951" on="1"/>
        <pt x="582" y="951" on="0"/>
        <pt x="433" y="872" on="0"/>
        <pt x="332" y="740" on="0"/>
        <pt x="280" y="568" on="0"/>
        <pt x="280" y="475" on="1"/>
        <pt x="280" y="386" on="0"/>
        <pt x="315" y="248" on="0"/>
        <pt x="394" y="153" on="0"/>
        <pt x="520" y="104" on="0"/>
        <pt x="610" y="104" on="1"/>
        <pt x="721" y="104" on="0"/>
        <pt x="871" y="191" on="0"/>
        <pt x="964" y="333" on="0"/>
        <pt x="1004" y="514" on="0"/>
      </contour>
    </TTGlyph>
    <TTGlyph name="germandbls" xMin="195" yMin="-23" xMax="1206" yMax="1530">
      <contour>
        <pt x="316" y="0" on="1"/>
        <pt x="195" y="0" on="1"/>
        <pt x="280" y="1093" on="1"/>
        <pt x="287" y="1192" on="0"/>
        <pt x="356" y="1353" on="0"/>
        <pt x="473" y="1467" on="0"/>
        <pt x="635" y="1530" on="0"/>
        <pt x="735" y="1530" on="1"/>
        <pt x="824" y="1530" on="0"/>
        <pt x="963" y="1484" on="0"/>
        <pt x="1058" y="1404" on="0"/>
        <pt x="1108" y="1295" on="0"/>
        <pt x="1108" y="1233" on="1"/>
        <pt x="1108" y="1183" on="0"/>
        <pt x="1073" y="1093" on="0"/>
        <pt x="1018" y="1014" on="0"/>
        <pt x="947" y="947" on="0"/>
        <pt x="876" y="893" on="0"/>
        <pt x="810" y="853" on="0"/>
        <pt x="786" y="841" on="1"/>
        <pt x="774" y="833" on="0"/>
        <pt x="766" y="823" on="0"/>
        <pt x="766" y="815" on="1"/>
        <pt x="766" y="798" on="0"/>
        <pt x="788" y="791" on="1"/>
        <pt x="861" y="761" on="0"/>
        <pt x="1010" y="687" on="0"/>
        <pt x="1130" y="585" on="0"/>
        <pt x="1206" y="451" on="0"/>
        <pt x="1206" y="361" on="1"/>
        <pt x="1206" y="275" on="0"/>
        <pt x="1137" y="133" on="0"/>
        <pt x="1025" y="32" on="0"/>
        <pt x="881" y="-23" on="0"/>
        <pt x="806" y="-23" on="1"/>
        <pt x="721" y="-23" on="0"/>
        <pt x="570" y="47" on="0"/>
        <pt x="516" y="126" on="1"/>
        <pt x="564" y="193" on="1"/>
        <pt x="610" y="133" on="0"/>
        <pt x="742" y="75" on="0"/>
        <pt x="812" y="75" on="1"/>
        <pt x="861" y="75" on="0"/>
        <pt x="952" y="109" on="0"/>
        <pt x="1021" y="175" on="0"/>
        <pt x="1062" y="273" on="0"/>
        <pt x="1062" y="337" on="1"/>
        <pt x="1062" y="419" on="0"/>
        <pt x="992" y="544" on="0"/>
        <pt x="880" y="644" on="0"/>
        <pt x="739" y="729" on="0"/>
        <pt x="668" y="772" on="1"/>
        <pt x="695" y="895" on="1"/>
        <pt x="746" y="918" on="0"/>
        <pt x="843" y="985" on="0"/>
        <pt x="918" y="1071" on="0"/>
        <pt x="964" y="1173" on="0"/>
        <pt x="964" y="1232" on="1"/>
        <pt x="964" y="1326" on="0"/>
        <pt x="835" y="1432" on="0"/>
        <pt x="724" y="1432" on="1"/>
        <pt x="641" y="1432" on="0"/>
        <pt x="524" y="1379" on="0"/>
        <pt x="446" y="1282" on="0"/>
        <pt x="404" y="1143" on="0"/>
        <pt x="397" y="1057" on="1"/>
      </contour>
    </TTGlyph>
    <TTGlyph name="grave" xMin="165" yMin="1216" xMax="529" yMax="1508">
      <contour>
        <pt x="165" y="1508" on="1"/>
        <pt x="323" y="1508" on="1"/>
        <pt x="529" y="1216" on="1"/>
        <pt x="447" y="1216" on="1"/>
      </contour>
    </TTGlyph>
    <TTGlyph name="greater" xMin="243" yMin="77" xMax="1282" yMax="1066">
      <contour>
        <pt x="1126" y="552" on="1"/>
        <pt x="315" y="951" on="1"/>
        <pt x="324" y="1066" on="1"/>
        <pt x="1282" y="588" on="1"/>
        <pt x="1271" y="517" on="1"/>
        <pt x="243" y="77" on="1"/>
        <pt x="251" y="187" on="1"/>
      </contour>
    </TTGlyph>
    <TTGlyph name="greaterequal" xMin="263" yMin="9" xMax="1283" yMax="1213">
      <contour>
        <pt x="263" y="9" on="1"/>
        <pt x="1254" y="9" on="1"/>
        <pt x="1247" y="100" on="1"/>
        <pt x="270" y="100" on="1"/>
      </contour>
      <contour>
        <pt x="325" y="241" on="1"/>
        <pt x="1280" y="682" on="1"/>
        <pt x="1283" y="747" on="1"/>
        <pt x="382" y="1213" on="1"/>
        <pt x="391" y="1110" on="1"/>
        <pt x="1149" y="721" on="1"/>
        <pt x="1148" y="707" on="1"/>
        <pt x="316" y="341" on="1"/>
      </contour>
    </TTGlyph>
    <TTGlyph name="guillemotleft" xMin="216" yMin="177" xMax="925" yMax="911">
      <contour>
        <pt x="815" y="911" on="1"/>
        <pt x="925" y="911" on="1"/>
        <pt x="637" y="541" on="1"/>
        <pt x="861" y="177" on="1"/>
        <pt x="754" y="177" on="1"/>
        <pt x="517" y="541" on="1"/>
      </contour>
      <contour>
        <pt x="516" y="911" on="1"/>
        <pt x="622" y="911" on="1"/>
        <pt x="336" y="541" on="1"/>
        <pt x="560" y="177" on="1"/>
        <pt x="453" y="177" on="1"/>
        <pt x="216" y="541" on="1"/>
      </contour>
    </TTGlyph>
    <TTGlyph name="guillemotright" xMin="218" yMin="177" xMax="1038" yMax="911">
      <contour>
        <pt x="736" y="177" on="1"/>
        <pt x="629" y="177" on="1"/>
        <pt x="916" y="542" on="1"/>
        <pt x="691" y="911" on="1"/>
        <pt x="800" y="911" on="1"/>
        <pt x="1038" y="542" on="1"/>
      </contour>
      <contour>
        <pt x="326" y="177" on="1"/>
        <pt x="218" y="177" on="1"/>
        <pt x="506" y="542" on="1"/>
        <pt x="280" y="911" on="1"/>
        <pt x="389" y="911" on="1"/>
        <pt x="626" y="542" on="1"/>
      </contour>
    </TTGlyph>
    <TTGlyph name="guilsinglleft" xMin="173" yMin="177" xMax="582" yMax="911">
      <contour>
        <pt x="473" y="911" on="1"/>
        <pt x="582" y="911" on="1"/>
        <pt x="293" y="541" on="1"/>
        <pt x="516" y="177" on="1"/>
        <pt x="410" y="177" on="1"/>
        <pt x="173" y="541" on="1"/>
      </contour>
    </TTGlyph>
    <TTGlyph name="guilsinglright" xMin="156" yMin="177" xMax="567" yMax="911">
      <contour>
        <pt x="264" y="177" on="1"/>
        <pt x="156" y="177" on="1"/>
        <pt x="444" y="542" on="1"/>
        <pt x="219" y="911" on="1"/>
        <pt x="328" y="911" on="1"/>
        <pt x="567" y="542" on="1"/>
      </contour>
    </TTGlyph>
    <TTGlyph name="h" xMin="188" yMin="0" xMax="1108" yMax="1508">
      <contour>
        <pt x="430" y="1508" on="1"/>
        <pt x="377" y="825" on="1"/>
        <pt x="451" y="943" on="0"/>
        <pt x="647" y="1051" on="0"/>
        <pt x="777" y="1051" on="1"/>
        <pt x="877" y="1051" on="0"/>
        <pt x="1006" y="988" on="0"/>
        <pt x="1080" y="884" on="0"/>
        <pt x="1108" y="752" on="0"/>
        <pt x="1108" y="683" on="1"/>
        <pt x="1107" y="639" on="1"/>
        <pt x="1056" y="0" on="1"/>
        <pt x="935" y="0" on="1"/>
        <pt x="978" y="530" on="1"/>
        <pt x="981" y="565" on="0"/>
        <pt x="986" y="632" on="0"/>
        <pt x="986" y="637" on="1"/>
        <pt x="989" y="791" on="0"/>
        <pt x="861" y="951" on="0"/>
        <pt x="721" y="951" on="1"/>
        <pt x="638" y="951" on="0"/>
        <pt x="509" y="895" on="0"/>
        <pt x="418" y="797" on="0"/>
        <pt x="364" y="664" on="0"/>
        <pt x="358" y="588" on="1"/>
        <pt x="309" y="0" on="1"/>
        <pt x="188" y="0" on="1"/>
        <pt x="309" y="1508" on="1"/>
      </contour>
    </TTGlyph>
    <TTGlyph name="hungarumlaut" xMin="294" yMin="1218" xMax="917" yMax="1503">
      <contour>
        <pt x="574" y="1218" on="1"/>
        <pt x="794" y="1503" on="1"/>
        <pt x="917" y="1503" on="1"/>
        <pt x="641" y="1218" on="1"/>
      </contour>
      <contour>
        <pt x="294" y="1218" on="1"/>
        <pt x="515" y="1503" on="1"/>
        <pt x="635" y="1503" on="1"/>
        <pt x="363" y="1218" on="1"/>
      </contour>
    </TTGlyph>
    <TTGlyph name="hyphen" xMin="140" yMin="508" xMax="693" yMax="610">
      <contour>
        <pt x="140" y="508" on="1"/>
        <pt x="150" y="610" on="1"/>
        <pt x="693" y="610" on="1"/>
        <pt x="683" y="508" on="1"/>
      </contour>
    </TTGlyph>
    <TTGlyph name="i" xMin="193" yMin="0" xMax="430" yMax="1478">
      <contour>
        <pt x="430" y="1478" on="1"/>
        <pt x="419" y="1354" on="1"/>
        <pt x="305" y="1354" on="1"/>
        <pt x="318" y="1478" on="1"/>
      </contour>
      <contour>
        <pt x="276" y="1026" on="1"/>
        <pt x="397" y="1026" on="1"/>
        <pt x="314" y="0" on="1"/>
        <pt x="193" y="0" on="1"/>
      </contour>
    </TTGlyph>
    <TTGlyph name="iacute" xMin="184" yMin="0" xMax="572" yMax="1508">
      <component glyphName="acute" x="-248" y="0" flags="0x1004"/>
      <component glyphName="dotlessi" x="0" y="0" flags="0x1004"/>
    </TTGlyph>
    <TTGlyph name="icircumflex" xMin="53" yMin="0" xMax="605" yMax="1510">
      <component glyphName="circumflex" x="-184" y="0" flags="0x1004"/>
      <component glyphName="dotlessi" x="0" y="0" flags="0x1004"/>
    </TTGlyph>
    <TTGlyph name="idieresis" xMin="114" yMin="0" xMax="619" yMax="1421">
      <component glyphName="dieresis" x="-192" y="0" flags="0x1004"/>
      <component glyphName="dotlessi" x="0" y="0" flags="0x1004"/>
    </TTGlyph>
    <TTGlyph name="igrave" xMin="78" yMin="0" xMax="442" yMax="1508">
      <component glyphName="dotlessi" x="0" y="0" flags="0x1204"/>
      <component glyphName="grave" x="-87" y="0" flags="0x1004"/>
    </TTGlyph>
    <TTGlyph name="integral" xMin="-39" yMin="-371" xMax="796" yMax="1533">
      <contour>
        <pt x="364" y="1160" on="1"/>
        <pt x="370" y="1241" on="0"/>
        <pt x="406" y="1377" on="0"/>
        <pt x="478" y="1477" on="0"/>
        <pt x="593" y="1533" on="0"/>
        <pt x="680" y="1533" on="1"/>
        <pt x="702" y="1533" on="0"/>
        <pt x="734" y="1530" on="0"/>
        <pt x="759" y="1526" on="0"/>
        <pt x="782" y="1519" on="0"/>
        <pt x="796" y="1515" on="1"/>
        <pt x="788" y="1419" on="1"/>
        <pt x="776" y="1423" on="0"/>
        <pt x="734" y="1429" on="0"/>
        <pt x="698" y="1429" on="1"/>
        <pt x="638" y="1429" on="0"/>
        <pt x="560" y="1398" on="0"/>
        <pt x="513" y="1336" on="0"/>
        <pt x="490" y="1246" on="0"/>
        <pt x="486" y="1187" on="1"/>
        <pt x="393" y="2" on="1"/>
        <pt x="387" y="-79" on="0"/>
        <pt x="351" y="-215" on="0"/>
        <pt x="279" y="-315" on="0"/>
        <pt x="164" y="-371" on="0"/>
        <pt x="77" y="-371" on="1"/>
        <pt x="54" y="-371" on="0"/>
        <pt x="23" y="-368" on="0"/>
        <pt x="-2" y="-364" on="0"/>
        <pt x="-25" y="-357" on="0"/>
        <pt x="-39" y="-353" on="1"/>
        <pt x="-31" y="-257" on="1"/>
        <pt x="-19" y="-261" on="0"/>
        <pt x="23" y="-267" on="0"/>
        <pt x="59" y="-267" on="1"/>
        <pt x="119" y="-267" on="0"/>
        <pt x="197" y="-236" on="0"/>
        <pt x="244" y="-174" on="0"/>
        <pt x="266" y="-84" on="0"/>
        <pt x="271" y="-25" on="1"/>
      </contour>
    </TTGlyph>
    <TTGlyph name="j" xMin="-114" yMin="-445" xMax="432" yMax="1478">
      <contour>
        <pt x="-107" y="-323" on="1"/>
        <pt x="-89" y="-325" on="0"/>
        <pt x="-59" y="-330" on="0"/>
        <pt x="-43" y="-330" on="1"/>
        <pt x="18" y="-330" on="0"/>
        <pt x="104" y="-290" on="0"/>
        <pt x="162" y="-206" on="0"/>
        <pt x="195" y="-77" on="0"/>
        <pt x="202" y="12" on="1"/>
        <pt x="278" y="1026" on="1"/>
        <pt x="400" y="1026" on="1"/>
        <pt x="337" y="144" on="1"/>
        <pt x="329" y="26" on="0"/>
        <pt x="296" y="-187" on="0"/>
        <pt x="221" y="-349" on="0"/>
        <pt x="90" y="-445" on="0"/>
        <pt x="-15" y="-445" on="1"/>
        <pt x="-38" y="-445" on="0"/>
        <pt x="-88" y="-440" on="0"/>
        <pt x="-114" y="-435" on="1"/>
      </contour>
      <contour>
        <pt x="432" y="1478" on="1"/>
        <pt x="421" y="1354" on="1"/>
        <pt x="307" y="1354" on="1"/>
        <pt x="318" y="1478" on="1"/>
      </contour>
    </TTGlyph>
    <TTGlyph name="k" xMin="194" yMin="0" xMax="1086" yMax="1508">
      <contour>
        <pt x="1050" y="0" on="1"/>
        <pt x="884" y="0" on="1"/>
        <pt x="359" y="535" on="1"/>
        <pt x="315" y="0" on="1"/>
        <pt x="194" y="0" on="1"/>
        <pt x="315" y="1508" on="1"/>
        <pt x="436" y="1508" on="1"/>
        <pt x="359" y="569" on="1"/>
        <pt x="923" y="1026" on="1"/>
        <pt x="1086" y="1026" on="1"/>
        <pt x="501" y="545" on="1"/>
      </contour>
    </TTGlyph>
    <TTGlyph name="l" xMin="193" yMin="0" xMax="433" yMax="1508">
      <contour>
        <pt x="433" y="1508" on="1"/>
        <pt x="314" y="0" on="1"/>
        <pt x="193" y="0" on="1"/>
        <pt x="314" y="1508" on="1"/>
      </contour>
    </TTGlyph>
    <TTGlyph name="less" xMin="277" yMin="64" xMax="1316" yMax="1055">
      <contour>
        <pt x="441" y="552" on="1"/>
        <pt x="1244" y="178" on="1"/>
        <pt x="1236" y="64" on="1"/>
        <pt x="277" y="514" on="1"/>
        <pt x="288" y="589" on="1"/>
        <pt x="1316" y="1055" on="1"/>
        <pt x="1308" y="939" on="1"/>
      </contour>
    </TTGlyph>
    <TTGlyph name="lessequal" xMin="190" yMin="9" xMax="1252" yMax="1213">
      <contour>
        <pt x="1181" y="9" on="1"/>
        <pt x="190" y="9" on="1"/>
        <pt x="211" y="100" on="1"/>
        <pt x="1188" y="100" on="1"/>
      </contour>
      <contour>
        <pt x="1155" y="241" on="1"/>
        <pt x="270" y="682" on="1"/>
        <pt x="277" y="747" on="1"/>
        <pt x="1252" y="1213" on="1"/>
        <pt x="1227" y="1110" on="1"/>
        <pt x="407" y="721" on="1"/>
        <pt x="406" y="707" on="1"/>
        <pt x="1180" y="341" on="1"/>
      </contour>
    </TTGlyph>
    <TTGlyph name="logicalnot" xMin="272" yMin="247" xMax="1318" yMax="789">
      <contour>
        <pt x="1168" y="247" on="1"/>
        <pt x="1206" y="684" on="1"/>
        <pt x="272" y="684" on="1"/>
        <pt x="282" y="789" on="1"/>
        <pt x="1318" y="789" on="1"/>
        <pt x="1273" y="247" on="1"/>
      </contour>
    </TTGlyph>
    <TTGlyph name="lozenge" xMin="190" yMin="-48" xMax="1189" yMax="1486">
      <contour>
        <pt x="1189" y="718" on="1"/>
        <pt x="662" y="-48" on="1"/>
        <pt x="584" y="-48" on="1"/>
        <pt x="190" y="717" on="1"/>
        <pt x="714" y="1486" on="1"/>
        <pt x="793" y="1486" on="1"/>
      </contour>
      <contour>
        <pt x="289" y="722" on="1"/>
        <pt x="553" y="199" on="1"/>
        <pt x="631" y="36" on="1"/>
        <pt x="734" y="199" on="1"/>
        <pt x="1088" y="717" on="1"/>
        <pt x="819" y="1263" on="1"/>
        <pt x="748" y="1412" on="1"/>
        <pt x="649" y="1263" on="1"/>
        <pt x="289" y="722" on="1"/>
      </contour>
    </TTGlyph>
    <TTGlyph name="lslash" xMin="16" yMin="0" xMax="617" yMax="1508">
      <contour>
        <pt x="433" y="1508" on="1"/>
        <pt x="374" y="758" on="1"/>
        <pt x="617" y="862" on="1"/>
        <pt x="608" y="760" on="1"/>
        <pt x="366" y="657" on="1"/>
        <pt x="314" y="0" on="1"/>
        <pt x="193" y="0" on="1"/>
        <pt x="241" y="604" on="1"/>
        <pt x="16" y="508" on="1"/>
        <pt x="26" y="610" on="1"/>
        <pt x="249" y="705" on="1"/>
        <pt x="314" y="1508" on="1"/>
      </contour>
    </TTGlyph>
    <TTGlyph name="m" xMin="184" yMin="0" xMax="1808" yMax="1051">
      <contour>
        <pt x="383" y="1026" on="1"/>
        <pt x="373" y="829" on="1"/>
        <pt x="400" y="886" on="0"/>
        <pt x="483" y="970" on="0"/>
        <pt x="584" y="1024" on="0"/>
        <pt x="698" y="1051" on="0"/>
        <pt x="757" y="1051" on="1"/>
        <pt x="821" y="1051" on="0"/>
        <pt x="930" y="1015" on="0"/>
        <pt x="1013" y="950" on="0"/>
        <pt x="1065" y="859" on="0"/>
        <pt x="1073" y="805" on="1"/>
        <pt x="1127" y="931" on="0"/>
        <pt x="1341" y="1051" on="0"/>
        <pt x="1483" y="1051" on="1"/>
        <pt x="1582" y="1051" on="0"/>
        <pt x="1708" y="987" on="0"/>
        <pt x="1780" y="883" on="0"/>
        <pt x="1807" y="751" on="0"/>
        <pt x="1808" y="656" on="0"/>
        <pt x="1806" y="639" on="1"/>
        <pt x="1755" y="0" on="1"/>
        <pt x="1633" y="0" on="1"/>
        <pt x="1675" y="561" on="1"/>
        <pt x="1677" y="595" on="0"/>
        <pt x="1679" y="649" on="0"/>
        <pt x="1679" y="680" on="1"/>
        <pt x="1679" y="746" on="0"/>
        <pt x="1651" y="847" on="0"/>
        <pt x="1589" y="916" on="0"/>
        <pt x="1492" y="951" on="0"/>
        <pt x="1423" y="951" on="1"/>
        <pt x="1345" y="951" on="0"/>
        <pt x="1222" y="893" on="0"/>
        <pt x="1134" y="795" on="0"/>
        <pt x="1083" y="663" on="0"/>
        <pt x="1077" y="590" on="1"/>
        <pt x="1028" y="0" on="1"/>
        <pt x="906" y="0" on="1"/>
        <pt x="961" y="638" on="1"/>
        <pt x="962" y="666" on="0"/>
        <pt x="962" y="677" on="1"/>
        <pt x="962" y="811" on="0"/>
        <pt x="824" y="951" on="0"/>
        <pt x="694" y="951" on="1"/>
        <pt x="616" y="951" on="0"/>
        <pt x="494" y="896" on="0"/>
        <pt x="408" y="798" on="0"/>
        <pt x="358" y="666" on="0"/>
        <pt x="352" y="590" on="1"/>
        <pt x="303" y="0" on="1"/>
        <pt x="184" y="0" on="1"/>
        <pt x="247" y="770" on="1"/>
        <pt x="250" y="805" on="0"/>
        <pt x="260" y="1026" on="1"/>
      </contour>
    </TTGlyph>
    <TTGlyph name="minus" xMin="272" yMin="684" xMax="1318" yMax="789">
      <contour>
        <pt x="1306" y="684" on="1"/>
        <pt x="272" y="684" on="1"/>
        <pt x="282" y="789" on="1"/>
        <pt x="1318" y="789" on="1"/>
      </contour>
    </TTGlyph>
    <TTGlyph name="mu" xMin="161" yMin="-166" xMax="1126" yMax="1026">
      <contour>
        <pt x="1006" y="1026" on="1"/>
        <pt x="1126" y="1026" on="1"/>
        <pt x="1063" y="237" on="1"/>
        <pt x="1060" y="205" on="0"/>
        <pt x="1055" y="124" on="0"/>
        <pt x="1053" y="87" on="1"/>
        <pt x="1050" y="44" on="0"/>
        <pt x="1049" y="0" on="1"/>
        <pt x="925" y="0" on="1"/>
        <pt x="940" y="203" on="1"/>
        <pt x="876" y="85" on="0"/>
        <pt x="678" y="-23" on="0"/>
        <pt x="544" y="-23" on="1"/>
        <pt x="456" y="-23" on="0"/>
        <pt x="336" y="24" on="0"/>
        <pt x="297" y="65" on="1"/>
        <pt x="278" y="-166" on="1"/>
        <pt x="161" y="-166" on="1"/>
        <pt x="260" y="1026" on="1"/>
        <pt x="381" y="1026" on="1"/>
        <pt x="324" y="352" on="1"/>
        <pt x="312" y="213" on="0"/>
        <pt x="453" y="75" on="0"/>
        <pt x="595" y="75" on="1"/>
        <pt x="677" y="75" on="0"/>
        <pt x="808" y="130" on="0"/>
        <pt x="902" y="226" on="0"/>
        <pt x="955" y="357" on="0"/>
        <pt x="959" y="433" on="1"/>
      </contour>
    </TTGlyph>
    <TTGlyph name="mu1" xMin="147" yMin="-407" xMax="1096" yMax="1026">
      <contour>
        <pt x="895" y="208" on="1"/>
        <pt x="845" y="91" on="0"/>
        <pt x="688" y="-23" on="0"/>
        <pt x="575" y="-23" on="1"/>
        <pt x="388" y="-23" on="0"/>
        <pt x="336" y="134" on="1"/>
        <pt x="280" y="-407" on="1"/>
        <pt x="147" y="-407" on="1"/>
        <pt x="260" y="1026" on="1"/>
        <pt x="393" y="1026" on="1"/>
        <pt x="343" y="396" on="1"/>
        <pt x="342" y="388" on="0"/>
        <pt x="342" y="371" on="0"/>
        <pt x="342" y="363" on="1"/>
        <pt x="342" y="302" on="0"/>
        <pt x="378" y="204" on="0"/>
        <pt x="444" y="136" on="0"/>
        <pt x="536" y="100" on="0"/>
        <pt x="592" y="100" on="1"/>
        <pt x="658" y="100" on="0"/>
        <pt x="771" y="147" on="0"/>
        <pt x="855" y="235" on="0"/>
        <pt x="908" y="359" on="0"/>
        <pt x="914" y="436" on="1"/>
        <pt x="960" y="1026" on="1"/>
        <pt x="1096" y="1026" on="1"/>
        <pt x="1036" y="259" on="1"/>
        <pt x="1030" y="187" on="0"/>
        <pt x="1030" y="133" on="1"/>
        <pt x="1030" y="42" on="0"/>
        <pt x="1046" y="0" on="1"/>
        <pt x="908" y="0" on="1"/>
        <pt x="903" y="13" on="0"/>
        <pt x="898" y="49" on="0"/>
        <pt x="894" y="88" on="0"/>
        <pt x="893" y="127" on="0"/>
        <pt x="893" y="145" on="1"/>
        <pt x="893" y="159" on="0"/>
        <pt x="893" y="182" on="0"/>
        <pt x="894" y="190" on="1"/>
        <pt x="894" y="200" on="0"/>
      </contour>
    </TTGlyph>
    <TTGlyph name="multiply" xMin="366" yMin="200" xMax="1192" yMax="911">
      <contour>
        <pt x="1118" y="911" on="1"/>
        <pt x="1192" y="837" on="1"/>
        <pt x="858" y="554" on="1"/>
        <pt x="1189" y="272" on="1"/>
        <pt x="1118" y="200" on="1"/>
        <pt x="779" y="487" on="1"/>
        <pt x="440" y="200" on="1"/>
        <pt x="368" y="272" on="1"/>
        <pt x="699" y="554" on="1"/>
        <pt x="366" y="837" on="1"/>
        <pt x="440" y="911" on="1"/>
        <pt x="779" y="622" on="1"/>
      </contour>
      <contour>
        <pt x="1192" y="275" on="1"/>
        <pt x="1189" y="272" on="1"/>
        <pt x="1190" y="272" on="1"/>
      </contour>
      <contour>
        <pt x="368" y="272" on="1"/>
        <pt x="366" y="275" on="1"/>
      </contour>
    </TTGlyph>
    <TTGlyph name="n" xMin="187" yMin="0" xMax="1108" yMax="1051">
      <contour>
        <pt x="308" y="0" on="1"/>
        <pt x="187" y="0" on="1"/>
        <pt x="252" y="788" on="1"/>
        <pt x="254" y="820" on="0"/>
        <pt x="259" y="902" on="0"/>
        <pt x="261" y="939" on="1"/>
        <pt x="263" y="982" on="0"/>
        <pt x="265" y="1026" on="1"/>
        <pt x="388" y="1026" on="1"/>
        <pt x="378" y="825" on="1"/>
        <pt x="447" y="937" on="0"/>
        <pt x="648" y="1051" on="0"/>
        <pt x="776" y="1051" on="1"/>
        <pt x="876" y="1051" on="0"/>
        <pt x="1005" y="986" on="0"/>
        <pt x="1080" y="879" on="0"/>
        <pt x="1108" y="745" on="0"/>
        <pt x="1108" y="676" on="1"/>
        <pt x="1108" y="673" on="0"/>
        <pt x="1106" y="608" on="0"/>
        <pt x="1082" y="333" on="1"/>
        <pt x="1056" y="0" on="1"/>
        <pt x="937" y="0" on="1"/>
        <pt x="962" y="316" on="1"/>
        <pt x="976" y="494" on="0"/>
        <pt x="984" y="591" on="0"/>
        <pt x="988" y="658" on="0"/>
        <pt x="988" y="667" on="1"/>
        <pt x="988" y="807" on="0"/>
        <pt x="857" y="951" on="0"/>
        <pt x="735" y="951" on="1"/>
        <pt x="679" y="951" on="0"/>
        <pt x="582" y="922" on="0"/>
        <pt x="501" y="874" on="0"/>
        <pt x="439" y="813" on="0"/>
        <pt x="394" y="748" on="0"/>
        <pt x="369" y="686" on="0"/>
        <pt x="367" y="661" on="1"/>
      </contour>
    </TTGlyph>
    <TTGlyph name="nine" xMin="183" yMin="-23" xMax="1161" yMax="1469">
      <contour>
        <pt x="258" y="184" on="1"/>
        <pt x="299" y="133" on="0"/>
        <pt x="437" y="75" on="0"/>
        <pt x="532" y="75" on="1"/>
        <pt x="612" y="75" on="0"/>
        <pt x="747" y="132" on="0"/>
        <pt x="858" y="232" on="0"/>
        <pt x="943" y="370" on="0"/>
        <pt x="1002" y="533" on="0"/>
        <pt x="1034" y="714" on="0"/>
        <pt x="1036" y="808" on="1"/>
        <pt x="973" y="684" on="0"/>
        <pt x="747" y="552" on="0"/>
        <pt x="596" y="552" on="1"/>
        <pt x="500" y="552" on="0"/>
        <pt x="347" y="613" on="0"/>
        <pt x="240" y="723" on="0"/>
        <pt x="183" y="874" on="0"/>
        <pt x="183" y="964" on="1"/>
        <pt x="183" y="1071" on="0"/>
        <pt x="259" y="1255" on="0"/>
        <pt x="397" y="1391" on="0"/>
        <pt x="590" y="1469" on="0"/>
        <pt x="707" y="1469" on="1"/>
        <pt x="817" y="1469" on="0"/>
        <pt x="987" y="1390" on="0"/>
        <pt x="1102" y="1239" on="0"/>
        <pt x="1161" y="1016" on="0"/>
        <pt x="1161" y="872" on="1"/>
        <pt x="1161" y="675" on="0"/>
        <pt x="1074" y="346" on="0"/>
        <pt x="909" y="109" on="0"/>
        <pt x="670" y="-23" on="0"/>
        <pt x="518" y="-23" on="1"/>
        <pt x="412" y="-23" on="0"/>
        <pt x="259" y="43" on="0"/>
        <pt x="214" y="105" on="1"/>
      </contour>
      <contour>
        <pt x="634" y="661" on="1"/>
        <pt x="700" y="661" on="0"/>
        <pt x="819" y="697" on="0"/>
        <pt x="919" y="760" on="0"/>
        <pt x="995" y="848" on="0"/>
        <pt x="1017" y="900" on="1"/>
        <pt x="1020" y="921" on="0"/>
        <pt x="1024" y="939" on="0"/>
        <pt x="1026" y="948" on="0"/>
        <pt x="1026" y="954" on="0"/>
        <pt x="1026" y="962" on="1"/>
        <pt x="1026" y="1041" on="0"/>
        <pt x="988" y="1184" on="0"/>
        <pt x="907" y="1294" on="0"/>
        <pt x="779" y="1359" on="0"/>
        <pt x="688" y="1359" on="1"/>
        <pt x="606" y="1359" on="0"/>
        <pt x="470" y="1301" on="0"/>
        <pt x="371" y="1199" on="0"/>
        <pt x="316" y="1060" on="0"/>
        <pt x="316" y="979" on="1"/>
        <pt x="316" y="910" on="0"/>
        <pt x="353" y="793" on="0"/>
        <pt x="431" y="709" on="0"/>
        <pt x="551" y="661" on="0"/>
      </contour>
    </TTGlyph>
    <TTGlyph name="notequal" xMin="215" yMin="52" xMax="1245" yMax="1123">
      <contour>
        <pt x="778" y="756" on="1"/>
        <pt x="246" y="756" on="1"/>
        <pt x="267" y="843" on="1"/>
        <pt x="826" y="843" on="1"/>
        <pt x="990" y="1123" on="1"/>
        <pt x="1067" y="1111" on="1"/>
        <pt x="913" y="843" on="1"/>
        <pt x="1245" y="843" on="1"/>
        <pt x="1223" y="756" on="1"/>
        <pt x="864" y="756" on="1"/>
        <pt x="666" y="423" on="1"/>
        <pt x="1214" y="423" on="1"/>
        <pt x="1192" y="337" on="1"/>
        <pt x="617" y="337" on="1"/>
        <pt x="449" y="52" on="1"/>
        <pt x="374" y="64" on="1"/>
        <pt x="533" y="337" on="1"/>
        <pt x="215" y="337" on="1"/>
        <pt x="236" y="423" on="1"/>
        <pt x="580" y="423" on="1"/>
      </contour>
    </TTGlyph>
    <TTGlyph name="ntilde" xMin="187" yMin="0" xMax="1108" yMax="1451">
      <component glyphName="n" x="0" y="0" flags="0x1204"/>
      <component glyphName="tilde" x="166" y="0" flags="0x1004"/>
    </TTGlyph>
    <TTGlyph name="numbersign" xMin="99" yMin="63" xMax="1269" yMax="1436">
      <contour>
        <pt x="472" y="917" on="1"/>
        <pt x="199" y="917" on="1"/>
        <pt x="215" y="1010" on="1"/>
        <pt x="497" y="1010" on="1"/>
        <pt x="612" y="1436" on="1"/>
        <pt x="711" y="1436" on="1"/>
        <pt x="595" y="1010" on="1"/>
        <pt x="918" y="1010" on="1"/>
        <pt x="1034" y="1436" on="1"/>
        <pt x="1130" y="1436" on="1"/>
        <pt x="1016" y="1010" on="1"/>
        <pt x="1269" y="1010" on="1"/>
        <pt x="1252" y="917" on="1"/>
        <pt x="993" y="917" on="1"/>
        <pt x="908" y="595" on="1"/>
        <pt x="1172" y="595" on="1"/>
        <pt x="1151" y="504" on="1"/>
        <pt x="882" y="504" on="1"/>
        <pt x="763" y="63" on="1"/>
        <pt x="664" y="63" on="1"/>
        <pt x="784" y="504" on="1"/>
        <pt x="460" y="504" on="1"/>
        <pt x="339" y="63" on="1"/>
        <pt x="243" y="63" on="1"/>
        <pt x="363" y="504" on="1"/>
        <pt x="99" y="504" on="1"/>
        <pt x="113" y="595" on="1"/>
        <pt x="388" y="595" on="1"/>
      </contour>
      <contour>
        <pt x="895" y="917" on="1"/>
        <pt x="572" y="917" on="1"/>
        <pt x="483" y="595" on="1"/>
        <pt x="809" y="595" on="1"/>
      </contour>
    </TTGlyph>
    <TTGlyph name="o" xMin="148" yMin="-23" xMax="1188" yMax="1051">
      <contour>
        <pt x="715" y="1051" on="1"/>
        <pt x="834" y="1051" on="0"/>
        <pt x="1012" y="976" on="0"/>
        <pt x="1130" y="844" on="0"/>
        <pt x="1188" y="664" on="0"/>
        <pt x="1188" y="559" on="1"/>
        <pt x="1188" y="442" on="0"/>
        <pt x="1112" y="230" on="0"/>
        <pt x="967" y="71" on="0"/>
        <pt x="757" y="-23" on="0"/>
        <pt x="623" y="-23" on="1"/>
        <pt x="506" y="-23" on="0"/>
        <pt x="328" y="52" on="0"/>
        <pt x="209" y="182" on="0"/>
        <pt x="148" y="360" on="0"/>
        <pt x="148" y="462" on="1"/>
        <pt x="148" y="583" on="0"/>
        <pt x="224" y="797" on="0"/>
        <pt x="370" y="958" on="0"/>
        <pt x="581" y="1051" on="0"/>
      </contour>
      <contour>
        <pt x="1058" y="550" on="1"/>
        <pt x="1058" y="633" on="0"/>
        <pt x="1016" y="779" on="0"/>
        <pt x="929" y="888" on="0"/>
        <pt x="793" y="951" on="0"/>
        <pt x="700" y="951" on="1"/>
        <pt x="598" y="951" on="0"/>
        <pt x="440" y="870" on="0"/>
        <pt x="333" y="737" on="0"/>
        <pt x="277" y="564" on="0"/>
        <pt x="277" y="472" on="1"/>
        <pt x="277" y="392" on="0"/>
        <pt x="321" y="248" on="0"/>
        <pt x="411" y="139" on="0"/>
        <pt x="547" y="75" on="0"/>
        <pt x="638" y="75" on="1"/>
        <pt x="741" y="75" on="0"/>
        <pt x="898" y="154" on="0"/>
        <pt x="1004" y="286" on="0"/>
        <pt x="1058" y="458" on="0"/>
      </contour>
    </TTGlyph>
    <TTGlyph name="oacute" xMin="148" yMin="-23" xMax="1188" yMax="1508">
      <component glyphName="acute" x="118" y="0" flags="0x1004"/>
      <component glyphName="o" x="0" y="0" flags="0x1004"/>
    </TTGlyph>
    <TTGlyph name="ocircumflex" xMin="148" yMin="-23" xMax="1188" yMax="1510">
      <component glyphName="circumflex" x="182" y="0" flags="0x1004"/>
      <component glyphName="o" x="0" y="0" flags="0x1004"/>
    </TTGlyph>
    <TTGlyph name="odieresis" xMin="148" yMin="-23" xMax="1188" yMax="1421">
      <component glyphName="dieresis" x="174" y="0" flags="0x1004"/>
      <component glyphName="o" x="0" y="0" flags="0x1004"/>
    </TTGlyph>
    <TTGlyph name="oe" xMin="143" yMin="-28" xMax="1937" yMax="1053">
      <contour>
        <pt x="1933" y="491" on="1"/>
        <pt x="1150" y="495" on="1"/>
        <pt x="1149" y="475" on="0"/>
        <pt x="1146" y="444" on="0"/>
        <pt x="1146" y="427" on="1"/>
        <pt x="1146" y="352" on="0"/>
        <pt x="1182" y="223" on="0"/>
        <pt x="1260" y="128" on="0"/>
        <pt x="1380" y="75" on="0"/>
        <pt x="1464" y="75" on="1"/>
        <pt x="1520" y="75" on="0"/>
        <pt x="1624" y="100" on="0"/>
        <pt x="1716" y="145" on="0"/>
        <pt x="1793" y="209" on="0"/>
        <pt x="1821" y="248" on="1"/>
        <pt x="1874" y="190" on="1"/>
        <pt x="1800" y="78" on="0"/>
        <pt x="1576" y="-28" on="0"/>
        <pt x="1439" y="-28" on="1"/>
        <pt x="1369" y="-28" on="0"/>
        <pt x="1248" y="5" on="0"/>
        <pt x="1153" y="72" on="0"/>
        <pt x="1086" y="173" on="0"/>
        <pt x="1070" y="240" on="1"/>
        <pt x="1070" y="242" on="0"/>
        <pt x="1057" y="244" on="0"/>
        <pt x="1058" y="246" on="1"/>
        <pt x="991" y="109" on="0"/>
        <pt x="759" y="-28" on="0"/>
        <pt x="611" y="-28" on="1"/>
        <pt x="497" y="-28" on="0"/>
        <pt x="322" y="48" on="0"/>
        <pt x="203" y="180" on="0"/>
        <pt x="143" y="359" on="0"/>
        <pt x="143" y="462" on="1"/>
        <pt x="143" y="582" on="0"/>
        <pt x="221" y="797" on="0"/>
        <pt x="367" y="959" on="0"/>
        <pt x="577" y="1053" on="0"/>
        <pt x="709" y="1053" on="1"/>
        <pt x="870" y="1053" on="0"/>
        <pt x="1067" y="916" on="0"/>
        <pt x="1114" y="781" on="1"/>
        <pt x="1176" y="915" on="0"/>
        <pt x="1391" y="1053" on="0"/>
        <pt x="1537" y="1053" on="1"/>
        <pt x="1637" y="1053" on="0"/>
        <pt x="1787" y="986" on="0"/>
        <pt x="1887" y="864" on="0"/>
        <pt x="1937" y="695" on="0"/>
        <pt x="1937" y="592" on="1"/>
        <pt x="1937" y="560" on="0"/>
        <pt x="1935" y="510" on="0"/>
      </contour>
      <contour>
        <pt x="1158" y="593" on="1"/>
        <pt x="1808" y="593" on="1"/>
        <pt x="1809" y="607" on="0"/>
        <pt x="1812" y="635" on="0"/>
        <pt x="1812" y="649" on="1"/>
        <pt x="1812" y="715" on="0"/>
        <pt x="1777" y="826" on="0"/>
        <pt x="1706" y="906" on="0"/>
        <pt x="1600" y="951" on="0"/>
        <pt x="1529" y="951" on="1"/>
        <pt x="1448" y="951" on="0"/>
        <pt x="1316" y="892" on="0"/>
        <pt x="1221" y="793" on="0"/>
        <pt x="1164" y="664" on="0"/>
      </contour>
      <contour>
        <pt x="1031" y="555" on="1"/>
        <pt x="1031" y="640" on="0"/>
        <pt x="991" y="786" on="0"/>
        <pt x="907" y="891" on="0"/>
        <pt x="778" y="951" on="0"/>
        <pt x="690" y="951" on="1"/>
        <pt x="590" y="951" on="0"/>
        <pt x="435" y="871" on="0"/>
        <pt x="328" y="736" on="0"/>
        <pt x="273" y="561" on="0"/>
        <pt x="273" y="466" on="1"/>
        <pt x="273" y="386" on="0"/>
        <pt x="316" y="244" on="0"/>
        <pt x="404" y="137" on="0"/>
        <pt x="540" y="75" on="0"/>
        <pt x="632" y="75" on="1"/>
        <pt x="733" y="75" on="0"/>
        <pt x="883" y="156" on="0"/>
        <pt x="982" y="289" on="0"/>
        <pt x="1031" y="462" on="0"/>
      </contour>
    </TTGlyph>
    <TTGlyph name="ogonek" xMin="52" yMin="-406" xMax="407" yMax="-6">
      <contour>
        <pt x="273" y="-328" on="1"/>
        <pt x="300" y="-328" on="0"/>
        <pt x="338" y="-325" on="0"/>
        <pt x="368" y="-321" on="0"/>
        <pt x="393" y="-314" on="0"/>
        <pt x="407" y="-309" on="1"/>
        <pt x="403" y="-380" on="1"/>
        <pt x="389" y="-385" on="0"/>
        <pt x="351" y="-394" on="0"/>
        <pt x="306" y="-402" on="0"/>
        <pt x="259" y="-406" on="0"/>
        <pt x="238" y="-406" on="1"/>
        <pt x="199" y="-406" on="0"/>
        <pt x="131" y="-387" on="0"/>
        <pt x="81" y="-350" on="0"/>
        <pt x="52" y="-297" on="0"/>
        <pt x="52" y="-262" on="1"/>
        <pt x="52" y="-222" on="0"/>
        <pt x="90" y="-154" on="0"/>
        <pt x="153" y="-96" on="0"/>
        <pt x="234" y="-46" on="0"/>
        <pt x="276" y="-25" on="1"/>
        <pt x="380" y="-6" on="1"/>
        <pt x="330" y="-34" on="0"/>
        <pt x="246" y="-91" on="0"/>
        <pt x="185" y="-147" on="0"/>
        <pt x="151" y="-202" on="0"/>
        <pt x="151" y="-228" on="1"/>
        <pt x="151" y="-252" on="0"/>
        <pt x="172" y="-289" on="0"/>
        <pt x="206" y="-314" on="0"/>
        <pt x="250" y="-328" on="0"/>
      </contour>
    </TTGlyph>
    <TTGlyph name="ograve" xMin="148" yMin="-23" xMax="1188" yMax="1508">
      <component glyphName="o" x="0" y="0" flags="0x1204"/>
      <component glyphName="grave" x="279" y="0" flags="0x1004"/>
    </TTGlyph>
    <TTGlyph name="one" xMin="359" yMin="0" xMax="948" yMax="1447">
      <contour>
        <pt x="401" y="1285" on="1"/>
        <pt x="476" y="1309" on="0"/>
        <pt x="622" y="1383" on="0"/>
        <pt x="692" y="1427" on="1"/>
        <pt x="824" y="1447" on="1"/>
        <pt x="724" y="112" on="1"/>
        <pt x="948" y="112" on="1"/>
        <pt x="938" y="0" on="1"/>
        <pt x="359" y="0" on="1"/>
        <pt x="370" y="117" on="1"/>
        <pt x="598" y="117" on="1"/>
        <pt x="690" y="1310" on="1"/>
        <pt x="615" y="1265" on="0"/>
        <pt x="462" y="1192" on="0"/>
        <pt x="390" y="1166" on="1"/>
      </contour>
    </TTGlyph>
    <TTGlyph name="onehalf" xMin="341" yMin="-1" xMax="1661" yMax="1452">
      <component glyphName="onesuperior" x="0" y="0" flags="0x1004"/>
      <component glyphName="fraction" x="716" y="0" flags="0x1004"/>
      <component glyphName="twosuperior" x="732" y="-629" flags="0x1004"/>
    </TTGlyph>
    <TTGlyph name="onequarter" xMin="341" yMin="0" xMax="1699" yMax="1452">
      <component glyphName="onesuperior" x="0" y="0" flags="0x1004"/>
      <component glyphName="fraction" x="774" y="0" flags="0x1004"/>
      <component glyphName="foursuperior" x="1041" y="-578" flags="0x1004"/>
    </TTGlyph>
    <TTGlyph name="onesuperior" xMin="341" yMin="628" xMax="686" yMax="1440">
      <contour>
        <pt x="366" y="1349" on="1"/>
        <pt x="412" y="1363" on="0"/>
        <pt x="495" y="1405" on="0"/>
        <pt x="533" y="1428" on="1"/>
        <pt x="617" y="1440" on="1"/>
        <pt x="562" y="708" on="1"/>
        <pt x="686" y="708" on="1"/>
        <pt x="678" y="628" on="1"/>
        <pt x="341" y="628" on="1"/>
        <pt x="349" y="711" on="1"/>
        <pt x="474" y="711" on="1"/>
        <pt x="522" y="1337" on="1"/>
        <pt x="482" y="1314" on="0"/>
        <pt x="397" y="1275" on="0"/>
        <pt x="358" y="1260" on="1"/>
      </contour>
    </TTGlyph>
    <TTGlyph name="ordfeminine" xMin="164" yMin="796" xMax="760" yMax="1493">
      <contour>
        <pt x="270" y="1429" on="1"/>
        <pt x="322" y="1463" on="0"/>
        <pt x="448" y="1493" on="0"/>
        <pt x="519" y="1493" on="1"/>
        <pt x="576" y="1493" on="0"/>
        <pt x="669" y="1463" on="0"/>
        <pt x="733" y="1404" on="0"/>
        <pt x="764" y="1318" on="0"/>
        <pt x="760" y="1263" on="1"/>
        <pt x="733" y="933" on="1"/>
        <pt x="731" y="901" on="0"/>
        <pt x="730" y="844" on="0"/>
        <pt x="730" y="814" on="1"/>
        <pt x="642" y="814" on="1"/>
        <pt x="650" y="941" on="1"/>
        <pt x="635" y="912" on="0"/>
        <pt x="582" y="859" on="0"/>
        <pt x="511" y="819" on="0"/>
        <pt x="428" y="796" on="0"/>
        <pt x="383" y="796" on="1"/>
        <pt x="335" y="796" on="0"/>
        <pt x="255" y="822" on="0"/>
        <pt x="197" y="870" on="0"/>
        <pt x="164" y="937" on="0"/>
        <pt x="164" y="978" on="1"/>
        <pt x="164" y="1179" on="0"/>
        <pt x="411" y="1198" on="1"/>
        <pt x="480" y="1205" on="0"/>
        <pt x="607" y="1216" on="0"/>
        <pt x="671" y="1220" on="1"/>
        <pt x="672" y="1233" on="0"/>
        <pt x="672" y="1255" on="0"/>
        <pt x="672" y="1265" on="1"/>
        <pt x="672" y="1311" on="0"/>
        <pt x="654" y="1370" on="0"/>
        <pt x="613" y="1405" on="0"/>
        <pt x="549" y="1419" on="0"/>
        <pt x="504" y="1419" on="1"/>
        <pt x="446" y="1419" on="0"/>
        <pt x="339" y="1399" on="0"/>
        <pt x="294" y="1370" on="1"/>
      </contour>
      <contour>
        <pt x="412" y="865" on="1"/>
        <pt x="475" y="865" on="0"/>
        <pt x="568" y="917" on="0"/>
        <pt x="629" y="992" on="0"/>
        <pt x="660" y="1075" on="0"/>
        <pt x="661" y="1107" on="1"/>
        <pt x="663" y="1157" on="1"/>
        <pt x="622" y="1148" on="0"/>
        <pt x="530" y="1139" on="0"/>
        <pt x="439" y="1129" on="0"/>
        <pt x="357" y="1113" on="0"/>
        <pt x="294" y="1081" on="0"/>
        <pt x="256" y="1027" on="0"/>
        <pt x="256" y="984" on="1"/>
        <pt x="256" y="924" on="0"/>
        <pt x="342" y="865" on="0"/>
      </contour>
    </TTGlyph>
    <TTGlyph name="ordmasculine" xMin="163" yMin="795" xMax="861" yMax="1492">
      <contour>
        <pt x="541" y="1492" on="1"/>
        <pt x="621" y="1492" on="0"/>
        <pt x="741" y="1444" on="0"/>
        <pt x="821" y="1359" on="0"/>
        <pt x="861" y="1241" on="0"/>
        <pt x="861" y="1172" on="1"/>
        <pt x="861" y="1095" on="0"/>
        <pt x="810" y="958" on="0"/>
        <pt x="714" y="855" on="0"/>
        <pt x="574" y="795" on="0"/>
        <pt x="486" y="795" on="1"/>
        <pt x="405" y="795" on="0"/>
        <pt x="284" y="844" on="0"/>
        <pt x="203" y="930" on="0"/>
        <pt x="163" y="1048" on="0"/>
        <pt x="163" y="1117" on="1"/>
        <pt x="163" y="1195" on="0"/>
        <pt x="214" y="1332" on="0"/>
        <pt x="311" y="1434" on="0"/>
        <pt x="452" y="1492" on="0"/>
      </contour>
      <contour>
        <pt x="256" y="1123" on="1"/>
        <pt x="256" y="1069" on="0"/>
        <pt x="285" y="977" on="0"/>
        <pt x="345" y="908" on="0"/>
        <pt x="434" y="869" on="0"/>
        <pt x="494" y="869" on="1"/>
        <pt x="559" y="869" on="0"/>
        <pt x="661" y="917" on="0"/>
        <pt x="732" y="998" on="0"/>
        <pt x="769" y="1105" on="0"/>
        <pt x="769" y="1163" on="1"/>
        <pt x="769" y="1217" on="0"/>
        <pt x="739" y="1310" on="0"/>
        <pt x="679" y="1379" on="0"/>
        <pt x="589" y="1419" on="0"/>
        <pt x="530" y="1419" on="1"/>
        <pt x="465" y="1419" on="0"/>
        <pt x="364" y="1371" on="0"/>
        <pt x="293" y="1290" on="0"/>
        <pt x="256" y="1183" on="0"/>
      </contour>
    </TTGlyph>
    <TTGlyph name="oslash" xMin="148" yMin="-175" xMax="1188" yMax="1189">
      <contour>
        <pt x="296" y="-175" on="1"/>
        <pt x="389" y="27" on="1"/>
        <pt x="329" y="56" on="0"/>
        <pt x="239" y="145" on="0"/>
        <pt x="179" y="257" on="0"/>
        <pt x="148" y="390" on="0"/>
        <pt x="148" y="462" on="1"/>
        <pt x="148" y="583" on="0"/>
        <pt x="224" y="797" on="0"/>
        <pt x="370" y="958" on="0"/>
        <pt x="581" y="1051" on="0"/>
        <pt x="715" y="1051" on="1"/>
        <pt x="790" y="1051" on="0"/>
        <pt x="853" y="1036" on="1"/>
        <pt x="924" y="1189" on="1"/>
        <pt x="1045" y="1189" on="1"/>
        <pt x="956" y="998" on="1"/>
        <pt x="1015" y="968" on="0"/>
        <pt x="1102" y="878" on="0"/>
        <pt x="1160" y="765" on="0"/>
        <pt x="1188" y="632" on="0"/>
        <pt x="1188" y="559" on="1"/>
        <pt x="1188" y="442" on="0"/>
        <pt x="1112" y="230" on="0"/>
        <pt x="967" y="71" on="0"/>
        <pt x="757" y="-23" on="0"/>
        <pt x="623" y="-23" on="1"/>
        <pt x="588" y="-23" on="0"/>
        <pt x="521" y="-16" on="0"/>
        <pt x="489" y="-9" on="1"/>
        <pt x="412" y="-175" on="1"/>
      </contour>
      <contour>
        <pt x="700" y="951" on="1"/>
        <pt x="598" y="951" on="0"/>
        <pt x="440" y="870" on="0"/>
        <pt x="333" y="737" on="0"/>
        <pt x="277" y="564" on="0"/>
        <pt x="277" y="472" on="1"/>
        <pt x="277" y="419" on="0"/>
        <pt x="296" y="319" on="0"/>
        <pt x="336" y="230" on="0"/>
        <pt x="395" y="157" on="0"/>
        <pt x="436" y="130" on="1"/>
        <pt x="808" y="938" on="1"/>
        <pt x="762" y="951" on="0"/>
      </contour>
      <contour>
        <pt x="1058" y="550" on="1"/>
        <pt x="1058" y="661" on="0"/>
        <pt x="985" y="839" on="0"/>
        <pt x="907" y="893" on="1"/>
        <pt x="533" y="87" on="1"/>
        <pt x="581" y="75" on="0"/>
        <pt x="638" y="75" on="1"/>
        <pt x="741" y="75" on="0"/>
        <pt x="898" y="154" on="0"/>
        <pt x="1004" y="286" on="0"/>
        <pt x="1058" y="458" on="0"/>
      </contour>
    </TTGlyph>
    <TTGlyph name="otilde" xMin="148" yMin="-23" xMax="1188" yMax="1451">
      <component glyphName="o" x="0" y="0" flags="0x1204"/>
      <component glyphName="tilde" x="176" y="0" flags="0x1004"/>
    </TTGlyph>
    <TTGlyph name="p" xMin="145" yMin="-443" xMax="1188" yMax="1051">
      <contour>
        <pt x="266" y="-443" on="1"/>
        <pt x="145" y="-443" on="1"/>
        <pt x="241" y="767" on="1"/>
        <pt x="246" y="823" on="0"/>
        <pt x="254" y="1026" on="1"/>
        <pt x="377" y="1026" on="1"/>
        <pt x="364" y="818" on="1"/>
        <pt x="399" y="879" on="0"/>
        <pt x="490" y="968" on="0"/>
        <pt x="598" y="1024" on="0"/>
        <pt x="720" y="1051" on="0"/>
        <pt x="787" y="1051" on="1"/>
        <pt x="890" y="1051" on="0"/>
        <pt x="1041" y="978" on="0"/>
        <pt x="1140" y="851" on="0"/>
        <pt x="1188" y="680" on="0"/>
        <pt x="1188" y="582" on="1"/>
        <pt x="1188" y="464" on="0"/>
        <pt x="1123" y="246" on="0"/>
        <pt x="995" y="78" on="0"/>
        <pt x="804" y="-23" on="0"/>
        <pt x="678" y="-23" on="1"/>
        <pt x="428" y="-23" on="0"/>
        <pt x="314" y="194" on="1"/>
      </contour>
      <contour>
        <pt x="335" y="429" on="1"/>
        <pt x="335" y="357" on="0"/>
        <pt x="377" y="228" on="0"/>
        <pt x="461" y="132" on="0"/>
        <pt x="584" y="75" on="0"/>
        <pt x="665" y="75" on="1"/>
        <pt x="767" y="75" on="0"/>
        <pt x="915" y="158" on="0"/>
        <pt x="1010" y="296" on="0"/>
        <pt x="1056" y="476" on="0"/>
        <pt x="1056" y="573" on="1"/>
        <pt x="1056" y="648" on="0"/>
        <pt x="1023" y="784" on="0"/>
        <pt x="948" y="889" on="0"/>
        <pt x="826" y="951" on="0"/>
        <pt x="738" y="951" on="1"/>
        <pt x="624" y="951" on="0"/>
        <pt x="469" y="863" on="0"/>
        <pt x="375" y="718" on="0"/>
        <pt x="335" y="529" on="0"/>
      </contour>
    </TTGlyph>
    <TTGlyph name="paragraph" xMin="214" yMin="-154" xMax="1126" yMax="1467">
      <contour>
        <pt x="458" y="-154" on="1"/>
        <pt x="540" y="814" on="1"/>
        <pt x="524" y="814" on="1"/>
        <pt x="459" y="814" on="0"/>
        <pt x="346" y="859" on="0"/>
        <pt x="262" y="940" on="0"/>
        <pt x="214" y="1055" on="0"/>
        <pt x="214" y="1125" on="1"/>
        <pt x="214" y="1225" on="0"/>
        <pt x="301" y="1357" on="0"/>
        <pt x="449" y="1435" on="0"/>
        <pt x="645" y="1467" on="0"/>
        <pt x="753" y="1467" on="1"/>
        <pt x="1126" y="1467" on="1"/>
        <pt x="1116" y="1377" on="1"/>
        <pt x="1030" y="1377" on="1"/>
        <pt x="907" y="-154" on="1"/>
        <pt x="812" y="-154" on="1"/>
        <pt x="947" y="1377" on="1"/>
        <pt x="691" y="1377" on="1"/>
        <pt x="557" y="-154" on="1"/>
      </contour>
    </TTGlyph>
    <TTGlyph name="parenleft" xMin="221" yMin="-268" xMax="667" yMax="1467">
      <contour>
        <pt x="434" y="-268" on="1"/>
        <pt x="389" y="-189" on="0"/>
        <pt x="312" y="-6" on="0"/>
        <pt x="254" y="190" on="0"/>
        <pt x="221" y="396" on="0"/>
        <pt x="221" y="498" on="1"/>
        <pt x="221" y="636" on="0"/>
        <pt x="271" y="889" on="0"/>
        <pt x="363" y="1128" on="0"/>
        <pt x="492" y="1356" on="0"/>
        <pt x="572" y="1467" on="1"/>
        <pt x="667" y="1467" on="1"/>
        <pt x="589" y="1355" on="0"/>
        <pt x="468" y="1125" on="0"/>
        <pt x="384" y="885" on="0"/>
        <pt x="340" y="633" on="0"/>
        <pt x="340" y="499" on="1"/>
        <pt x="340" y="403" on="0"/>
        <pt x="365" y="201" on="0"/>
        <pt x="414" y="1" on="0"/>
        <pt x="486" y="-187" on="0"/>
        <pt x="533" y="-268" on="1"/>
      </contour>
    </TTGlyph>
    <TTGlyph name="parenright" xMin="72" yMin="-268" xMax="520" yMax="1467">
      <contour>
        <pt x="168" y="-268" on="1"/>
        <pt x="72" y="-268" on="1"/>
        <pt x="143" y="-167" on="0"/>
        <pt x="263" y="55" on="0"/>
        <pt x="350" y="297" on="0"/>
        <pt x="399" y="560" on="0"/>
        <pt x="399" y="701" on="1"/>
        <pt x="399" y="792" on="0"/>
        <pt x="374" y="990" on="0"/>
        <pt x="325" y="1189" on="0"/>
        <pt x="251" y="1381" on="0"/>
        <pt x="203" y="1467" on="1"/>
        <pt x="304" y="1467" on="1"/>
        <pt x="350" y="1384" on="0"/>
        <pt x="429" y="1199" on="0"/>
        <pt x="487" y="1001" on="0"/>
        <pt x="520" y="795" on="0"/>
        <pt x="520" y="693" on="1"/>
        <pt x="520" y="553" on="0"/>
        <pt x="468" y="300" on="0"/>
        <pt x="375" y="63" on="0"/>
        <pt x="246" y="-160" on="0"/>
      </contour>
    </TTGlyph>
    <TTGlyph name="partialdiff" xMin="134" yMin="-24" xMax="1150" yMax="1552">
      <contour>
        <pt x="510" y="77" on="1"/>
        <pt x="600" y="77" on="0"/>
        <pt x="755" y="164" on="0"/>
        <pt x="878" y="320" on="0"/>
        <pt x="964" y="534" on="0"/>
        <pt x="984" y="661" on="1"/>
        <pt x="973" y="710" on="0"/>
        <pt x="925" y="798" on="0"/>
        <pt x="852" y="862" on="0"/>
        <pt x="753" y="900" on="0"/>
        <pt x="690" y="900" on="1"/>
        <pt x="603" y="900" on="0"/>
        <pt x="447" y="815" on="0"/>
        <pt x="328" y="671" on="0"/>
        <pt x="259" y="481" on="0"/>
        <pt x="259" y="375" on="1"/>
        <pt x="259" y="308" on="0"/>
        <pt x="294" y="198" on="0"/>
        <pt x="358" y="120" on="0"/>
        <pt x="451" y="77" on="0"/>
      </contour>
      <contour>
        <pt x="1008" y="764" on="1"/>
        <pt x="1014" y="806" on="0"/>
        <pt x="1027" y="926" on="0"/>
        <pt x="1027" y="992" on="1"/>
        <pt x="1027" y="1098" on="0"/>
        <pt x="981" y="1268" on="0"/>
        <pt x="893" y="1386" on="0"/>
        <pt x="767" y="1449" on="0"/>
        <pt x="687" y="1449" on="1"/>
        <pt x="609" y="1449" on="0"/>
        <pt x="470" y="1404" on="0"/>
        <pt x="422" y="1372" on="1"/>
        <pt x="422" y="1467" on="1"/>
        <pt x="482" y="1502" on="0"/>
        <pt x="637" y="1552" on="0"/>
        <pt x="725" y="1552" on="1"/>
        <pt x="824" y="1552" on="0"/>
        <pt x="982" y="1482" on="0"/>
        <pt x="1091" y="1338" on="0"/>
        <pt x="1150" y="1116" on="0"/>
        <pt x="1150" y="964" on="1"/>
        <pt x="1150" y="845" on="0"/>
        <pt x="1113" y="607" on="0"/>
        <pt x="1039" y="387" on="0"/>
        <pt x="929" y="197" on="0"/>
        <pt x="784" y="57" on="0"/>
        <pt x="603" y="-24" on="0"/>
        <pt x="496" y="-24" on="1"/>
        <pt x="404" y="-24" on="0"/>
        <pt x="268" y="36" on="0"/>
        <pt x="178" y="142" on="0"/>
        <pt x="134" y="285" on="0"/>
        <pt x="134" y="368" on="1"/>
        <pt x="134" y="501" on="0"/>
        <pt x="222" y="733" on="0"/>
        <pt x="371" y="904" on="0"/>
        <pt x="568" y="1002" on="0"/>
        <pt x="677" y="1002" on="1"/>
        <pt x="755" y="1002" on="0"/>
        <pt x="871" y="957" on="0"/>
        <pt x="952" y="888" on="0"/>
        <pt x="1000" y="803" on="0"/>
      </contour>
    </TTGlyph>
    <TTGlyph name="percent" xMin="267" yMin="-27" xMax="1857" yMax="1463">
      <contour>
        <pt x="1537" y="644" on="1"/>
        <pt x="1470" y="644" on="0"/>
        <pt x="1370" y="588" on="0"/>
        <pt x="1304" y="496" on="0"/>
        <pt x="1271" y="377" on="0"/>
        <pt x="1271" y="315" on="1"/>
        <pt x="1271" y="260" on="0"/>
        <pt x="1296" y="164" on="0"/>
        <pt x="1350" y="93" on="0"/>
        <pt x="1434" y="52" on="0"/>
        <pt x="1493" y="52" on="1"/>
        <pt x="1560" y="52" on="0"/>
        <pt x="1660" y="108" on="0"/>
        <pt x="1726" y="201" on="0"/>
        <pt x="1759" y="320" on="0"/>
        <pt x="1759" y="383" on="1"/>
        <pt x="1759" y="437" on="0"/>
        <pt x="1733" y="533" on="0"/>
        <pt x="1679" y="603" on="0"/>
        <pt x="1595" y="644" on="0"/>
      </contour>
      <contour>
        <pt x="1550" y="726" on="1"/>
        <pt x="1625" y="726" on="0"/>
        <pt x="1740" y="675" on="0"/>
        <pt x="1818" y="584" on="0"/>
        <pt x="1857" y="458" on="0"/>
        <pt x="1857" y="384" on="1"/>
        <pt x="1857" y="299" on="0"/>
        <pt x="1802" y="149" on="0"/>
        <pt x="1703" y="38" on="0"/>
        <pt x="1564" y="-27" on="0"/>
        <pt x="1481" y="-27" on="1"/>
        <pt x="1406" y="-27" on="0"/>
        <pt x="1290" y="24" on="0"/>
        <pt x="1211" y="115" on="0"/>
        <pt x="1171" y="239" on="0"/>
        <pt x="1171" y="312" on="1"/>
        <pt x="1171" y="398" on="0"/>
        <pt x="1226" y="549" on="0"/>
        <pt x="1326" y="661" on="0"/>
        <pt x="1465" y="726" on="0"/>
      </contour>
      <contour>
        <pt x="643" y="1463" on="1"/>
        <pt x="719" y="1463" on="0"/>
        <pt x="835" y="1412" on="0"/>
        <pt x="913" y="1321" on="0"/>
        <pt x="953" y="1196" on="0"/>
        <pt x="953" y="1122" on="1"/>
        <pt x="953" y="1036" on="0"/>
        <pt x="898" y="887" on="0"/>
        <pt x="799" y="775" on="0"/>
        <pt x="660" y="711" on="0"/>
        <pt x="577" y="711" on="1"/>
        <pt x="501" y="711" on="0"/>
        <pt x="385" y="763" on="0"/>
        <pt x="307" y="854" on="0"/>
        <pt x="267" y="978" on="0"/>
        <pt x="267" y="1050" on="1"/>
        <pt x="267" y="1137" on="0"/>
        <pt x="321" y="1288" on="0"/>
        <pt x="420" y="1399" on="0"/>
        <pt x="559" y="1463" on="0"/>
      </contour>
      <contour>
        <pt x="1507" y="1452" on="1"/>
        <pt x="1612" y="1452" on="1"/>
        <pt x="582" y="-5" on="1"/>
        <pt x="477" y="-5" on="1"/>
      </contour>
      <contour>
        <pt x="633" y="1385" on="1"/>
        <pt x="565" y="1385" on="0"/>
        <pt x="465" y="1329" on="0"/>
        <pt x="397" y="1236" on="0"/>
        <pt x="364" y="1118" on="0"/>
        <pt x="364" y="1055" on="1"/>
        <pt x="364" y="1001" on="0"/>
        <pt x="390" y="904" on="0"/>
        <pt x="446" y="832" on="0"/>
        <pt x="531" y="790" on="0"/>
        <pt x="590" y="790" on="1"/>
        <pt x="657" y="790" on="0"/>
        <pt x="756" y="846" on="0"/>
        <pt x="821" y="938" on="0"/>
        <pt x="853" y="1057" on="0"/>
        <pt x="853" y="1120" on="1"/>
        <pt x="853" y="1174" on="0"/>
        <pt x="828" y="1270" on="0"/>
        <pt x="774" y="1343" on="0"/>
        <pt x="691" y="1385" on="0"/>
      </contour>
    </TTGlyph>
    <TTGlyph name="period" xMin="187" yMin="-11" xMax="374" yMax="168">
      <contour>
        <pt x="359" y="-11" on="1"/>
        <pt x="187" y="-11" on="1"/>
        <pt x="200" y="168" on="1"/>
        <pt x="374" y="168" on="1"/>
      </contour>
    </TTGlyph>
    <TTGlyph name="periodcentered" xMin="129" yMin="523" xMax="325" yMax="729">
      <contour>
        <pt x="225" y="523" on="1"/>
        <pt x="205" y="523" on="0"/>
        <pt x="171" y="539" on="0"/>
        <pt x="144" y="567" on="0"/>
        <pt x="129" y="603" on="0"/>
        <pt x="129" y="624" on="1"/>
        <pt x="129" y="646" on="0"/>
        <pt x="144" y="684" on="0"/>
        <pt x="171" y="712" on="0"/>
        <pt x="205" y="729" on="0"/>
        <pt x="225" y="729" on="1"/>
        <pt x="246" y="729" on="0"/>
        <pt x="282" y="712" on="0"/>
        <pt x="309" y="684" on="0"/>
        <pt x="325" y="646" on="0"/>
        <pt x="325" y="624" on="1"/>
        <pt x="325" y="603" on="0"/>
        <pt x="309" y="566" on="0"/>
        <pt x="282" y="539" on="0"/>
        <pt x="246" y="523" on="0"/>
      </contour>
    </TTGlyph>
    <TTGlyph name="periodcentered#1" xMin="129" yMin="523" xMax="325" yMax="729">
      <contour>
        <pt x="225" y="523" on="1"/>
        <pt x="205" y="523" on="0"/>
        <pt x="171" y="539" on="0"/>
        <pt x="144" y="567" on="0"/>
        <pt x="129" y="603" on="0"/>
        <pt x="129" y="624" on="1"/>
        <pt x="129" y="646" on="0"/>
        <pt x="144" y="684" on="0"/>
        <pt x="171" y="712" on="0"/>
        <pt x="205" y="729" on="0"/>
        <pt x="225" y="729" on="1"/>
        <pt x="246" y="729" on="0"/>
        <pt x="282" y="712" on="0"/>
        <pt x="309" y="684" on="0"/>
        <pt x="325" y="646" on="0"/>
        <pt x="325" y="624" on="1"/>
        <pt x="325" y="603" on="0"/>
        <pt x="309" y="566" on="0"/>
        <pt x="282" y="539" on="0"/>
        <pt x="246" y="523" on="0"/>
      </contour>
    </TTGlyph>
    <TTGlyph name="perthousand" xMin="167" yMin="-27" xMax="2362" yMax="1463">
      <contour>
        <pt x="2056" y="589" on="1"/>
        <pt x="1997" y="589" on="0"/>
        <pt x="1906" y="540" on="0"/>
        <pt x="1844" y="459" on="0"/>
        <pt x="1812" y="353" on="0"/>
        <pt x="1812" y="296" on="1"/>
        <pt x="1812" y="244" on="0"/>
        <pt x="1837" y="155" on="0"/>
        <pt x="1888" y="89" on="0"/>
        <pt x="1967" y="52" on="0"/>
        <pt x="2020" y="52" on="1"/>
        <pt x="2079" y="52" on="0"/>
        <pt x="2170" y="100" on="0"/>
        <pt x="2231" y="181" on="0"/>
        <pt x="2263" y="287" on="0"/>
        <pt x="2263" y="346" on="1"/>
        <pt x="2263" y="397" on="0"/>
        <pt x="2238" y="486" on="0"/>
        <pt x="2187" y="552" on="0"/>
        <pt x="2109" y="589" on="0"/>
      </contour>
      <contour>
        <pt x="2007" y="-27" on="1"/>
        <pt x="1935" y="-27" on="0"/>
        <pt x="1824" y="18" on="0"/>
        <pt x="1749" y="100" on="0"/>
        <pt x="1710" y="215" on="0"/>
        <pt x="1710" y="286" on="1"/>
        <pt x="1710" y="369" on="0"/>
        <pt x="1759" y="509" on="0"/>
        <pt x="1851" y="611" on="0"/>
        <pt x="1983" y="669" on="0"/>
        <pt x="2067" y="669" on="1"/>
        <pt x="2213" y="669" on="0"/>
        <pt x="2362" y="500" on="0"/>
        <pt x="2362" y="351" on="1"/>
        <pt x="2362" y="270" on="0"/>
        <pt x="2313" y="132" on="0"/>
        <pt x="2221" y="31" on="0"/>
        <pt x="2089" y="-27" on="0"/>
      </contour>
      <contour>
        <pt x="462" y="768" on="1"/>
        <pt x="390" y="768" on="0"/>
        <pt x="280" y="813" on="0"/>
        <pt x="205" y="895" on="0"/>
        <pt x="167" y="1010" on="0"/>
        <pt x="167" y="1081" on="1"/>
        <pt x="167" y="1164" on="0"/>
        <pt x="215" y="1304" on="0"/>
        <pt x="306" y="1406" on="0"/>
        <pt x="439" y="1463" on="0"/>
        <pt x="523" y="1463" on="1"/>
        <pt x="596" y="1463" on="0"/>
        <pt x="706" y="1419" on="0"/>
        <pt x="780" y="1336" on="0"/>
        <pt x="817" y="1219" on="0"/>
        <pt x="817" y="1146" on="1"/>
        <pt x="817" y="1065" on="0"/>
        <pt x="768" y="927" on="0"/>
        <pt x="677" y="826" on="0"/>
        <pt x="545" y="768" on="0"/>
      </contour>
      <contour>
        <pt x="1189" y="-27" on="1"/>
        <pt x="1117" y="-27" on="0"/>
        <pt x="1007" y="18" on="0"/>
        <pt x="932" y="100" on="0"/>
        <pt x="894" y="215" on="0"/>
        <pt x="894" y="286" on="1"/>
        <pt x="894" y="369" on="0"/>
        <pt x="942" y="509" on="0"/>
        <pt x="1033" y="611" on="0"/>
        <pt x="1166" y="669" on="0"/>
        <pt x="1251" y="669" on="1"/>
        <pt x="1323" y="669" on="0"/>
        <pt x="1433" y="625" on="0"/>
        <pt x="1508" y="543" on="0"/>
        <pt x="1546" y="425" on="0"/>
        <pt x="1546" y="351" on="1"/>
        <pt x="1546" y="270" on="0"/>
        <pt x="1497" y="132" on="0"/>
        <pt x="1405" y="31" on="0"/>
        <pt x="1272" y="-27" on="0"/>
      </contour>
      <contour>
        <pt x="1240" y="589" on="1"/>
        <pt x="1180" y="589" on="0"/>
        <pt x="1087" y="540" on="0"/>
        <pt x="1025" y="459" on="0"/>
        <pt x="993" y="353" on="0"/>
        <pt x="993" y="296" on="1"/>
        <pt x="993" y="244" on="0"/>
        <pt x="1019" y="155" on="0"/>
        <pt x="1071" y="89" on="0"/>
        <pt x="1151" y="52" on="0"/>
        <pt x="1204" y="52" on="1"/>
        <pt x="1263" y="52" on="0"/>
        <pt x="1353" y="100" on="0"/>
        <pt x="1415" y="181" on="0"/>
        <pt x="1446" y="288" on="0"/>
        <pt x="1446" y="346" on="1"/>
        <pt x="1446" y="398" on="0"/>
        <pt x="1420" y="487" on="0"/>
        <pt x="1369" y="552" on="0"/>
        <pt x="1292" y="589" on="0"/>
      </contour>
      <contour>
        <pt x="513" y="1385" on="1"/>
        <pt x="453" y="1385" on="0"/>
        <pt x="361" y="1336" on="0"/>
        <pt x="299" y="1255" on="0"/>
        <pt x="267" y="1149" on="0"/>
        <pt x="267" y="1092" on="1"/>
        <pt x="267" y="1040" on="0"/>
        <pt x="293" y="950" on="0"/>
        <pt x="344" y="884" on="0"/>
        <pt x="422" y="847" on="0"/>
        <pt x="475" y="847" on="1"/>
        <pt x="535" y="847" on="0"/>
        <pt x="626" y="895" on="0"/>
        <pt x="687" y="975" on="0"/>
        <pt x="719" y="1081" on="0"/>
        <pt x="719" y="1140" on="1"/>
        <pt x="719" y="1192" on="0"/>
        <pt x="693" y="1281" on="0"/>
        <pt x="642" y="1347" on="0"/>
        <pt x="565" y="1385" on="0"/>
      </contour>
      <contour>
        <pt x="271" y="-21" on="1"/>
        <pt x="1336" y="1452" on="1"/>
        <pt x="1436" y="1452" on="1"/>
        <pt x="371" y="-21" on="1"/>
      </contour>
    </TTGlyph>
    <TTGlyph name="pi" xMin="221" yMin="0" xMax="1311" yMax="1027">
      <contour>
        <pt x="271" y="0" on="1"/>
        <pt x="336" y="907" on="1"/>
        <pt x="221" y="907" on="1"/>
        <pt x="233" y="1027" on="1"/>
        <pt x="1311" y="1027" on="1"/>
        <pt x="1296" y="907" on="1"/>
        <pt x="1171" y="907" on="1"/>
        <pt x="1108" y="0" on="1"/>
        <pt x="983" y="0" on="1"/>
        <pt x="1046" y="907" on="1"/>
        <pt x="460" y="907" on="1"/>
        <pt x="397" y="0" on="1"/>
      </contour>
    </TTGlyph>
    <TTGlyph name="plus" xMin="257" yMin="65" xMax="1303" yMax="1047">
      <contour>
        <pt x="732" y="608" on="1"/>
        <pt x="768" y="1047" on="1"/>
        <pt x="872" y="1047" on="1"/>
        <pt x="834" y="608" on="1"/>
        <pt x="1303" y="608" on="1"/>
        <pt x="1293" y="504" on="1"/>
        <pt x="827" y="504" on="1"/>
        <pt x="791" y="65" on="1"/>
        <pt x="686" y="65" on="1"/>
        <pt x="724" y="504" on="1"/>
        <pt x="257" y="504" on="1"/>
        <pt x="266" y="608" on="1"/>
      </contour>
    </TTGlyph>
    <TTGlyph name="plusminus" xMin="221" yMin="0" xMax="1311" yMax="1110">
      <contour>
        <pt x="221" y="0" on="1"/>
        <pt x="230" y="107" on="1"/>
        <pt x="1265" y="107" on="1"/>
        <pt x="1255" y="0" on="1"/>
      </contour>
      <contour>
        <pt x="741" y="724" on="1"/>
        <pt x="769" y="1110" on="1"/>
        <pt x="874" y="1110" on="1"/>
        <pt x="846" y="724" on="1"/>
        <pt x="1311" y="724" on="1"/>
        <pt x="1301" y="617" on="1"/>
        <pt x="835" y="617" on="1"/>
        <pt x="807" y="232" on="1"/>
        <pt x="701" y="232" on="1"/>
        <pt x="731" y="617" on="1"/>
        <pt x="265" y="617" on="1"/>
        <pt x="293" y="724" on="1"/>
      </contour>
    </TTGlyph>
    <TTGlyph name="product" xMin="246" yMin="-341" xMax="1568" yMax="1439">
      <contour>
        <pt x="246" y="-341" on="1"/>
        <pt x="369" y="1319" on="1"/>
        <pt x="254" y="1319" on="1"/>
        <pt x="266" y="1439" on="1"/>
        <pt x="1568" y="1439" on="1"/>
        <pt x="1553" y="1319" on="1"/>
        <pt x="1428" y="1319" on="1"/>
        <pt x="1307" y="-341" on="1"/>
        <pt x="1182" y="-341" on="1"/>
        <pt x="1303" y="1319" on="1"/>
        <pt x="493" y="1319" on="1"/>
        <pt x="372" y="-341" on="1"/>
      </contour>
    </TTGlyph>
    <TTGlyph name="q" xMin="150" yMin="-442" xMax="1166" yMax="1051">
      <contour>
        <pt x="973" y="210" on="1"/>
        <pt x="899" y="90" on="0"/>
        <pt x="682" y="-23" on="0"/>
        <pt x="552" y="-23" on="1"/>
        <pt x="450" y="-23" on="0"/>
        <pt x="299" y="49" on="0"/>
        <pt x="199" y="177" on="0"/>
        <pt x="150" y="350" on="0"/>
        <pt x="150" y="452" on="1"/>
        <pt x="150" y="531" on="0"/>
        <pt x="179" y="681" on="0"/>
        <pt x="238" y="814" on="0"/>
        <pt x="324" y="926" on="0"/>
        <pt x="437" y="1006" on="0"/>
        <pt x="578" y="1051" on="0"/>
        <pt x="661" y="1051" on="1"/>
        <pt x="794" y="1051" on="0"/>
        <pt x="982" y="942" on="0"/>
        <pt x="1025" y="839" on="1"/>
        <pt x="1043" y="1026" on="1"/>
        <pt x="1166" y="1026" on="1"/>
        <pt x="1146" y="860" on="0"/>
        <pt x="1144" y="825" on="1"/>
        <pt x="1046" y="-442" on="1"/>
        <pt x="925" y="-442" on="1"/>
      </contour>
      <contour>
        <pt x="1004" y="610" on="1"/>
        <pt x="1004" y="680" on="0"/>
        <pt x="962" y="804" on="0"/>
        <pt x="879" y="897" on="0"/>
        <pt x="757" y="951" on="0"/>
        <pt x="677" y="951" on="1"/>
        <pt x="576" y="951" on="0"/>
        <pt x="427" y="871" on="0"/>
        <pt x="328" y="736" on="0"/>
        <pt x="279" y="555" on="0"/>
        <pt x="279" y="455" on="1"/>
        <pt x="279" y="378" on="0"/>
        <pt x="314" y="240" on="0"/>
        <pt x="391" y="136" on="0"/>
        <pt x="513" y="75" on="0"/>
        <pt x="599" y="75" on="1"/>
        <pt x="678" y="75" on="0"/>
        <pt x="799" y="119" on="0"/>
        <pt x="889" y="195" on="0"/>
        <pt x="951" y="298" on="0"/>
        <pt x="988" y="417" on="0"/>
        <pt x="1004" y="546" on="0"/>
      </contour>
    </TTGlyph>
    <TTGlyph name="question" xMin="311" yMin="-11" xMax="989" yMax="1494">
      <contour>
        <pt x="419" y="380" on="1"/>
        <pt x="419" y="557" on="1"/>
        <pt x="419" y="614" on="0"/>
        <pt x="485" y="711" on="0"/>
        <pt x="583" y="800" on="0"/>
        <pt x="699" y="887" on="0"/>
        <pt x="797" y="983" on="0"/>
        <pt x="863" y="1094" on="0"/>
        <pt x="863" y="1162" on="1"/>
        <pt x="863" y="1222" on="0"/>
        <pt x="820" y="1307" on="0"/>
        <pt x="749" y="1361" on="0"/>
        <pt x="657" y="1386" on="0"/>
        <pt x="608" y="1386" on="1"/>
        <pt x="561" y="1386" on="0"/>
        <pt x="479" y="1373" on="0"/>
        <pt x="405" y="1353" on="0"/>
        <pt x="340" y="1331" on="0"/>
        <pt x="311" y="1322" on="1"/>
        <pt x="319" y="1428" on="1"/>
        <pt x="386" y="1463" on="0"/>
        <pt x="526" y="1494" on="0"/>
        <pt x="589" y="1494" on="1"/>
        <pt x="674" y="1494" on="0"/>
        <pt x="820" y="1456" on="0"/>
        <pt x="928" y="1378" on="0"/>
        <pt x="989" y="1260" on="0"/>
        <pt x="989" y="1181" on="1"/>
        <pt x="989" y="1128" on="0"/>
        <pt x="964" y="1037" on="0"/>
        <pt x="920" y="959" on="0"/>
        <pt x="859" y="894" on="0"/>
        <pt x="823" y="866" on="1"/>
        <pt x="806" y="853" on="0"/>
        <pt x="781" y="833" on="0"/>
        <pt x="767" y="821" on="1"/>
        <pt x="715" y="776" on="0"/>
        <pt x="639" y="713" on="0"/>
        <pt x="586" y="662" on="0"/>
        <pt x="552" y="616" on="0"/>
        <pt x="533" y="563" on="0"/>
        <pt x="526" y="496" on="0"/>
        <pt x="526" y="449" on="1"/>
        <pt x="526" y="380" on="1"/>
      </contour>
      <contour>
        <pt x="548" y="-11" on="1"/>
        <pt x="376" y="-11" on="1"/>
        <pt x="389" y="168" on="1"/>
        <pt x="563" y="168" on="1"/>
      </contour>
    </TTGlyph>
    <TTGlyph name="questiondown" xMin="220" yMin="-173" xMax="899" yMax="1332">
      <component glyphName="question" x="1210" y="1321" scale="-0.999938964844" flags="0x1004"/>
    </TTGlyph>
    <TTGlyph name="quotedbl" xMin="253" yMin="1026" xMax="689" yMax="1467">
      <contour>
        <pt x="551" y="1026" on="1"/>
        <pt x="551" y="1467" on="1"/>
        <pt x="689" y="1467" on="1"/>
        <pt x="641" y="1026" on="1"/>
      </contour>
      <contour>
        <pt x="253" y="1026" on="1"/>
        <pt x="253" y="1467" on="1"/>
        <pt x="389" y="1467" on="1"/>
        <pt x="340" y="1026" on="1"/>
      </contour>
    </TTGlyph>
    <TTGlyph name="quotedblbase" xMin="190" yMin="-247" xMax="831" yMax="170">
      <contour>
        <pt x="324" y="170" on="1"/>
        <pt x="459" y="170" on="1"/>
        <pt x="277" y="-247" on="1"/>
        <pt x="190" y="-247" on="1"/>
      </contour>
      <contour>
        <pt x="694" y="170" on="1"/>
        <pt x="831" y="170" on="1"/>
        <pt x="651" y="-247" on="1"/>
        <pt x="562" y="-247" on="1"/>
      </contour>
    </TTGlyph>
    <TTGlyph name="quotedblleft" xMin="219" yMin="1060" xMax="778" yMax="1479">
      <contour>
        <pt x="355" y="1060" on="1"/>
        <pt x="219" y="1060" on="1"/>
        <pt x="402" y="1479" on="1"/>
        <pt x="488" y="1479" on="1"/>
      </contour>
      <contour>
        <pt x="646" y="1060" on="1"/>
        <pt x="509" y="1060" on="1"/>
        <pt x="689" y="1479" on="1"/>
        <pt x="778" y="1479" on="1"/>
      </contour>
    </TTGlyph>
    <TTGlyph name="quotedblright" xMin="252" yMin="1060" xMax="795" yMax="1479">
      <contour>
        <pt x="385" y="1479" on="1"/>
        <pt x="520" y="1479" on="1"/>
        <pt x="342" y="1060" on="1"/>
        <pt x="252" y="1060" on="1"/>
      </contour>
      <contour>
        <pt x="659" y="1479" on="1"/>
        <pt x="795" y="1479" on="1"/>
        <pt x="615" y="1060" on="1"/>
        <pt x="525" y="1060" on="1"/>
      </contour>
    </TTGlyph>
    <TTGlyph name="quoteleft" xMin="242" yMin="1060" xMax="510" yMax="1479">
      <contour>
        <pt x="377" y="1060" on="1"/>
        <pt x="242" y="1060" on="1"/>
        <pt x="422" y="1479" on="1"/>
        <pt x="510" y="1479" on="1"/>
      </contour>
    </TTGlyph>
    <TTGlyph name="quoteright" xMin="255" yMin="1060" xMax="523" yMax="1479">
      <contour>
        <pt x="389" y="1479" on="1"/>
        <pt x="523" y="1479" on="1"/>
        <pt x="344" y="1060" on="1"/>
        <pt x="255" y="1060" on="1"/>
      </contour>
    </TTGlyph>
    <TTGlyph name="quotesinglbase" xMin="140" yMin="-247" xMax="406" yMax="170">
      <contour>
        <pt x="272" y="170" on="1"/>
        <pt x="406" y="170" on="1"/>
        <pt x="227" y="-247" on="1"/>
        <pt x="140" y="-247" on="1"/>
      </contour>
    </TTGlyph>
    <TTGlyph name="quotesingle" xMin="318" yMin="1026" xMax="455" yMax="1467">
      <contour>
        <pt x="318" y="1026" on="1"/>
        <pt x="318" y="1467" on="1"/>
        <pt x="455" y="1467" on="1"/>
        <pt x="408" y="1026" on="1"/>
      </contour>
    </TTGlyph>
    <TTGlyph name="r" xMin="189" yMin="0" xMax="790" yMax="1050">
      <contour>
        <pt x="310" y="0" on="1"/>
        <pt x="189" y="0" on="1"/>
        <pt x="254" y="788" on="1"/>
        <pt x="256" y="820" on="0"/>
        <pt x="267" y="1026" on="1"/>
        <pt x="390" y="1026" on="1"/>
        <pt x="381" y="778" on="1"/>
        <pt x="401" y="850" on="0"/>
        <pt x="465" y="953" on="0"/>
        <pt x="548" y="1019" on="0"/>
        <pt x="648" y="1050" on="0"/>
        <pt x="705" y="1050" on="1"/>
        <pt x="734" y="1050" on="0"/>
        <pt x="777" y="1048" on="0"/>
        <pt x="790" y="1044" on="1"/>
        <pt x="783" y="930" on="1"/>
        <pt x="774" y="934" on="0"/>
        <pt x="727" y="941" on="0"/>
        <pt x="689" y="941" on="1"/>
        <pt x="623" y="941" on="0"/>
        <pt x="510" y="890" on="0"/>
        <pt x="423" y="794" on="0"/>
        <pt x="368" y="658" on="0"/>
        <pt x="361" y="574" on="1"/>
      </contour>
    </TTGlyph>
    <TTGlyph name="radical" xMin="171" yMin="-159" xMax="1338" yMax="1618">
      <contour>
        <pt x="682" y="-78" on="1"/>
        <pt x="762" y="183" on="1"/>
        <pt x="1261" y="1618" on="1"/>
        <pt x="1338" y="1618" on="1"/>
        <pt x="725" y="-159" on="1"/>
        <pt x="630" y="-159" on="1"/>
        <pt x="352" y="718" on="1"/>
        <pt x="171" y="690" on="1"/>
        <pt x="171" y="768" on="1"/>
        <pt x="431" y="816" on="1"/>
        <pt x="612" y="198" on="1"/>
        <pt x="682" y="-78" on="1"/>
      </contour>
    </TTGlyph>
    <TTGlyph name="registered" xMin="171" yMin="-32" xMax="1798" yMax="1499">
      <contour>
        <pt x="785" y="689" on="1"/>
        <pt x="751" y="282" on="1"/>
        <pt x="653" y="282" on="1"/>
        <pt x="722" y="1198" on="1"/>
        <pt x="983" y="1198" on="1"/>
        <pt x="1187" y="1198" on="0"/>
        <pt x="1381" y="1078" on="0"/>
        <pt x="1381" y="969" on="1"/>
        <pt x="1381" y="918" on="0"/>
        <pt x="1343" y="824" on="0"/>
        <pt x="1265" y="750" on="0"/>
        <pt x="1146" y="703" on="0"/>
        <pt x="1065" y="700" on="1"/>
        <pt x="1099" y="679" on="0"/>
        <pt x="1174" y="578" on="0"/>
        <pt x="1246" y="454" on="0"/>
        <pt x="1311" y="328" on="0"/>
        <pt x="1335" y="282" on="1"/>
        <pt x="1217" y="282" on="1"/>
        <pt x="1111" y="494" on="1"/>
        <pt x="1074" y="567" on="0"/>
        <pt x="1000" y="663" on="0"/>
        <pt x="957" y="689" on="1"/>
      </contour>
      <contour>
        <pt x="793" y="774" on="1"/>
        <pt x="946" y="774" on="1"/>
        <pt x="1021" y="774" on="0"/>
        <pt x="1142" y="785" on="0"/>
        <pt x="1227" y="822" on="0"/>
        <pt x="1272" y="892" on="0"/>
        <pt x="1272" y="951" on="1"/>
        <pt x="1272" y="1002" on="0"/>
        <pt x="1237" y="1066" on="0"/>
        <pt x="1162" y="1100" on="0"/>
        <pt x="1044" y="1112" on="0"/>
        <pt x="961" y="1112" on="1"/>
        <pt x="815" y="1112" on="1"/>
      </contour>
      <contour>
        <pt x="936" y="51" on="1"/>
        <pt x="1043" y="51" on="0"/>
        <pt x="1243" y="103" on="0"/>
        <pt x="1416" y="197" on="0"/>
        <pt x="1558" y="329" on="0"/>
        <pt x="1660" y="490" on="0"/>
        <pt x="1716" y="675" on="0"/>
        <pt x="1716" y="775" on="1"/>
        <pt x="1716" y="911" on="0"/>
        <pt x="1614" y="1146" on="0"/>
        <pt x="1433" y="1318" on="0"/>
        <pt x="1184" y="1416" on="0"/>
        <pt x="1036" y="1416" on="1"/>
        <pt x="930" y="1416" on="0"/>
        <pt x="731" y="1365" on="0"/>
        <pt x="558" y="1271" on="0"/>
        <pt x="414" y="1139" on="0"/>
        <pt x="312" y="978" on="0"/>
        <pt x="255" y="792" on="0"/>
        <pt x="255" y="691" on="1"/>
        <pt x="255" y="554" on="0"/>
        <pt x="356" y="320" on="0"/>
        <pt x="538" y="149" on="0"/>
        <pt x="787" y="51" on="0"/>
      </contour>
      <contour>
        <pt x="928" y="-32" on="1"/>
        <pt x="821" y="-32" on="0"/>
        <pt x="625" y="19" on="0"/>
        <pt x="457" y="112" on="0"/>
        <pt x="320" y="243" on="0"/>
        <pt x="224" y="403" on="0"/>
        <pt x="171" y="587" on="0"/>
        <pt x="171" y="687" on="1"/>
        <pt x="171" y="798" on="0"/>
        <pt x="236" y="1004" on="0"/>
        <pt x="353" y="1185" on="0"/>
        <pt x="516" y="1334" on="0"/>
        <pt x="710" y="1440" on="0"/>
        <pt x="929" y="1499" on="0"/>
        <pt x="1044" y="1499" on="1"/>
        <pt x="1151" y="1499" on="0"/>
        <pt x="1345" y="1448" on="0"/>
        <pt x="1513" y="1354" on="0"/>
        <pt x="1649" y="1223" on="0"/>
        <pt x="1746" y="1063" on="0"/>
        <pt x="1798" y="878" on="0"/>
        <pt x="1798" y="779" on="1"/>
        <pt x="1798" y="668" on="0"/>
        <pt x="1733" y="462" on="0"/>
        <pt x="1617" y="282" on="0"/>
        <pt x="1455" y="133" on="0"/>
        <pt x="1262" y="27" on="0"/>
        <pt x="1043" y="-32" on="0"/>
      </contour>
    </TTGlyph>
    <TTGlyph name="ring" xMin="332" yMin="1189" xMax="719" yMax="1549">
      <contour>
        <pt x="677" y="1378" on="1"/>
        <pt x="677" y="1404" on="0"/>
        <pt x="655" y="1451" on="0"/>
        <pt x="616" y="1487" on="0"/>
        <pt x="563" y="1509" on="0"/>
        <pt x="531" y="1509" on="1"/>
        <pt x="501" y="1509" on="0"/>
        <pt x="444" y="1485" on="0"/>
        <pt x="399" y="1445" on="0"/>
        <pt x="372" y="1392" on="0"/>
        <pt x="372" y="1364" on="1"/>
        <pt x="372" y="1304" on="0"/>
        <pt x="449" y="1230" on="0"/>
        <pt x="514" y="1230" on="1"/>
        <pt x="545" y="1230" on="0"/>
        <pt x="604" y="1254" on="0"/>
        <pt x="649" y="1295" on="0"/>
        <pt x="677" y="1349" on="0"/>
      </contour>
      <contour>
        <pt x="332" y="1358" on="1"/>
        <pt x="332" y="1399" on="0"/>
        <pt x="366" y="1469" on="0"/>
        <pt x="423" y="1520" on="0"/>
        <pt x="499" y="1549" on="0"/>
        <pt x="541" y="1549" on="1"/>
        <pt x="579" y="1549" on="0"/>
        <pt x="644" y="1524" on="0"/>
        <pt x="692" y="1479" on="0"/>
        <pt x="719" y="1418" on="0"/>
        <pt x="719" y="1382" on="1"/>
        <pt x="719" y="1343" on="0"/>
        <pt x="685" y="1272" on="0"/>
        <pt x="627" y="1220" on="0"/>
        <pt x="551" y="1189" on="0"/>
        <pt x="509" y="1189" on="1"/>
        <pt x="472" y="1189" on="0"/>
        <pt x="407" y="1214" on="0"/>
        <pt x="359" y="1259" on="0"/>
        <pt x="332" y="1321" on="0"/>
      </contour>
    </TTGlyph>
    <TTGlyph name="s" xMin="147" yMin="-23" xMax="928" yMax="1051">
      <contour>
        <pt x="869" y="894" on="1"/>
        <pt x="828" y="921" on="0"/>
        <pt x="676" y="951" on="0"/>
        <pt x="586" y="951" on="1"/>
        <pt x="530" y="951" on="0"/>
        <pt x="436" y="927" on="0"/>
        <pt x="368" y="881" on="0"/>
        <pt x="329" y="816" on="0"/>
        <pt x="329" y="775" on="1"/>
        <pt x="329" y="729" on="0"/>
        <pt x="358" y="674" on="0"/>
        <pt x="413" y="638" on="0"/>
        <pt x="493" y="615" on="0"/>
        <pt x="594" y="588" on="0"/>
        <pt x="714" y="548" on="0"/>
        <pt x="783" y="513" on="1"/>
        <pt x="808" y="501" on="0"/>
        <pt x="859" y="466" on="0"/>
        <pt x="901" y="415" on="0"/>
        <pt x="928" y="345" on="0"/>
        <pt x="928" y="298" on="1"/>
        <pt x="928" y="216" on="0"/>
        <pt x="852" y="95" on="0"/>
        <pt x="728" y="16" on="0"/>
        <pt x="571" y="-23" on="0"/>
        <pt x="490" y="-23" on="1"/>
        <pt x="437" y="-23" on="0"/>
        <pt x="335" y="-12" on="0"/>
        <pt x="245" y="13" on="0"/>
        <pt x="171" y="53" on="0"/>
        <pt x="147" y="82" on="1"/>
        <pt x="186" y="176" on="1"/>
        <pt x="207" y="150" on="0"/>
        <pt x="273" y="112" on="0"/>
        <pt x="355" y="87" on="0"/>
        <pt x="447" y="75" on="0"/>
        <pt x="494" y="75" on="1"/>
        <pt x="560" y="75" on="0"/>
        <pt x="671" y="100" on="0"/>
        <pt x="752" y="150" on="0"/>
        <pt x="797" y="225" on="0"/>
        <pt x="797" y="274" on="1"/>
        <pt x="797" y="323" on="0"/>
        <pt x="751" y="388" on="0"/>
        <pt x="670" y="434" on="0"/>
        <pt x="559" y="468" on="0"/>
        <pt x="495" y="486" on="1"/>
        <pt x="428" y="507" on="0"/>
        <pt x="319" y="553" on="0"/>
        <pt x="241" y="615" on="0"/>
        <pt x="199" y="700" on="0"/>
        <pt x="199" y="761" on="1"/>
        <pt x="199" y="835" on="0"/>
        <pt x="267" y="944" on="0"/>
        <pt x="377" y="1016" on="0"/>
        <pt x="517" y="1051" on="0"/>
        <pt x="588" y="1051" on="1"/>
        <pt x="688" y="1051" on="0"/>
        <pt x="854" y="1015" on="0"/>
        <pt x="905" y="973" on="1"/>
      </contour>
    </TTGlyph>
    <TTGlyph name="scaron" xMin="147" yMin="-23" xMax="928" yMax="1509">
      <component glyphName="s" x="0" y="0" flags="0x1204"/>
      <component glyphName="caron" x="140" y="0" flags="0x1004"/>
    </TTGlyph>
</ttFont>
